STARTFONT 2.1
COMMENT This font was automatically resized by bdfresize-1.5
COMMENT   mag_x = 5/1, mag_y = 5/1, blackness = 4
COMMENT MZ-700 ASCII font
COMMENT 8x8 dot bitmap font
COMMENT not resize. original size.
FONT -Mz700bdfascii-Fixed-Medium-R-Normal--40-400-75-75-M-400-ISO10646-1
SIZE 40 75 75
FONTBOUNDINGBOX 40 40 0 0
STARTPROPERTIES 19
FONT_ASCENT 40
FONT_DESCENT 0
DEFAULT_CHAR 32
COPYRIGHT "Unknown"
FONTNAME_REGISTRY ""
FOUNDRY "Mz700bdfascii"
FAMILY_NAME "Fixed"
WEIGHT_NAME "Medium"
SLANT "R"
SETWIDTH_NAME "Normal"
ADD_STYLE_NAME ""
PIXEL_SIZE 40
POINT_SIZE 400
RESOLUTION_X 75
RESOLUTION_Y 75
SPACING "M"
AVERAGE_WIDTH 400
CHARSET_REGISTRY "ISO10646"
CHARSET_ENCODING "1"
ENDPROPERTIES
CHARS 344
STARTCHAR 20
ENCODING 32
SWIDTH 4800 0
DWIDTH 40 0
BBX 40 40 0 0
BITMAP
0000000000
0000000000
0000000000
0000000000
0000000000
0000000000
0000000000
0000000000
0000000000
0000000000
0000000000
0000000000
0000000000
0000000000
0000000000
0000000000
0000000000
0000000000
0000000000
0000000000
0000000000
0000000000
0000000000
0000000000
0000000000
0000000000
0000000000
0000000000
0000000000
0000000000
0000000000
0000000000
0000000000
0000000000
0000000000
0000000000
0000000000
0000000000
0000000000
0000000000
ENDCHAR
STARTCHAR 21
ENCODING 33
SWIDTH 4800 0
DWIDTH 40 0
BBX 40 40 0 0
BITMAP
00000F8000
00000F8000
00000F8000
00000F8000
00000F8000
00000F8000
00000F8000
00000F8000
00000F8000
00000F8000
00000F8000
00000F8000
00000F8000
00000F8000
00000F8000
00000F8000
00000F8000
00000F8000
00000F8000
00000F8000
0000000000
0000000000
0000000000
0000000000
0000000000
0000000000
0000000000
0000000000
0000000000
0000000000
00000F8000
00000F8000
00000F8000
00000F8000
00000F8000
0000000000
0000000000
0000000000
0000000000
0000000000
ENDCHAR
STARTCHAR 22
ENCODING 34
SWIDTH 4800 0
DWIDTH 40 0
BBX 40 40 0 0
BITMAP
003E007C00
003E007C00
003E007C00
003E007C00
003E007C00
003E007C00
003E007C00
003E007C00
003E007C00
003E007C00
003E007C00
003E007C00
003E007C00
003E007C00
003E007C00
0000000000
0000000000
0000000000
0000000000
0000000000
0000000000
0000000000
0000000000
0000000000
0000000000
0000000000
0000000000
0000000000
0000000000
0000000000
0000000000
0000000000
0000000000
0000000000
0000000000
0000000000
0000000000
0000000000
0000000000
0000000000
ENDCHAR
STARTCHAR 23
ENCODING 35
SWIDTH 4800 0
DWIDTH 40 0
BBX 40 40 0 0
BITMAP
003E007C00
003E007C00
003E007C00
003E007C00
003E007C00
003E007C00
003E007C00
003E007C00
003E007C00
003E007C00
07FFFFFFE0
07FFFFFFE0
07FFFFFFE0
07FFFFFFE0
07FFFFFFE0
003E007C00
003E007C00
003E007C00
003E007C00
003E007C00
07FFFFFFE0
07FFFFFFE0
07FFFFFFE0
07FFFFFFE0
07FFFFFFE0
003E007C00
003E007C00
003E007C00
003E007C00
003E007C00
003E007C00
003E007C00
003E007C00
003E007C00
003E007C00
0000000000
0000000000
0000000000
0000000000
0000000000
ENDCHAR
STARTCHAR 24
ENCODING 36
SWIDTH 4800 0
DWIDTH 40 0
BBX 40 40 0 0
BITMAP
00000F8000
00000F8000
00000F8000
00000F8000
00000F8000
0001FFFFE0
0001FFFFE0
0001FFFFE0
0001FFFFE0
0001FFFFE0
003E0F8000
003E0F8000
003E0F8000
003E0F8000
003E0F8000
0001FFFC00
0001FFFC00
0001FFFC00
0001FFFC00
0001FFFC00
00000F83E0
00000F83E0
00000F83E0
00000F83E0
00000F83E0
003FFFFC00
003FFFFC00
003FFFFC00
003FFFFC00
003FFFFC00
00000F8000
00000F8000
00000F8000
00000F8000
00000F8000
0000000000
0000000000
0000000000
0000000000
0000000000
ENDCHAR
STARTCHAR 25
ENCODING 37
SWIDTH 4800 0
DWIDTH 40 0
BBX 40 40 0 0
BITMAP
0000000000
0000000000
0000000000
0000000000
0000000000
07FE0003E0
07FE0003E0
07FE0003E0
07FE0003E0
07FE0003E0
07FE007C00
07FE007C00
07FE007C00
07FE007C00
07FE007C00
00000F8000
00000F8000
00000F8000
00000F8000
00000F8000
0001F00000
0001F00000
0001F00000
0001F00000
0001F00000
003E007FE0
003E007FE0
003E007FE0
003E007FE0
003E007FE0
07C0007FE0
07C0007FE0
07C0007FE0
07C0007FE0
07C0007FE0
0000000000
0000000000
0000000000
0000000000
0000000000
ENDCHAR
STARTCHAR 26
ENCODING 38
SWIDTH 4800 0
DWIDTH 40 0
BBX 40 40 0 0
BITMAP
003FF00000
003FF00000
003FF00000
003FF00000
003FF00000
07C00F8000
07C00F8000
07C00F8000
07C00F8000
07C00F8000
07C00F8000
07C00F8000
07C00F8000
07C00F8000
07C00F8000
003FF00000
003FF00000
003FF00000
003FF00000
003FF00000
07C00F83E0
07C00F83E0
07C00F83E0
07C00F83E0
07C00F83E0
07C0007C00
07C0007C00
07C0007C00
07C0007C00
07C0007C00
003FFF83E0
003FFF83E0
003FFF83E0
003FFF83E0
003FFF83E0
0000000000
0000000000
0000000000
0000000000
0000000000
ENDCHAR
STARTCHAR 27
ENCODING 39
SWIDTH 4800 0
DWIDTH 40 0
BBX 40 40 0 0
BITMAP
0000007C00
0000007C00
0000007C00
0000007C00
0000007C00
00000F8000
00000F8000
00000F8000
00000F8000
00000F8000
0001F00000
0001F00000
0001F00000
0001F00000
0001F00000
0000000000
0000000000
0000000000
0000000000
0000000000
0000000000
0000000000
0000000000
0000000000
0000000000
0000000000
0000000000
0000000000
0000000000
0000000000
0000000000
0000000000
0000000000
0000000000
0000000000
0000000000
0000000000
0000000000
0000000000
0000000000
ENDCHAR
STARTCHAR 28
ENCODING 40
SWIDTH 4800 0
DWIDTH 40 0
BBX 40 40 0 0
BITMAP
0000007C00
0000007C00
0000007C00
0000007C00
0000007C00
00000F8000
00000F8000
00000F8000
00000F8000
00000F8000
0001F00000
0001F00000
0001F00000
0001F00000
0001F00000
0001F00000
0001F00000
0001F00000
0001F00000
0001F00000
0001F00000
0001F00000
0001F00000
0001F00000
0001F00000
00000F8000
00000F8000
00000F8000
00000F8000
00000F8000
0000007C00
0000007C00
0000007C00
0000007C00
0000007C00
0000000000
0000000000
0000000000
0000000000
0000000000
ENDCHAR
STARTCHAR 29
ENCODING 41
SWIDTH 4800 0
DWIDTH 40 0
BBX 40 40 0 0
BITMAP
003E000000
003E000000
003E000000
003E000000
003E000000
0001F00000
0001F00000
0001F00000
0001F00000
0001F00000
00000F8000
00000F8000
00000F8000
00000F8000
00000F8000
00000F8000
00000F8000
00000F8000
00000F8000
00000F8000
00000F8000
00000F8000
00000F8000
00000F8000
00000F8000
0001F00000
0001F00000
0001F00000
0001F00000
0001F00000
003E000000
003E000000
003E000000
003E000000
003E000000
0000000000
0000000000
0000000000
0000000000
0000000000
ENDCHAR
STARTCHAR 2a
ENCODING 42
SWIDTH 4800 0
DWIDTH 40 0
BBX 40 40 0 0
BITMAP
00000F8000
00000F8000
00000F8000
00000F8000
00000F8000
003E0F83E0
003E0F83E0
003E0F83E0
003E0F83E0
003E0F83E0
0001FFFC00
0001FFFC00
0001FFFC00
0001FFFC00
0001FFFC00
003FFFFFE0
003FFFFFE0
003FFFFFE0
003FFFFFE0
003FFFFFE0
0001FFFC00
0001FFFC00
0001FFFC00
0001FFFC00
0001FFFC00
003E0F83E0
003E0F83E0
003E0F83E0
003E0F83E0
003E0F83E0
00000F8000
00000F8000
00000F8000
00000F8000
00000F8000
0000000000
0000000000
0000000000
0000000000
0000000000
ENDCHAR
STARTCHAR 2b
ENCODING 43
SWIDTH 4800 0
DWIDTH 40 0
BBX 40 40 0 0
BITMAP
0000000000
0000000000
0000000000
0000000000
0000000000
00000F8000
00000F8000
00000F8000
00000F8000
00000F8000
00000F8000
00000F8000
00000F8000
00000F8000
00000F8000
003FFFFFE0
003FFFFFE0
003FFFFFE0
003FFFFFE0
003FFFFFE0
00000F8000
00000F8000
00000F8000
00000F8000
00000F8000
00000F8000
00000F8000
00000F8000
00000F8000
00000F8000
0000000000
0000000000
0000000000
0000000000
0000000000
0000000000
0000000000
0000000000
0000000000
0000000000
ENDCHAR
STARTCHAR 2c
ENCODING 44
SWIDTH 4800 0
DWIDTH 40 0
BBX 40 40 0 0
BITMAP
0000000000
0000000000
0000000000
0000000000
0000000000
0000000000
0000000000
0000000000
0000000000
0000000000
0000000000
0000000000
0000000000
0000000000
0000000000
0000000000
0000000000
0000000000
0000000000
0000000000
0000000000
0000000000
0000000000
0000000000
0000000000
00000F8000
00000F8000
00000F8000
00000F8000
00000F8000
00000F8000
00000F8000
00000F8000
00000F8000
00000F8000
0001F00000
0001F00000
0001F00000
0001F00000
0001F00000
ENDCHAR
STARTCHAR 2d
ENCODING 45
SWIDTH 4800 0
DWIDTH 40 0
BBX 40 40 0 0
BITMAP
0000000000
0000000000
0000000000
0000000000
0000000000
0000000000
0000000000
0000000000
0000000000
0000000000
0000000000
0000000000
0000000000
0000000000
0000000000
07FFFFFFE0
07FFFFFFE0
07FFFFFFE0
07FFFFFFE0
07FFFFFFE0
0000000000
0000000000
0000000000
0000000000
0000000000
0000000000
0000000000
0000000000
0000000000
0000000000
0000000000
0000000000
0000000000
0000000000
0000000000
0000000000
0000000000
0000000000
0000000000
0000000000
ENDCHAR
STARTCHAR 2e
ENCODING 46
SWIDTH 4800 0
DWIDTH 40 0
BBX 40 40 0 0
BITMAP
0000000000
0000000000
0000000000
0000000000
0000000000
0000000000
0000000000
0000000000
0000000000
0000000000
0000000000
0000000000
0000000000
0000000000
0000000000
0000000000
0000000000
0000000000
0000000000
0000000000
0000000000
0000000000
0000000000
0000000000
0000000000
0001FF8000
0001FF8000
0001FF8000
0001FF8000
0001FF8000
0001FF8000
0001FF8000
0001FF8000
0001FF8000
0001FF8000
0000000000
0000000000
0000000000
0000000000
0000000000
ENDCHAR
STARTCHAR 2f
ENCODING 47
SWIDTH 4800 0
DWIDTH 40 0
BBX 40 40 0 0
BITMAP
0000000000
0000000000
0000000000
0000000000
0000000000
00000003E0
00000003E0
00000003E0
00000003E0
00000003E0
0000007C00
0000007C00
0000007C00
0000007C00
0000007C00
00000F8000
00000F8000
00000F8000
00000F8000
00000F8000
0001F00000
0001F00000
0001F00000
0001F00000
0001F00000
003E000000
003E000000
003E000000
003E000000
003E000000
07C0000000
07C0000000
07C0000000
07C0000000
07C0000000
0000000000
0000000000
0000000000
0000000000
0000000000
ENDCHAR
STARTCHAR 30
ENCODING 48
SWIDTH 4800 0
DWIDTH 40 0
BBX 40 40 0 0
BITMAP
003FFFFC00
003FFFFC00
003FFFFC00
003FFFFC00
003FFFFC00
07C00003E0
07C00003E0
07C00003E0
07C00003E0
07C00003E0
07C0007FE0
07C0007FE0
07C0007FE0
07C0007FE0
07C0007FE0
07C1FF83E0
07C1FF83E0
07C1FF83E0
07C1FF83E0
07C1FF83E0
07FE0003E0
07FE0003E0
07FE0003E0
07FE0003E0
07FE0003E0
07C00003E0
07C00003E0
07C00003E0
07C00003E0
07C00003E0
003FFFFC00
003FFFFC00
003FFFFC00
003FFFFC00
003FFFFC00
0000000000
0000000000
0000000000
0000000000
0000000000
ENDCHAR
STARTCHAR 31
ENCODING 49
SWIDTH 4800 0
DWIDTH 40 0
BBX 40 40 0 0
BITMAP
00000F8000
00000F8000
00000F8000
00000F8000
00000F8000
0001FF8000
0001FF8000
0001FF8000
0001FF8000
0001FF8000
003E0F8000
003E0F8000
003E0F8000
003E0F8000
003E0F8000
00000F8000
00000F8000
00000F8000
00000F8000
00000F8000
00000F8000
00000F8000
00000F8000
00000F8000
00000F8000
00000F8000
00000F8000
00000F8000
00000F8000
00000F8000
003FFFFFE0
003FFFFFE0
003FFFFFE0
003FFFFFE0
003FFFFFE0
0000000000
0000000000
0000000000
0000000000
0000000000
ENDCHAR
STARTCHAR 32
ENCODING 50
SWIDTH 4800 0
DWIDTH 40 0
BBX 40 40 0 0
BITMAP
003FFFFC00
003FFFFC00
003FFFFC00
003FFFFC00
003FFFFC00
07C00003E0
07C00003E0
07C00003E0
07C00003E0
07C00003E0
00000003E0
00000003E0
00000003E0
00000003E0
00000003E0
00000FFC00
00000FFC00
00000FFC00
00000FFC00
00000FFC00
003FF00000
003FF00000
003FF00000
003FF00000
003FF00000
07C0000000
07C0000000
07C0000000
07C0000000
07C0000000
07FFFFFFE0
07FFFFFFE0
07FFFFFFE0
07FFFFFFE0
07FFFFFFE0
0000000000
0000000000
0000000000
0000000000
0000000000
ENDCHAR
STARTCHAR 33
ENCODING 51
SWIDTH 4800 0
DWIDTH 40 0
BBX 40 40 0 0
BITMAP
003FFFFC00
003FFFFC00
003FFFFC00
003FFFFC00
003FFFFC00
07C00003E0
07C00003E0
07C00003E0
07C00003E0
07C00003E0
00000003E0
00000003E0
00000003E0
00000003E0
00000003E0
003FFFFC00
003FFFFC00
003FFFFC00
003FFFFC00
003FFFFC00
00000003E0
00000003E0
00000003E0
00000003E0
00000003E0
07C00003E0
07C00003E0
07C00003E0
07C00003E0
07C00003E0
003FFFFC00
003FFFFC00
003FFFFC00
003FFFFC00
003FFFFC00
0000000000
0000000000
0000000000
0000000000
0000000000
ENDCHAR
STARTCHAR 34
ENCODING 52
SWIDTH 4800 0
DWIDTH 40 0
BBX 40 40 0 0
BITMAP
0000007C00
0000007C00
0000007C00
0000007C00
0000007C00
00000FFC00
00000FFC00
00000FFC00
00000FFC00
00000FFC00
0001F07C00
0001F07C00
0001F07C00
0001F07C00
0001F07C00
003E007C00
003E007C00
003E007C00
003E007C00
003E007C00
07FFFFFFE0
07FFFFFFE0
07FFFFFFE0
07FFFFFFE0
07FFFFFFE0
0000007C00
0000007C00
0000007C00
0000007C00
0000007C00
0000007C00
0000007C00
0000007C00
0000007C00
0000007C00
0000000000
0000000000
0000000000
0000000000
0000000000
ENDCHAR
STARTCHAR 35
ENCODING 53
SWIDTH 4800 0
DWIDTH 40 0
BBX 40 40 0 0
BITMAP
07FFFFFFE0
07FFFFFFE0
07FFFFFFE0
07FFFFFFE0
07FFFFFFE0
07C0000000
07C0000000
07C0000000
07C0000000
07C0000000
07FFFF8000
07FFFF8000
07FFFF8000
07FFFF8000
07FFFF8000
0000007C00
0000007C00
0000007C00
0000007C00
0000007C00
00000003E0
00000003E0
00000003E0
00000003E0
00000003E0
07C0007C00
07C0007C00
07C0007C00
07C0007C00
07C0007C00
003FFF8000
003FFF8000
003FFF8000
003FFF8000
003FFF8000
0000000000
0000000000
0000000000
0000000000
0000000000
ENDCHAR
STARTCHAR 36
ENCODING 54
SWIDTH 4800 0
DWIDTH 40 0
BBX 40 40 0 0
BITMAP
0001FFFC00
0001FFFC00
0001FFFC00
0001FFFC00
0001FFFC00
003E000000
003E000000
003E000000
003E000000
003E000000
07C0000000
07C0000000
07C0000000
07C0000000
07C0000000
07FFFFFC00
07FFFFFC00
07FFFFFC00
07FFFFFC00
07FFFFFC00
07C00003E0
07C00003E0
07C00003E0
07C00003E0
07C00003E0
07C00003E0
07C00003E0
07C00003E0
07C00003E0
07C00003E0
003FFFFC00
003FFFFC00
003FFFFC00
003FFFFC00
003FFFFC00
0000000000
0000000000
0000000000
0000000000
0000000000
ENDCHAR
STARTCHAR 37
ENCODING 55
SWIDTH 4800 0
DWIDTH 40 0
BBX 40 40 0 0
BITMAP
07FFFFFFE0
07FFFFFFE0
07FFFFFFE0
07FFFFFFE0
07FFFFFFE0
07C00003E0
07C00003E0
07C00003E0
07C00003E0
07C00003E0
0000007C00
0000007C00
0000007C00
0000007C00
0000007C00
00000F8000
00000F8000
00000F8000
00000F8000
00000F8000
0001F00000
0001F00000
0001F00000
0001F00000
0001F00000
0001F00000
0001F00000
0001F00000
0001F00000
0001F00000
0001F00000
0001F00000
0001F00000
0001F00000
0001F00000
0000000000
0000000000
0000000000
0000000000
0000000000
ENDCHAR
STARTCHAR 38
ENCODING 56
SWIDTH 4800 0
DWIDTH 40 0
BBX 40 40 0 0
BITMAP
003FFFFC00
003FFFFC00
003FFFFC00
003FFFFC00
003FFFFC00
07C00003E0
07C00003E0
07C00003E0
07C00003E0
07C00003E0
07C00003E0
07C00003E0
07C00003E0
07C00003E0
07C00003E0
003FFFFC00
003FFFFC00
003FFFFC00
003FFFFC00
003FFFFC00
07C00003E0
07C00003E0
07C00003E0
07C00003E0
07C00003E0
07C00003E0
07C00003E0
07C00003E0
07C00003E0
07C00003E0
003FFFFC00
003FFFFC00
003FFFFC00
003FFFFC00
003FFFFC00
0000000000
0000000000
0000000000
0000000000
0000000000
ENDCHAR
STARTCHAR 39
ENCODING 57
SWIDTH 4800 0
DWIDTH 40 0
BBX 40 40 0 0
BITMAP
003FFFFC00
003FFFFC00
003FFFFC00
003FFFFC00
003FFFFC00
07C00003E0
07C00003E0
07C00003E0
07C00003E0
07C00003E0
07C00003E0
07C00003E0
07C00003E0
07C00003E0
07C00003E0
003FFFFFE0
003FFFFFE0
003FFFFFE0
003FFFFFE0
003FFFFFE0
00000003E0
00000003E0
00000003E0
00000003E0
00000003E0
0000007C00
0000007C00
0000007C00
0000007C00
0000007C00
003FFF8000
003FFF8000
003FFF8000
003FFF8000
003FFF8000
0000000000
0000000000
0000000000
0000000000
0000000000
ENDCHAR
STARTCHAR 3a
ENCODING 58
SWIDTH 4800 0
DWIDTH 40 0
BBX 40 40 0 0
BITMAP
0000000000
0000000000
0000000000
0000000000
0000000000
0000000000
0000000000
0000000000
0000000000
0000000000
00000F8000
00000F8000
00000F8000
00000F8000
00000F8000
0000000000
0000000000
0000000000
0000000000
0000000000
0000000000
0000000000
0000000000
0000000000
0000000000
00000F8000
00000F8000
00000F8000
00000F8000
00000F8000
0000000000
0000000000
0000000000
0000000000
0000000000
0000000000
0000000000
0000000000
0000000000
0000000000
ENDCHAR
STARTCHAR 3b
ENCODING 59
SWIDTH 4800 0
DWIDTH 40 0
BBX 40 40 0 0
BITMAP
0000000000
0000000000
0000000000
0000000000
0000000000
0000000000
0000000000
0000000000
0000000000
0000000000
00000F8000
00000F8000
00000F8000
00000F8000
00000F8000
0000000000
0000000000
0000000000
0000000000
0000000000
0000000000
0000000000
0000000000
0000000000
0000000000
00000F8000
00000F8000
00000F8000
00000F8000
00000F8000
00000F8000
00000F8000
00000F8000
00000F8000
00000F8000
0001F00000
0001F00000
0001F00000
0001F00000
0001F00000
ENDCHAR
STARTCHAR 3c
ENCODING 60
SWIDTH 4800 0
DWIDTH 40 0
BBX 40 40 0 0
BITMAP
00000FFFE0
00000FFFE0
00000FFFE0
00000FFFE0
00000FFFE0
0001FF8000
0001FF8000
0001FF8000
0001FF8000
0001FF8000
003FF00000
003FF00000
003FF00000
003FF00000
003FF00000
07FE000000
07FE000000
07FE000000
07FE000000
07FE000000
003FF00000
003FF00000
003FF00000
003FF00000
003FF00000
0001FF8000
0001FF8000
0001FF8000
0001FF8000
0001FF8000
00000FFFE0
00000FFFE0
00000FFFE0
00000FFFE0
00000FFFE0
0000000000
0000000000
0000000000
0000000000
0000000000
ENDCHAR
STARTCHAR 3d
ENCODING 61
SWIDTH 4800 0
DWIDTH 40 0
BBX 40 40 0 0
BITMAP
0000000000
0000000000
0000000000
0000000000
0000000000
0000000000
0000000000
0000000000
0000000000
0000000000
07FFFFFFE0
07FFFFFFE0
07FFFFFFE0
07FFFFFFE0
07FFFFFFE0
0000000000
0000000000
0000000000
0000000000
0000000000
07FFFFFFE0
07FFFFFFE0
07FFFFFFE0
07FFFFFFE0
07FFFFFFE0
0000000000
0000000000
0000000000
0000000000
0000000000
0000000000
0000000000
0000000000
0000000000
0000000000
0000000000
0000000000
0000000000
0000000000
0000000000
ENDCHAR
STARTCHAR 3e
ENCODING 62
SWIDTH 4800 0
DWIDTH 40 0
BBX 40 40 0 0
BITMAP
07FFF00000
07FFF00000
07FFF00000
07FFF00000
07FFF00000
0001FF8000
0001FF8000
0001FF8000
0001FF8000
0001FF8000
00000FFC00
00000FFC00
00000FFC00
00000FFC00
00000FFC00
0000007FE0
0000007FE0
0000007FE0
0000007FE0
0000007FE0
00000FFC00
00000FFC00
00000FFC00
00000FFC00
00000FFC00
0001FF8000
0001FF8000
0001FF8000
0001FF8000
0001FF8000
07FFF00000
07FFF00000
07FFF00000
07FFF00000
07FFF00000
0000000000
0000000000
0000000000
0000000000
0000000000
ENDCHAR
STARTCHAR 3f
ENCODING 63
SWIDTH 4800 0
DWIDTH 40 0
BBX 40 40 0 0
BITMAP
003FFFFC00
003FFFFC00
003FFFFC00
003FFFFC00
003FFFFC00
07C00003E0
07C00003E0
07C00003E0
07C00003E0
07C00003E0
00000003E0
00000003E0
00000003E0
00000003E0
00000003E0
00000FFC00
00000FFC00
00000FFC00
00000FFC00
00000FFC00
0001F00000
0001F00000
0001F00000
0001F00000
0001F00000
0000000000
0000000000
0000000000
0000000000
0000000000
0001F00000
0001F00000
0001F00000
0001F00000
0001F00000
0000000000
0000000000
0000000000
0000000000
0000000000
ENDCHAR
STARTCHAR 40
ENCODING 64
SWIDTH 4800 0
DWIDTH 40 0
BBX 40 40 0 0
BITMAP
0001FFFC00
0001FFFC00
0001FFFC00
0001FFFC00
0001FFFC00
003E0003E0
003E0003E0
003E0003E0
003E0003E0
003E0003E0
07C00F83E0
07C00F83E0
07C00F83E0
07C00F83E0
07C00F83E0
07C1F07FE0
07C1F07FE0
07C1F07FE0
07C1F07FE0
07C1F07FE0
07C00FFC00
07C00FFC00
07C00FFC00
07C00FFC00
07C00FFC00
003E000000
003E000000
003E000000
003E000000
003E000000
0001FFFFE0
0001FFFFE0
0001FFFFE0
0001FFFFE0
0001FFFFE0
0000000000
0000000000
0000000000
0000000000
0000000000
ENDCHAR
STARTCHAR 41
ENCODING 65
SWIDTH 4800 0
DWIDTH 40 0
BBX 40 40 0 0
BITMAP
0001FF8000
0001FF8000
0001FF8000
0001FF8000
0001FF8000
003E007C00
003E007C00
003E007C00
003E007C00
003E007C00
07C00003E0
07C00003E0
07C00003E0
07C00003E0
07C00003E0
07FFFFFFE0
07FFFFFFE0
07FFFFFFE0
07FFFFFFE0
07FFFFFFE0
07C00003E0
07C00003E0
07C00003E0
07C00003E0
07C00003E0
07C00003E0
07C00003E0
07C00003E0
07C00003E0
07C00003E0
07C00003E0
07C00003E0
07C00003E0
07C00003E0
07C00003E0
0000000000
0000000000
0000000000
0000000000
0000000000
ENDCHAR
STARTCHAR 42
ENCODING 66
SWIDTH 4800 0
DWIDTH 40 0
BBX 40 40 0 0
BITMAP
07FFFFFC00
07FFFFFC00
07FFFFFC00
07FFFFFC00
07FFFFFC00
003E0003E0
003E0003E0
003E0003E0
003E0003E0
003E0003E0
003E0003E0
003E0003E0
003E0003E0
003E0003E0
003E0003E0
003FFFFC00
003FFFFC00
003FFFFC00
003FFFFC00
003FFFFC00
003E0003E0
003E0003E0
003E0003E0
003E0003E0
003E0003E0
003E0003E0
003E0003E0
003E0003E0
003E0003E0
003E0003E0
07FFFFFC00
07FFFFFC00
07FFFFFC00
07FFFFFC00
07FFFFFC00
0000000000
0000000000
0000000000
0000000000
0000000000
ENDCHAR
STARTCHAR 43
ENCODING 67
SWIDTH 4800 0
DWIDTH 40 0
BBX 40 40 0 0
BITMAP
0001FFFC00
0001FFFC00
0001FFFC00
0001FFFC00
0001FFFC00
003E0003E0
003E0003E0
003E0003E0
003E0003E0
003E0003E0
07C0000000
07C0000000
07C0000000
07C0000000
07C0000000
07C0000000
07C0000000
07C0000000
07C0000000
07C0000000
07C0000000
07C0000000
07C0000000
07C0000000
07C0000000
003E0003E0
003E0003E0
003E0003E0
003E0003E0
003E0003E0
0001FFFC00
0001FFFC00
0001FFFC00
0001FFFC00
0001FFFC00
0000000000
0000000000
0000000000
0000000000
0000000000
ENDCHAR
STARTCHAR 44
ENCODING 68
SWIDTH 4800 0
DWIDTH 40 0
BBX 40 40 0 0
BITMAP
07FFFF8000
07FFFF8000
07FFFF8000
07FFFF8000
07FFFF8000
003E007C00
003E007C00
003E007C00
003E007C00
003E007C00
003E0003E0
003E0003E0
003E0003E0
003E0003E0
003E0003E0
003E0003E0
003E0003E0
003E0003E0
003E0003E0
003E0003E0
003E0003E0
003E0003E0
003E0003E0
003E0003E0
003E0003E0
003E007C00
003E007C00
003E007C00
003E007C00
003E007C00
07FFFF8000
07FFFF8000
07FFFF8000
07FFFF8000
07FFFF8000
0000000000
0000000000
0000000000
0000000000
0000000000
ENDCHAR
STARTCHAR 45
ENCODING 69
SWIDTH 4800 0
DWIDTH 40 0
BBX 40 40 0 0
BITMAP
07FFFFFFE0
07FFFFFFE0
07FFFFFFE0
07FFFFFFE0
07FFFFFFE0
07C0000000
07C0000000
07C0000000
07C0000000
07C0000000
07C0000000
07C0000000
07C0000000
07C0000000
07C0000000
07FFFF8000
07FFFF8000
07FFFF8000
07FFFF8000
07FFFF8000
07C0000000
07C0000000
07C0000000
07C0000000
07C0000000
07C0000000
07C0000000
07C0000000
07C0000000
07C0000000
07FFFFFFE0
07FFFFFFE0
07FFFFFFE0
07FFFFFFE0
07FFFFFFE0
0000000000
0000000000
0000000000
0000000000
0000000000
ENDCHAR
STARTCHAR 46
ENCODING 70
SWIDTH 4800 0
DWIDTH 40 0
BBX 40 40 0 0
BITMAP
07FFFFFFE0
07FFFFFFE0
07FFFFFFE0
07FFFFFFE0
07FFFFFFE0
07C0000000
07C0000000
07C0000000
07C0000000
07C0000000
07C0000000
07C0000000
07C0000000
07C0000000
07C0000000
07FFFF8000
07FFFF8000
07FFFF8000
07FFFF8000
07FFFF8000
07C0000000
07C0000000
07C0000000
07C0000000
07C0000000
07C0000000
07C0000000
07C0000000
07C0000000
07C0000000
07C0000000
07C0000000
07C0000000
07C0000000
07C0000000
0000000000
0000000000
0000000000
0000000000
0000000000
ENDCHAR
STARTCHAR 47
ENCODING 71
SWIDTH 4800 0
DWIDTH 40 0
BBX 40 40 0 0
BITMAP
0001FFFC00
0001FFFC00
0001FFFC00
0001FFFC00
0001FFFC00
003E0003E0
003E0003E0
003E0003E0
003E0003E0
003E0003E0
07C0000000
07C0000000
07C0000000
07C0000000
07C0000000
07C00FFFE0
07C00FFFE0
07C00FFFE0
07C00FFFE0
07C00FFFE0
07C00003E0
07C00003E0
07C00003E0
07C00003E0
07C00003E0
003E0003E0
003E0003E0
003E0003E0
003E0003E0
003E0003E0
0001FFFC00
0001FFFC00
0001FFFC00
0001FFFC00
0001FFFC00
0000000000
0000000000
0000000000
0000000000
0000000000
ENDCHAR
STARTCHAR 48
ENCODING 72
SWIDTH 4800 0
DWIDTH 40 0
BBX 40 40 0 0
BITMAP
07C00003E0
07C00003E0
07C00003E0
07C00003E0
07C00003E0
07C00003E0
07C00003E0
07C00003E0
07C00003E0
07C00003E0
07C00003E0
07C00003E0
07C00003E0
07C00003E0
07C00003E0
07FFFFFFE0
07FFFFFFE0
07FFFFFFE0
07FFFFFFE0
07FFFFFFE0
07C00003E0
07C00003E0
07C00003E0
07C00003E0
07C00003E0
07C00003E0
07C00003E0
07C00003E0
07C00003E0
07C00003E0
07C00003E0
07C00003E0
07C00003E0
07C00003E0
07C00003E0
0000000000
0000000000
0000000000
0000000000
0000000000
ENDCHAR
STARTCHAR 49
ENCODING 73
SWIDTH 4800 0
DWIDTH 40 0
BBX 40 40 0 0
BITMAP
0001FFFC00
0001FFFC00
0001FFFC00
0001FFFC00
0001FFFC00
00000F8000
00000F8000
00000F8000
00000F8000
00000F8000
00000F8000
00000F8000
00000F8000
00000F8000
00000F8000
00000F8000
00000F8000
00000F8000
00000F8000
00000F8000
00000F8000
00000F8000
00000F8000
00000F8000
00000F8000
00000F8000
00000F8000
00000F8000
00000F8000
00000F8000
0001FFFC00
0001FFFC00
0001FFFC00
0001FFFC00
0001FFFC00
0000000000
0000000000
0000000000
0000000000
0000000000
ENDCHAR
STARTCHAR 4a
ENCODING 74
SWIDTH 4800 0
DWIDTH 40 0
BBX 40 40 0 0
BITMAP
00000FFFE0
00000FFFE0
00000FFFE0
00000FFFE0
00000FFFE0
0000007C00
0000007C00
0000007C00
0000007C00
0000007C00
0000007C00
0000007C00
0000007C00
0000007C00
0000007C00
0000007C00
0000007C00
0000007C00
0000007C00
0000007C00
0000007C00
0000007C00
0000007C00
0000007C00
0000007C00
07C0007C00
07C0007C00
07C0007C00
07C0007C00
07C0007C00
003FFF8000
003FFF8000
003FFF8000
003FFF8000
003FFF8000
0000000000
0000000000
0000000000
0000000000
0000000000
ENDCHAR
STARTCHAR 4b
ENCODING 75
SWIDTH 4800 0
DWIDTH 40 0
BBX 40 40 0 0
BITMAP
07C00003E0
07C00003E0
07C00003E0
07C00003E0
07C00003E0
07C0007C00
07C0007C00
07C0007C00
07C0007C00
07C0007C00
07C00F8000
07C00F8000
07C00F8000
07C00F8000
07C00F8000
07FFF00000
07FFF00000
07FFF00000
07FFF00000
07FFF00000
07C00F8000
07C00F8000
07C00F8000
07C00F8000
07C00F8000
07C0007C00
07C0007C00
07C0007C00
07C0007C00
07C0007C00
07C00003E0
07C00003E0
07C00003E0
07C00003E0
07C00003E0
0000000000
0000000000
0000000000
0000000000
0000000000
ENDCHAR
STARTCHAR 4c
ENCODING 76
SWIDTH 4800 0
DWIDTH 40 0
BBX 40 40 0 0
BITMAP
07C0000000
07C0000000
07C0000000
07C0000000
07C0000000
07C0000000
07C0000000
07C0000000
07C0000000
07C0000000
07C0000000
07C0000000
07C0000000
07C0000000
07C0000000
07C0000000
07C0000000
07C0000000
07C0000000
07C0000000
07C0000000
07C0000000
07C0000000
07C0000000
07C0000000
07C0000000
07C0000000
07C0000000
07C0000000
07C0000000
07FFFFFFE0
07FFFFFFE0
07FFFFFFE0
07FFFFFFE0
07FFFFFFE0
0000000000
0000000000
0000000000
0000000000
0000000000
ENDCHAR
STARTCHAR 4d
ENCODING 77
SWIDTH 4800 0
DWIDTH 40 0
BBX 40 40 0 0
BITMAP
07C00003E0
07C00003E0
07C00003E0
07C00003E0
07C00003E0
07FE007FE0
07FE007FE0
07FE007FE0
07FE007FE0
07FE007FE0
07C1FF83E0
07C1FF83E0
07C1FF83E0
07C1FF83E0
07C1FF83E0
07C1FF83E0
07C1FF83E0
07C1FF83E0
07C1FF83E0
07C1FF83E0
07C00003E0
07C00003E0
07C00003E0
07C00003E0
07C00003E0
07C00003E0
07C00003E0
07C00003E0
07C00003E0
07C00003E0
07C00003E0
07C00003E0
07C00003E0
07C00003E0
07C00003E0
0000000000
0000000000
0000000000
0000000000
0000000000
ENDCHAR
STARTCHAR 4e
ENCODING 78
SWIDTH 4800 0
DWIDTH 40 0
BBX 40 40 0 0
BITMAP
07C00003E0
07C00003E0
07C00003E0
07C00003E0
07C00003E0
07FE0003E0
07FE0003E0
07FE0003E0
07FE0003E0
07FE0003E0
07C1F003E0
07C1F003E0
07C1F003E0
07C1F003E0
07C1F003E0
07C00F83E0
07C00F83E0
07C00F83E0
07C00F83E0
07C00F83E0
07C0007FE0
07C0007FE0
07C0007FE0
07C0007FE0
07C0007FE0
07C00003E0
07C00003E0
07C00003E0
07C00003E0
07C00003E0
07C00003E0
07C00003E0
07C00003E0
07C00003E0
07C00003E0
0000000000
0000000000
0000000000
0000000000
0000000000
ENDCHAR
STARTCHAR 4f
ENCODING 79
SWIDTH 4800 0
DWIDTH 40 0
BBX 40 40 0 0
BITMAP
0001FF8000
0001FF8000
0001FF8000
0001FF8000
0001FF8000
003E007C00
003E007C00
003E007C00
003E007C00
003E007C00
07C00003E0
07C00003E0
07C00003E0
07C00003E0
07C00003E0
07C00003E0
07C00003E0
07C00003E0
07C00003E0
07C00003E0
07C00003E0
07C00003E0
07C00003E0
07C00003E0
07C00003E0
003E007C00
003E007C00
003E007C00
003E007C00
003E007C00
0001FF8000
0001FF8000
0001FF8000
0001FF8000
0001FF8000
0000000000
0000000000
0000000000
0000000000
0000000000
ENDCHAR
STARTCHAR 50
ENCODING 80
SWIDTH 4800 0
DWIDTH 40 0
BBX 40 40 0 0
BITMAP
07FFFFFC00
07FFFFFC00
07FFFFFC00
07FFFFFC00
07FFFFFC00
07C00003E0
07C00003E0
07C00003E0
07C00003E0
07C00003E0
07C00003E0
07C00003E0
07C00003E0
07C00003E0
07C00003E0
07FFFFFC00
07FFFFFC00
07FFFFFC00
07FFFFFC00
07FFFFFC00
07C0000000
07C0000000
07C0000000
07C0000000
07C0000000
07C0000000
07C0000000
07C0000000
07C0000000
07C0000000
07C0000000
07C0000000
07C0000000
07C0000000
07C0000000
0000000000
0000000000
0000000000
0000000000
0000000000
ENDCHAR
STARTCHAR 51
ENCODING 81
SWIDTH 4800 0
DWIDTH 40 0
BBX 40 40 0 0
BITMAP
0001FF8000
0001FF8000
0001FF8000
0001FF8000
0001FF8000
003E007C00
003E007C00
003E007C00
003E007C00
003E007C00
07C00003E0
07C00003E0
07C00003E0
07C00003E0
07C00003E0
07C00003E0
07C00003E0
07C00003E0
07C00003E0
07C00003E0
07C00F83E0
07C00F83E0
07C00F83E0
07C00F83E0
07C00F83E0
003E007C00
003E007C00
003E007C00
003E007C00
003E007C00
0001FF83E0
0001FF83E0
0001FF83E0
0001FF83E0
0001FF83E0
0000000000
0000000000
0000000000
0000000000
0000000000
ENDCHAR
STARTCHAR 52
ENCODING 82
SWIDTH 4800 0
DWIDTH 40 0
BBX 40 40 0 0
BITMAP
07FFFFFC00
07FFFFFC00
07FFFFFC00
07FFFFFC00
07FFFFFC00
07C00003E0
07C00003E0
07C00003E0
07C00003E0
07C00003E0
07C00003E0
07C00003E0
07C00003E0
07C00003E0
07C00003E0
07FFFFFC00
07FFFFFC00
07FFFFFC00
07FFFFFC00
07FFFFFC00
07C00F8000
07C00F8000
07C00F8000
07C00F8000
07C00F8000
07C0007C00
07C0007C00
07C0007C00
07C0007C00
07C0007C00
07C00003E0
07C00003E0
07C00003E0
07C00003E0
07C00003E0
0000000000
0000000000
0000000000
0000000000
0000000000
ENDCHAR
STARTCHAR 53
ENCODING 83
SWIDTH 4800 0
DWIDTH 40 0
BBX 40 40 0 0
BITMAP
003FFFFC00
003FFFFC00
003FFFFC00
003FFFFC00
003FFFFC00
07C00003E0
07C00003E0
07C00003E0
07C00003E0
07C00003E0
07C0000000
07C0000000
07C0000000
07C0000000
07C0000000
003FFFFC00
003FFFFC00
003FFFFC00
003FFFFC00
003FFFFC00
00000003E0
00000003E0
00000003E0
00000003E0
00000003E0
07C00003E0
07C00003E0
07C00003E0
07C00003E0
07C00003E0
003FFFFC00
003FFFFC00
003FFFFC00
003FFFFC00
003FFFFC00
0000000000
0000000000
0000000000
0000000000
0000000000
ENDCHAR
STARTCHAR 54
ENCODING 84
SWIDTH 4800 0
DWIDTH 40 0
BBX 40 40 0 0
BITMAP
003FFFFFE0
003FFFFFE0
003FFFFFE0
003FFFFFE0
003FFFFFE0
00000F8000
00000F8000
00000F8000
00000F8000
00000F8000
00000F8000
00000F8000
00000F8000
00000F8000
00000F8000
00000F8000
00000F8000
00000F8000
00000F8000
00000F8000
00000F8000
00000F8000
00000F8000
00000F8000
00000F8000
00000F8000
00000F8000
00000F8000
00000F8000
00000F8000
00000F8000
00000F8000
00000F8000
00000F8000
00000F8000
0000000000
0000000000
0000000000
0000000000
0000000000
ENDCHAR
STARTCHAR 55
ENCODING 85
SWIDTH 4800 0
DWIDTH 40 0
BBX 40 40 0 0
BITMAP
07C00003E0
07C00003E0
07C00003E0
07C00003E0
07C00003E0
07C00003E0
07C00003E0
07C00003E0
07C00003E0
07C00003E0
07C00003E0
07C00003E0
07C00003E0
07C00003E0
07C00003E0
07C00003E0
07C00003E0
07C00003E0
07C00003E0
07C00003E0
07C00003E0
07C00003E0
07C00003E0
07C00003E0
07C00003E0
07C00003E0
07C00003E0
07C00003E0
07C00003E0
07C00003E0
003FFFFC00
003FFFFC00
003FFFFC00
003FFFFC00
003FFFFC00
0000000000
0000000000
0000000000
0000000000
0000000000
ENDCHAR
STARTCHAR 56
ENCODING 86
SWIDTH 4800 0
DWIDTH 40 0
BBX 40 40 0 0
BITMAP
07C00003E0
07C00003E0
07C00003E0
07C00003E0
07C00003E0
07C00003E0
07C00003E0
07C00003E0
07C00003E0
07C00003E0
07C00003E0
07C00003E0
07C00003E0
07C00003E0
07C00003E0
003E007C00
003E007C00
003E007C00
003E007C00
003E007C00
003E007C00
003E007C00
003E007C00
003E007C00
003E007C00
0001FF8000
0001FF8000
0001FF8000
0001FF8000
0001FF8000
0001FF8000
0001FF8000
0001FF8000
0001FF8000
0001FF8000
0000000000
0000000000
0000000000
0000000000
0000000000
ENDCHAR
STARTCHAR 57
ENCODING 87
SWIDTH 4800 0
DWIDTH 40 0
BBX 40 40 0 0
BITMAP
07C00003E0
07C00003E0
07C00003E0
07C00003E0
07C00003E0
07C00003E0
07C00003E0
07C00003E0
07C00003E0
07C00003E0
07C00003E0
07C00003E0
07C00003E0
07C00003E0
07C00003E0
07C1FF83E0
07C1FF83E0
07C1FF83E0
07C1FF83E0
07C1FF83E0
07C1FF83E0
07C1FF83E0
07C1FF83E0
07C1FF83E0
07C1FF83E0
07FE007FE0
07FE007FE0
07FE007FE0
07FE007FE0
07FE007FE0
07C00003E0
07C00003E0
07C00003E0
07C00003E0
07C00003E0
0000000000
0000000000
0000000000
0000000000
0000000000
ENDCHAR
STARTCHAR 58
ENCODING 88
SWIDTH 4800 0
DWIDTH 40 0
BBX 40 40 0 0
BITMAP
07C00003E0
07C00003E0
07C00003E0
07C00003E0
07C00003E0
07C00003E0
07C00003E0
07C00003E0
07C00003E0
07C00003E0
003E007C00
003E007C00
003E007C00
003E007C00
003E007C00
0001FF8000
0001FF8000
0001FF8000
0001FF8000
0001FF8000
003E007C00
003E007C00
003E007C00
003E007C00
003E007C00
07C00003E0
07C00003E0
07C00003E0
07C00003E0
07C00003E0
07C00003E0
07C00003E0
07C00003E0
07C00003E0
07C00003E0
0000000000
0000000000
0000000000
0000000000
0000000000
ENDCHAR
STARTCHAR 59
ENCODING 89
SWIDTH 4800 0
DWIDTH 40 0
BBX 40 40 0 0
BITMAP
003E0003E0
003E0003E0
003E0003E0
003E0003E0
003E0003E0
003E0003E0
003E0003E0
003E0003E0
003E0003E0
003E0003E0
003E0003E0
003E0003E0
003E0003E0
003E0003E0
003E0003E0
0001FFFC00
0001FFFC00
0001FFFC00
0001FFFC00
0001FFFC00
00000F8000
00000F8000
00000F8000
00000F8000
00000F8000
00000F8000
00000F8000
00000F8000
00000F8000
00000F8000
00000F8000
00000F8000
00000F8000
00000F8000
00000F8000
0000000000
0000000000
0000000000
0000000000
0000000000
ENDCHAR
STARTCHAR 5a
ENCODING 90
SWIDTH 4800 0
DWIDTH 40 0
BBX 40 40 0 0
BITMAP
07FFFFFFE0
07FFFFFFE0
07FFFFFFE0
07FFFFFFE0
07FFFFFFE0
00000003E0
00000003E0
00000003E0
00000003E0
00000003E0
0000007C00
0000007C00
0000007C00
0000007C00
0000007C00
0001FF8000
0001FF8000
0001FF8000
0001FF8000
0001FF8000
003E000000
003E000000
003E000000
003E000000
003E000000
07C0000000
07C0000000
07C0000000
07C0000000
07C0000000
07FFFFFFE0
07FFFFFFE0
07FFFFFFE0
07FFFFFFE0
07FFFFFFE0
0000000000
0000000000
0000000000
0000000000
0000000000
ENDCHAR
STARTCHAR 5b
ENCODING 91
SWIDTH 4800 0
DWIDTH 40 0
BBX 40 40 0 0
BITMAP
003FFFFC00
003FFFFC00
003FFFFC00
003FFFFC00
003FFFFC00
003E000000
003E000000
003E000000
003E000000
003E000000
003E000000
003E000000
003E000000
003E000000
003E000000
003E000000
003E000000
003E000000
003E000000
003E000000
003E000000
003E000000
003E000000
003E000000
003E000000
003E000000
003E000000
003E000000
003E000000
003E000000
003FFFFC00
003FFFFC00
003FFFFC00
003FFFFC00
003FFFFC00
0000000000
0000000000
0000000000
0000000000
0000000000
ENDCHAR
STARTCHAR 5c
ENCODING 92
SWIDTH 4800 0
DWIDTH 40 0
BBX 40 40 0 0
BITMAP
0000000000
0000000000
0000000000
0000000000
0000000000
07C0000000
07C0000000
07C0000000
07C0000000
07C0000000
003E000000
003E000000
003E000000
003E000000
003E000000
0001F00000
0001F00000
0001F00000
0001F00000
0001F00000
00000F8000
00000F8000
00000F8000
00000F8000
00000F8000
0000007C00
0000007C00
0000007C00
0000007C00
0000007C00
00000003E0
00000003E0
00000003E0
00000003E0
00000003E0
0000000000
0000000000
0000000000
0000000000
0000000000
ENDCHAR
STARTCHAR 5d
ENCODING 93
SWIDTH 4800 0
DWIDTH 40 0
BBX 40 40 0 0
BITMAP
003FFFFC00
003FFFFC00
003FFFFC00
003FFFFC00
003FFFFC00
0000007C00
0000007C00
0000007C00
0000007C00
0000007C00
0000007C00
0000007C00
0000007C00
0000007C00
0000007C00
0000007C00
0000007C00
0000007C00
0000007C00
0000007C00
0000007C00
0000007C00
0000007C00
0000007C00
0000007C00
0000007C00
0000007C00
0000007C00
0000007C00
0000007C00
003FFFFC00
003FFFFC00
003FFFFC00
003FFFFC00
003FFFFC00
0000000000
0000000000
0000000000
0000000000
0000000000
ENDCHAR
STARTCHAR 5f
ENCODING 95
SWIDTH 4800 0
DWIDTH 40 0
BBX 40 40 0 0
BITMAP
0000000000
0000000000
0000000000
0000000000
0000000000
0000000000
0000000000
0000000000
0000000000
0000000000
0000000000
0000000000
0000000000
0000000000
0000000000
0000000000
0000000000
0000000000
0000000000
0000000000
0000000000
0000000000
0000000000
0000000000
0000000000
0000000000
0000000000
0000000000
0000000000
0000000000
0000000000
0000000000
0000000000
0000000000
0000000000
FFFFFFFFFF
FFFFFFFFFF
FFFFFFFFFF
FFFFFFFFFF
FFFFFFFFFF
ENDCHAR
STARTCHAR 61
ENCODING 97
SWIDTH 4800 0
DWIDTH 40 0
BBX 40 40 0 0
BITMAP
0000000000
0000000000
0000000000
0000000000
0000000000
0000000000
0000000000
0000000000
0000000000
0000000000
003FFF8000
003FFF8000
003FFF8000
003FFF8000
003FFF8000
0000007C00
0000007C00
0000007C00
0000007C00
0000007C00
003FFFFC00
003FFFFC00
003FFFFC00
003FFFFC00
003FFFFC00
07C0007C00
07C0007C00
07C0007C00
07C0007C00
07C0007C00
003FFF83E0
003FFF83E0
003FFF83E0
003FFF83E0
003FFF83E0
0000000000
0000000000
0000000000
0000000000
0000000000
ENDCHAR
STARTCHAR 62
ENCODING 98
SWIDTH 4800 0
DWIDTH 40 0
BBX 40 40 0 0
BITMAP
07C0000000
07C0000000
07C0000000
07C0000000
07C0000000
07C0000000
07C0000000
07C0000000
07C0000000
07C0000000
07C1FFFC00
07C1FFFC00
07C1FFFC00
07C1FFFC00
07C1FFFC00
07FE0003E0
07FE0003E0
07FE0003E0
07FE0003E0
07FE0003E0
07C00003E0
07C00003E0
07C00003E0
07C00003E0
07C00003E0
07FE0003E0
07FE0003E0
07FE0003E0
07FE0003E0
07FE0003E0
07C1FFFC00
07C1FFFC00
07C1FFFC00
07C1FFFC00
07C1FFFC00
0000000000
0000000000
0000000000
0000000000
0000000000
ENDCHAR
STARTCHAR 63
ENCODING 99
SWIDTH 4800 0
DWIDTH 40 0
BBX 40 40 0 0
BITMAP
0000000000
0000000000
0000000000
0000000000
0000000000
0000000000
0000000000
0000000000
0000000000
0000000000
003FFFFC00
003FFFFC00
003FFFFC00
003FFFFC00
003FFFFC00
07C00003E0
07C00003E0
07C00003E0
07C00003E0
07C00003E0
07C0000000
07C0000000
07C0000000
07C0000000
07C0000000
07C00003E0
07C00003E0
07C00003E0
07C00003E0
07C00003E0
003FFFFC00
003FFFFC00
003FFFFC00
003FFFFC00
003FFFFC00
0000000000
0000000000
0000000000
0000000000
0000000000
ENDCHAR
STARTCHAR 64
ENCODING 100
SWIDTH 4800 0
DWIDTH 40 0
BBX 40 40 0 0
BITMAP
00000003E0
00000003E0
00000003E0
00000003E0
00000003E0
00000003E0
00000003E0
00000003E0
00000003E0
00000003E0
003FFF83E0
003FFF83E0
003FFF83E0
003FFF83E0
003FFF83E0
07C0007FE0
07C0007FE0
07C0007FE0
07C0007FE0
07C0007FE0
07C00003E0
07C00003E0
07C00003E0
07C00003E0
07C00003E0
07C0007FE0
07C0007FE0
07C0007FE0
07C0007FE0
07C0007FE0
003FFF83E0
003FFF83E0
003FFF83E0
003FFF83E0
003FFF83E0
0000000000
0000000000
0000000000
0000000000
0000000000
ENDCHAR
STARTCHAR 65
ENCODING 101
SWIDTH 4800 0
DWIDTH 40 0
BBX 40 40 0 0
BITMAP
0000000000
0000000000
0000000000
0000000000
0000000000
0000000000
0000000000
0000000000
0000000000
0000000000
003FFFFC00
003FFFFC00
003FFFFC00
003FFFFC00
003FFFFC00
07C00003E0
07C00003E0
07C00003E0
07C00003E0
07C00003E0
07FFFFFFE0
07FFFFFFE0
07FFFFFFE0
07FFFFFFE0
07FFFFFFE0
07C0000000
07C0000000
07C0000000
07C0000000
07C0000000
003FFFFC00
003FFFFC00
003FFFFC00
003FFFFC00
003FFFFC00
0000000000
0000000000
0000000000
0000000000
0000000000
ENDCHAR
STARTCHAR 66
ENCODING 102
SWIDTH 4800 0
DWIDTH 40 0
BBX 40 40 0 0
BITMAP
00000FFC00
00000FFC00
00000FFC00
00000FFC00
00000FFC00
0001F003E0
0001F003E0
0001F003E0
0001F003E0
0001F003E0
0001F00000
0001F00000
0001F00000
0001F00000
0001F00000
07FFFFFC00
07FFFFFC00
07FFFFFC00
07FFFFFC00
07FFFFFC00
0001F00000
0001F00000
0001F00000
0001F00000
0001F00000
0001F00000
0001F00000
0001F00000
0001F00000
0001F00000
0001F00000
0001F00000
0001F00000
0001F00000
0001F00000
0000000000
0000000000
0000000000
0000000000
0000000000
ENDCHAR
STARTCHAR 67
ENCODING 103
SWIDTH 4800 0
DWIDTH 40 0
BBX 40 40 0 0
BITMAP
0000000000
0000000000
0000000000
0000000000
0000000000
0000000000
0000000000
0000000000
0000000000
0000000000
003FFF83E0
003FFF83E0
003FFF83E0
003FFF83E0
003FFF83E0
07C0007FE0
07C0007FE0
07C0007FE0
07C0007FE0
07C0007FE0
07C0007FE0
07C0007FE0
07C0007FE0
07C0007FE0
07C0007FE0
003FFF83E0
003FFF83E0
003FFF83E0
003FFF83E0
003FFF83E0
00000003E0
00000003E0
00000003E0
00000003E0
00000003E0
003FFFFC00
003FFFFC00
003FFFFC00
003FFFFC00
003FFFFC00
ENDCHAR
STARTCHAR 68
ENCODING 104
SWIDTH 4800 0
DWIDTH 40 0
BBX 40 40 0 0
BITMAP
07C0000000
07C0000000
07C0000000
07C0000000
07C0000000
07C0000000
07C0000000
07C0000000
07C0000000
07C0000000
07C1FFFC00
07C1FFFC00
07C1FFFC00
07C1FFFC00
07C1FFFC00
07FE0003E0
07FE0003E0
07FE0003E0
07FE0003E0
07FE0003E0
07C00003E0
07C00003E0
07C00003E0
07C00003E0
07C00003E0
07C00003E0
07C00003E0
07C00003E0
07C00003E0
07C00003E0
07C00003E0
07C00003E0
07C00003E0
07C00003E0
07C00003E0
0000000000
0000000000
0000000000
0000000000
0000000000
ENDCHAR
STARTCHAR 69
ENCODING 105
SWIDTH 4800 0
DWIDTH 40 0
BBX 40 40 0 0
BITMAP
00000F8000
00000F8000
00000F8000
00000F8000
00000F8000
0000000000
0000000000
0000000000
0000000000
0000000000
0001FF8000
0001FF8000
0001FF8000
0001FF8000
0001FF8000
00000F8000
00000F8000
00000F8000
00000F8000
00000F8000
00000F8000
00000F8000
00000F8000
00000F8000
00000F8000
00000F8000
00000F8000
00000F8000
00000F8000
00000F8000
0001FFFC00
0001FFFC00
0001FFFC00
0001FFFC00
0001FFFC00
0000000000
0000000000
0000000000
0000000000
0000000000
ENDCHAR
STARTCHAR 6a
ENCODING 106
SWIDTH 4800 0
DWIDTH 40 0
BBX 40 40 0 0
BITMAP
0000007C00
0000007C00
0000007C00
0000007C00
0000007C00
0000000000
0000000000
0000000000
0000000000
0000000000
00000FFC00
00000FFC00
00000FFC00
00000FFC00
00000FFC00
0000007C00
0000007C00
0000007C00
0000007C00
0000007C00
0000007C00
0000007C00
0000007C00
0000007C00
0000007C00
0000007C00
0000007C00
0000007C00
0000007C00
0000007C00
07C0007C00
07C0007C00
07C0007C00
07C0007C00
07C0007C00
003FFF8000
003FFF8000
003FFF8000
003FFF8000
003FFF8000
ENDCHAR
STARTCHAR 6b
ENCODING 107
SWIDTH 4800 0
DWIDTH 40 0
BBX 40 40 0 0
BITMAP
07C0000000
07C0000000
07C0000000
07C0000000
07C0000000
07C0000000
07C0000000
07C0000000
07C0000000
07C0000000
07C0007C00
07C0007C00
07C0007C00
07C0007C00
07C0007C00
07C00F8000
07C00F8000
07C00F8000
07C00F8000
07C00F8000
07C1F00000
07C1F00000
07C1F00000
07C1F00000
07C1F00000
07FE0F8000
07FE0F8000
07FE0F8000
07FE0F8000
07FE0F8000
07C0007C00
07C0007C00
07C0007C00
07C0007C00
07C0007C00
0000000000
0000000000
0000000000
0000000000
0000000000
ENDCHAR
STARTCHAR 6c
ENCODING 108
SWIDTH 4800 0
DWIDTH 40 0
BBX 40 40 0 0
BITMAP
0001FF8000
0001FF8000
0001FF8000
0001FF8000
0001FF8000
00000F8000
00000F8000
00000F8000
00000F8000
00000F8000
00000F8000
00000F8000
00000F8000
00000F8000
00000F8000
00000F8000
00000F8000
00000F8000
00000F8000
00000F8000
00000F8000
00000F8000
00000F8000
00000F8000
00000F8000
00000F8000
00000F8000
00000F8000
00000F8000
00000F8000
0001FFFC00
0001FFFC00
0001FFFC00
0001FFFC00
0001FFFC00
0000000000
0000000000
0000000000
0000000000
0000000000
ENDCHAR
STARTCHAR 6d
ENCODING 109
SWIDTH 4800 0
DWIDTH 40 0
BBX 40 40 0 0
BITMAP
0000000000
0000000000
0000000000
0000000000
0000000000
0000000000
0000000000
0000000000
0000000000
0000000000
07FFF07FE0
07FFF07FE0
07FFF07FE0
07FFF07FE0
07FFF07FE0
07C00F801F
07C00F801F
07C00F801F
07C00F801F
07C00F801F
07C00F801F
07C00F801F
07C00F801F
07C00F801F
07C00F801F
07C00F801F
07C00F801F
07C00F801F
07C00F801F
07C00F801F
07C00F801F
07C00F801F
07C00F801F
07C00F801F
07C00F801F
0000000000
0000000000
0000000000
0000000000
0000000000
ENDCHAR
STARTCHAR 6e
ENCODING 110
SWIDTH 4800 0
DWIDTH 40 0
BBX 40 40 0 0
BITMAP
0000000000
0000000000
0000000000
0000000000
0000000000
0000000000
0000000000
0000000000
0000000000
0000000000
07C1FFFC00
07C1FFFC00
07C1FFFC00
07C1FFFC00
07C1FFFC00
07FE0003E0
07FE0003E0
07FE0003E0
07FE0003E0
07FE0003E0
07C00003E0
07C00003E0
07C00003E0
07C00003E0
07C00003E0
07C00003E0
07C00003E0
07C00003E0
07C00003E0
07C00003E0
07C00003E0
07C00003E0
07C00003E0
07C00003E0
07C00003E0
0000000000
0000000000
0000000000
0000000000
0000000000
ENDCHAR
STARTCHAR 6f
ENCODING 111
SWIDTH 4800 0
DWIDTH 40 0
BBX 40 40 0 0
BITMAP
0000000000
0000000000
0000000000
0000000000
0000000000
0000000000
0000000000
0000000000
0000000000
0000000000
003FFFFC00
003FFFFC00
003FFFFC00
003FFFFC00
003FFFFC00
07C00003E0
07C00003E0
07C00003E0
07C00003E0
07C00003E0
07C00003E0
07C00003E0
07C00003E0
07C00003E0
07C00003E0
07C00003E0
07C00003E0
07C00003E0
07C00003E0
07C00003E0
003FFFFC00
003FFFFC00
003FFFFC00
003FFFFC00
003FFFFC00
0000000000
0000000000
0000000000
0000000000
0000000000
ENDCHAR
STARTCHAR 70
ENCODING 112
SWIDTH 4800 0
DWIDTH 40 0
BBX 40 40 0 0
BITMAP
0000000000
0000000000
0000000000
0000000000
0000000000
0000000000
0000000000
0000000000
0000000000
0000000000
07C1FFFC00
07C1FFFC00
07C1FFFC00
07C1FFFC00
07C1FFFC00
07FE0003E0
07FE0003E0
07FE0003E0
07FE0003E0
07FE0003E0
07FE0003E0
07FE0003E0
07FE0003E0
07FE0003E0
07FE0003E0
07C1FFFC00
07C1FFFC00
07C1FFFC00
07C1FFFC00
07C1FFFC00
07C0000000
07C0000000
07C0000000
07C0000000
07C0000000
07C0000000
07C0000000
07C0000000
07C0000000
07C0000000
ENDCHAR
STARTCHAR 71
ENCODING 113
SWIDTH 4800 0
DWIDTH 40 0
BBX 40 40 0 0
BITMAP
0000000000
0000000000
0000000000
0000000000
0000000000
0000000000
0000000000
0000000000
0000000000
0000000000
003FFF83E0
003FFF83E0
003FFF83E0
003FFF83E0
003FFF83E0
07C0007FE0
07C0007FE0
07C0007FE0
07C0007FE0
07C0007FE0
07C0007FE0
07C0007FE0
07C0007FE0
07C0007FE0
07C0007FE0
003FFF83E0
003FFF83E0
003FFF83E0
003FFF83E0
003FFF83E0
00000003E0
00000003E0
00000003E0
00000003E0
00000003E0
00000003E0
00000003E0
00000003E0
00000003E0
00000003E0
ENDCHAR
STARTCHAR 72
ENCODING 114
SWIDTH 4800 0
DWIDTH 40 0
BBX 40 40 0 0
BITMAP
0000000000
0000000000
0000000000
0000000000
0000000000
0000000000
0000000000
0000000000
0000000000
0000000000
07C1FFFC00
07C1FFFC00
07C1FFFC00
07C1FFFC00
07C1FFFC00
07FE0003E0
07FE0003E0
07FE0003E0
07FE0003E0
07FE0003E0
07C0000000
07C0000000
07C0000000
07C0000000
07C0000000
07C0000000
07C0000000
07C0000000
07C0000000
07C0000000
07C0000000
07C0000000
07C0000000
07C0000000
07C0000000
0000000000
0000000000
0000000000
0000000000
0000000000
ENDCHAR
STARTCHAR 73
ENCODING 115
SWIDTH 4800 0
DWIDTH 40 0
BBX 40 40 0 0
BITMAP
0000000000
0000000000
0000000000
0000000000
0000000000
0000000000
0000000000
0000000000
0000000000
0000000000
003FFFFFE0
003FFFFFE0
003FFFFFE0
003FFFFFE0
003FFFFFE0
07C0000000
07C0000000
07C0000000
07C0000000
07C0000000
003FFFFC00
003FFFFC00
003FFFFC00
003FFFFC00
003FFFFC00
00000003E0
00000003E0
00000003E0
00000003E0
00000003E0
07FFFFFC00
07FFFFFC00
07FFFFFC00
07FFFFFC00
07FFFFFC00
0000000000
0000000000
0000000000
0000000000
0000000000
ENDCHAR
STARTCHAR 74
ENCODING 116
SWIDTH 4800 0
DWIDTH 40 0
BBX 40 40 0 0
BITMAP
0001F00000
0001F00000
0001F00000
0001F00000
0001F00000
0001F00000
0001F00000
0001F00000
0001F00000
0001F00000
07FFFFFC00
07FFFFFC00
07FFFFFC00
07FFFFFC00
07FFFFFC00
0001F00000
0001F00000
0001F00000
0001F00000
0001F00000
0001F00000
0001F00000
0001F00000
0001F00000
0001F00000
0001F003E0
0001F003E0
0001F003E0
0001F003E0
0001F003E0
00000FFC00
00000FFC00
00000FFC00
00000FFC00
00000FFC00
0000000000
0000000000
0000000000
0000000000
0000000000
ENDCHAR
STARTCHAR 75
ENCODING 117
SWIDTH 4800 0
DWIDTH 40 0
BBX 40 40 0 0
BITMAP
0000000000
0000000000
0000000000
0000000000
0000000000
0000000000
0000000000
0000000000
0000000000
0000000000
07C00003E0
07C00003E0
07C00003E0
07C00003E0
07C00003E0
07C00003E0
07C00003E0
07C00003E0
07C00003E0
07C00003E0
07C00003E0
07C00003E0
07C00003E0
07C00003E0
07C00003E0
07C00003E0
07C00003E0
07C00003E0
07C00003E0
07C00003E0
003FFFFC00
003FFFFC00
003FFFFC00
003FFFFC00
003FFFFC00
0000000000
0000000000
0000000000
0000000000
0000000000
ENDCHAR
STARTCHAR 76
ENCODING 118
SWIDTH 4800 0
DWIDTH 40 0
BBX 40 40 0 0
BITMAP
0000000000
0000000000
0000000000
0000000000
0000000000
0000000000
0000000000
0000000000
0000000000
0000000000
07C00003E0
07C00003E0
07C00003E0
07C00003E0
07C00003E0
07C00003E0
07C00003E0
07C00003E0
07C00003E0
07C00003E0
07C00003E0
07C00003E0
07C00003E0
07C00003E0
07C00003E0
003E007C00
003E007C00
003E007C00
003E007C00
003E007C00
0001FF8000
0001FF8000
0001FF8000
0001FF8000
0001FF8000
0000000000
0000000000
0000000000
0000000000
0000000000
ENDCHAR
STARTCHAR 77
ENCODING 119
SWIDTH 4800 0
DWIDTH 40 0
BBX 40 40 0 0
BITMAP
0000000000
0000000000
0000000000
0000000000
0000000000
0000000000
0000000000
0000000000
0000000000
0000000000
07C000001F
07C000001F
07C000001F
07C000001F
07C000001F
07C00F801F
07C00F801F
07C00F801F
07C00F801F
07C00F801F
07C00F801F
07C00F801F
07C00F801F
07C00F801F
07C00F801F
07C00F801F
07C00F801F
07C00F801F
07C00F801F
07C00F801F
003FF07FE0
003FF07FE0
003FF07FE0
003FF07FE0
003FF07FE0
0000000000
0000000000
0000000000
0000000000
0000000000
ENDCHAR
STARTCHAR 78
ENCODING 120
SWIDTH 4800 0
DWIDTH 40 0
BBX 40 40 0 0
BITMAP
0000000000
0000000000
0000000000
0000000000
0000000000
0000000000
0000000000
0000000000
0000000000
0000000000
07C0007C00
07C0007C00
07C0007C00
07C0007C00
07C0007C00
003E0F8000
003E0F8000
003E0F8000
003E0F8000
003E0F8000
0001F00000
0001F00000
0001F00000
0001F00000
0001F00000
003E0F8000
003E0F8000
003E0F8000
003E0F8000
003E0F8000
07C0007C00
07C0007C00
07C0007C00
07C0007C00
07C0007C00
0000000000
0000000000
0000000000
0000000000
0000000000
ENDCHAR
STARTCHAR 79
ENCODING 121
SWIDTH 4800 0
DWIDTH 40 0
BBX 40 40 0 0
BITMAP
0000000000
0000000000
0000000000
0000000000
0000000000
0000000000
0000000000
0000000000
0000000000
0000000000
07C00003E0
07C00003E0
07C00003E0
07C00003E0
07C00003E0
07C00003E0
07C00003E0
07C00003E0
07C00003E0
07C00003E0
07C0007FE0
07C0007FE0
07C0007FE0
07C0007FE0
07C0007FE0
003FFF83E0
003FFF83E0
003FFF83E0
003FFF83E0
003FFF83E0
00000003E0
00000003E0
00000003E0
00000003E0
00000003E0
003FFFFC00
003FFFFC00
003FFFFC00
003FFFFC00
003FFFFC00
ENDCHAR
STARTCHAR 7a
ENCODING 122
SWIDTH 4800 0
DWIDTH 40 0
BBX 40 40 0 0
BITMAP
0000000000
0000000000
0000000000
0000000000
0000000000
0000000000
0000000000
0000000000
0000000000
0000000000
07FFFFFFE0
07FFFFFFE0
07FFFFFFE0
07FFFFFFE0
07FFFFFFE0
0000007C00
0000007C00
0000007C00
0000007C00
0000007C00
0001FF8000
0001FF8000
0001FF8000
0001FF8000
0001FF8000
003E000000
003E000000
003E000000
003E000000
003E000000
07FFFFFFE0
07FFFFFFE0
07FFFFFFE0
07FFFFFFE0
07FFFFFFE0
0000000000
0000000000
0000000000
0000000000
0000000000
ENDCHAR
STARTCHAR 7c
ENCODING 124
SWIDTH 4800 0
DWIDTH 40 0
BBX 40 40 0 0
BITMAP
00000F8000
00000F8000
00000F8000
00000F8000
00000F8000
00000F8000
00000F8000
00000F8000
00000F8000
00000F8000
00000F8000
00000F8000
00000F8000
00000F8000
00000F8000
00000F8000
00000F8000
00000F8000
00000F8000
00000F8000
00000F8000
00000F8000
00000F8000
00000F8000
00000F8000
00000F8000
00000F8000
00000F8000
00000F8000
00000F8000
00000F8000
00000F8000
00000F8000
00000F8000
00000F8000
00000F8000
00000F8000
00000F8000
00000F8000
00000F8000
ENDCHAR
STARTCHAR 7e
ENCODING 126
SWIDTH 4800 0
DWIDTH 40 0
BBX 40 40 0 0
BITMAP
0000000000
0000000000
0000000000
0000000000
0000000000
0000000000
0000000000
0000000000
0000000000
0000000000
003E000000
003E000000
003E000000
003E000000
003E000000
07C1F00000
07C1F00000
07C1F00000
07C1F00000
07C1F00000
F8000F8000
F8000F8000
F8000F8000
F8000F8000
F8000F8000
0000007C1F
0000007C1F
0000007C1F
0000007C1F
0000007C1F
00000003E0
00000003E0
00000003E0
00000003E0
00000003E0
0000000000
0000000000
0000000000
0000000000
0000000000
ENDCHAR
STARTCHAR d7
ENCODING 215
SWIDTH 4800 0
DWIDTH 40 0
BBX 40 40 0 0
BITMAP
F80000001F
F80000001F
F80000001F
F80000001F
F80000001F
07C00003E0
07C00003E0
07C00003E0
07C00003E0
07C00003E0
003E007C00
003E007C00
003E007C00
003E007C00
003E007C00
0001FF8000
0001FF8000
0001FF8000
0001FF8000
0001FF8000
0001FF8000
0001FF8000
0001FF8000
0001FF8000
0001FF8000
003E007C00
003E007C00
003E007C00
003E007C00
003E007C00
07C00003E0
07C00003E0
07C00003E0
07C00003E0
07C00003E0
F80000001F
F80000001F
F80000001F
F80000001F
F80000001F
ENDCHAR
STARTCHAR 3c0
ENCODING 960
SWIDTH 4800 0
DWIDTH 40 0
BBX 40 40 0 0
BITMAP
0000000000
0000000000
0000000000
0000000000
0000000000
0000000000
0000000000
0000000000
0000000000
0000000000
000000001F
000000001F
000000001F
000000001F
000000001F
003FFFFFE0
003FFFFFE0
003FFFFFE0
003FFFFFE0
003FFFFFE0
07C1F07C00
07C1F07C00
07C1F07C00
07C1F07C00
07C1F07C00
0001F07C00
0001F07C00
0001F07C00
0001F07C00
0001F07C00
0001F07C00
0001F07C00
0001F07C00
0001F07C00
0001F07C00
0000000000
0000000000
0000000000
0000000000
0000000000
ENDCHAR
STARTCHAR 2026
ENCODING 8230
SWIDTH 4800 0
DWIDTH 40 0
BBX 40 40 0 0
BITMAP
0000000000
0000000000
0000000000
0000000000
0000000000
0000000000
0000000000
0000000000
0000000000
0000000000
0000000000
0000000000
0000000000
0000000000
0000000000
0000000000
0000000000
0000000000
0000000000
0000000000
0000000000
0000000000
0000000000
0000000000
0000000000
07FFF00000
07FFF00000
07FFF00000
07FFF00000
07FFF00000
07C1F00000
07C1F00000
07C1F00000
07C1F00000
07C1F00000
07FFF00000
07FFF00000
07FFF00000
07FFF00000
07FFF00000
ENDCHAR
STARTCHAR 2190
ENCODING 8592
SWIDTH 4800 0
DWIDTH 40 0
BBX 40 40 0 0
BITMAP
0000000000
0000000000
0000000000
0000000000
0000000000
0000000000
0000000000
0000000000
0000000000
0000000000
0001F00000
0001F00000
0001F00000
0001F00000
0001F00000
003E000000
003E000000
003E000000
003E000000
003E000000
07FFFFFFFF
07FFFFFFFF
07FFFFFFFF
07FFFFFFFF
07FFFFFFFF
003E000000
003E000000
003E000000
003E000000
003E000000
0001F00000
0001F00000
0001F00000
0001F00000
0001F00000
0000000000
0000000000
0000000000
0000000000
0000000000
ENDCHAR
STARTCHAR 2191
ENCODING 8593
SWIDTH 4800 0
DWIDTH 40 0
BBX 40 40 0 0
BITMAP
0000000000
0000000000
0000000000
0000000000
0000000000
00000F8000
00000F8000
00000F8000
00000F8000
00000F8000
0001FFFC00
0001FFFC00
0001FFFC00
0001FFFC00
0001FFFC00
003E0F83E0
003E0F83E0
003E0F83E0
003E0F83E0
003E0F83E0
00000F8000
00000F8000
00000F8000
00000F8000
00000F8000
00000F8000
00000F8000
00000F8000
00000F8000
00000F8000
00000F8000
00000F8000
00000F8000
00000F8000
00000F8000
0000000000
0000000000
0000000000
0000000000
0000000000
ENDCHAR
STARTCHAR 2192
ENCODING 8594
SWIDTH 4800 0
DWIDTH 40 0
BBX 40 40 0 0
BITMAP
0000000000
0000000000
0000000000
0000000000
0000000000
0000000000
0000000000
0000000000
0000000000
0000000000
00000F8000
00000F8000
00000F8000
00000F8000
00000F8000
0000007C00
0000007C00
0000007C00
0000007C00
0000007C00
FFFFFFFFE0
FFFFFFFFE0
FFFFFFFFE0
FFFFFFFFE0
FFFFFFFFE0
0000007C00
0000007C00
0000007C00
0000007C00
0000007C00
00000F8000
00000F8000
00000F8000
00000F8000
00000F8000
0000000000
0000000000
0000000000
0000000000
0000000000
ENDCHAR
STARTCHAR 2193
ENCODING 8595
SWIDTH 4800 0
DWIDTH 40 0
BBX 40 40 0 0
BITMAP
0000000000
0000000000
0000000000
0000000000
0000000000
00000F8000
00000F8000
00000F8000
00000F8000
00000F8000
00000F8000
00000F8000
00000F8000
00000F8000
00000F8000
00000F8000
00000F8000
00000F8000
00000F8000
00000F8000
003E0F83E0
003E0F83E0
003E0F83E0
003E0F83E0
003E0F83E0
0001FFFC00
0001FFFC00
0001FFFC00
0001FFFC00
0001FFFC00
00000F8000
00000F8000
00000F8000
00000F8000
00000F8000
0000000000
0000000000
0000000000
0000000000
0000000000
ENDCHAR
STARTCHAR 21bf
ENCODING 8639
SWIDTH 4800 0
DWIDTH 40 0
BBX 40 40 0 0
BITMAP
00000003E0
00000003E0
00000003E0
00000003E0
00000003E0
00000003E0
00000003E0
00000003E0
00000003E0
00000003E0
00000003E0
00000003E0
00000003E0
00000003E0
00000003E0
00000003E0
00000003E0
00000003E0
00000003E0
00000003E0
00000003E0
00000003E0
00000003E0
00000003E0
00000003E0
00000003E0
00000003E0
00000003E0
00000003E0
00000003E0
0000007FFF
0000007FFF
0000007FFF
0000007FFF
0000007FFF
00000003E0
00000003E0
00000003E0
00000003E0
00000003E0
ENDCHAR
STARTCHAR 21c0
ENCODING 8640
SWIDTH 4800 0
DWIDTH 40 0
BBX 40 40 0 0
BITMAP
0000000000
0000000000
0000000000
0000000000
0000000000
0000000000
0000000000
0000000000
0000000000
0000000000
0000000000
0000000000
0000000000
0000000000
0000000000
0000000000
0000000000
0000000000
0000000000
0000000000
0000000000
0000000000
0000000000
0000000000
0000000000
00000003E0
00000003E0
00000003E0
00000003E0
00000003E0
FFFFFFFFFF
FFFFFFFFFF
FFFFFFFFFF
FFFFFFFFFF
FFFFFFFFFF
00000003E0
00000003E0
00000003E0
00000003E0
00000003E0
ENDCHAR
STARTCHAR 21d6
ENCODING 8662
SWIDTH 4800 0
DWIDTH 40 0
BBX 40 40 0 0
BITMAP
003E000000
003E000000
003E000000
003E000000
003E000000
0001F00000
0001F00000
0001F00000
0001F00000
0001F00000
F8000F8000
F8000F8000
F8000F8000
F8000F8000
F8000F8000
07C0007C00
07C0007C00
07C0007C00
07C0007C00
07C0007C00
003E0003E0
003E0003E0
003E0003E0
003E0003E0
003E0003E0
0001F0001F
0001F0001F
0001F0001F
0001F0001F
0001F0001F
00000F8000
00000F8000
00000F8000
00000F8000
00000F8000
0000007C00
0000007C00
0000007C00
0000007C00
0000007C00
ENDCHAR
STARTCHAR 21d7
ENCODING 8663
SWIDTH 4800 0
DWIDTH 40 0
BBX 40 40 0 0
BITMAP
0000007C00
0000007C00
0000007C00
0000007C00
0000007C00
00000F8000
00000F8000
00000F8000
00000F8000
00000F8000
0001F0001F
0001F0001F
0001F0001F
0001F0001F
0001F0001F
003E0003E0
003E0003E0
003E0003E0
003E0003E0
003E0003E0
07C0007C00
07C0007C00
07C0007C00
07C0007C00
07C0007C00
F8000F8000
F8000F8000
F8000F8000
F8000F8000
F8000F8000
0001F00000
0001F00000
0001F00000
0001F00000
0001F00000
003E000000
003E000000
003E000000
003E000000
003E000000
ENDCHAR
STARTCHAR 21e6
ENCODING 8678
SWIDTH 4800 0
DWIDTH 40 0
BBX 40 40 0 0
BITMAP
FFFFFFFFFF
FFFFFFFFFF
FFFFFFFFFF
FFFFFFFFFF
FFFFFFFFFF
FFFFFFFFFF
FFFFFFFFFF
FFFFFFFFFF
FFFFFFFFFF
FFFFFFFFFF
FFFE0FFFFF
FFFE0FFFFF
FFFE0FFFFF
FFFE0FFFFF
FFFE0FFFFF
FFC1FFFFFF
FFC1FFFFFF
FFC1FFFFFF
FFC1FFFFFF
FFC1FFFFFF
F80000001F
F80000001F
F80000001F
F80000001F
F80000001F
FFC1FFFFFF
FFC1FFFFFF
FFC1FFFFFF
FFC1FFFFFF
FFC1FFFFFF
FFFE0FFFFF
FFFE0FFFFF
FFFE0FFFFF
FFFE0FFFFF
FFFE0FFFFF
FFFFFFFFFF
FFFFFFFFFF
FFFFFFFFFF
FFFFFFFFFF
FFFFFFFFFF
ENDCHAR
STARTCHAR 21e7
ENCODING 8679
SWIDTH 4800 0
DWIDTH 40 0
BBX 40 40 0 0
BITMAP
FFFFFFFFFF
FFFFFFFFFF
FFFFFFFFFF
FFFFFFFFFF
FFFFFFFFFF
FFFFF07FFF
FFFFF07FFF
FFFFF07FFF
FFFFF07FFF
FFFFF07FFF
FFFE0003FF
FFFE0003FF
FFFE0003FF
FFFE0003FF
FFFE0003FF
FFC1F07C1F
FFC1F07C1F
FFC1F07C1F
FFC1F07C1F
FFC1F07C1F
FFFFF07FFF
FFFFF07FFF
FFFFF07FFF
FFFFF07FFF
FFFFF07FFF
FFFFF07FFF
FFFFF07FFF
FFFFF07FFF
FFFFF07FFF
FFFFF07FFF
FFFFF07FFF
FFFFF07FFF
FFFFF07FFF
FFFFF07FFF
FFFFF07FFF
FFFFFFFFFF
FFFFFFFFFF
FFFFFFFFFF
FFFFFFFFFF
FFFFFFFFFF
ENDCHAR
STARTCHAR 21e8
ENCODING 8680
SWIDTH 4800 0
DWIDTH 40 0
BBX 40 40 0 0
BITMAP
FFFFFFFFFF
FFFFFFFFFF
FFFFFFFFFF
FFFFFFFFFF
FFFFFFFFFF
FFFFFFFFFF
FFFFFFFFFF
FFFFFFFFFF
FFFFFFFFFF
FFFFFFFFFF
FFFFF07FFF
FFFFF07FFF
FFFFF07FFF
FFFFF07FFF
FFFFF07FFF
FFFFFF83FF
FFFFFF83FF
FFFFFF83FF
FFFFFF83FF
FFFFFF83FF
F80000001F
F80000001F
F80000001F
F80000001F
F80000001F
FFFFFF83FF
FFFFFF83FF
FFFFFF83FF
FFFFFF83FF
FFFFFF83FF
FFFFF07FFF
FFFFF07FFF
FFFFF07FFF
FFFFF07FFF
FFFFF07FFF
FFFFFFFFFF
FFFFFFFFFF
FFFFFFFFFF
FFFFFFFFFF
FFFFFFFFFF
ENDCHAR
STARTCHAR 21e9
ENCODING 8681
SWIDTH 4800 0
DWIDTH 40 0
BBX 40 40 0 0
BITMAP
FFFFFFFFFF
FFFFFFFFFF
FFFFFFFFFF
FFFFFFFFFF
FFFFFFFFFF
FFFFF07FFF
FFFFF07FFF
FFFFF07FFF
FFFFF07FFF
FFFFF07FFF
FFFFF07FFF
FFFFF07FFF
FFFFF07FFF
FFFFF07FFF
FFFFF07FFF
FFFFF07FFF
FFFFF07FFF
FFFFF07FFF
FFFFF07FFF
FFFFF07FFF
FFC1F07C1F
FFC1F07C1F
FFC1F07C1F
FFC1F07C1F
FFC1F07C1F
FFFE0003FF
FFFE0003FF
FFFE0003FF
FFFE0003FF
FFFE0003FF
FFFFF07FFF
FFFFF07FFF
FFFFF07FFF
FFFFF07FFF
FFFFF07FFF
FFFFFFFFFF
FFFFFFFFFF
FFFFFFFFFF
FFFFFFFFFF
FFFFFFFFFF
ENDCHAR
STARTCHAR 22a5
ENCODING 8869
SWIDTH 4800 0
DWIDTH 40 0
BBX 40 40 0 0
BITMAP
00000003E0
00000003E0
00000003E0
00000003E0
00000003E0
00000003E0
00000003E0
00000003E0
00000003E0
00000003E0
00000003E0
00000003E0
00000003E0
00000003E0
00000003E0
00000003E0
00000003E0
00000003E0
00000003E0
00000003E0
00000003E0
00000003E0
00000003E0
00000003E0
00000003E0
00000003E0
00000003E0
00000003E0
00000003E0
00000003E0
FFFFFFFFFF
FFFFFFFFFF
FFFFFFFFFF
FFFFFFFFFF
FFFFFFFFFF
00000003E0
00000003E0
00000003E0
00000003E0
00000003E0
ENDCHAR
STARTCHAR 2460
ENCODING 9312
SWIDTH 4800 0
DWIDTH 40 0
BBX 40 40 0 0
BITMAP
0000000000
0000000000
0000000000
0000000000
0000000000
07FFF00000
07FFF00000
07FFF00000
07FFF00000
07FFF00000
07FFF00000
07FFF00000
07FFF00000
07FFF00000
07FFF00000
07FFF00000
07FFF00000
07FFF00000
07FFF00000
07FFF00000
0000000000
0000000000
0000000000
0000000000
0000000000
0000000000
0000000000
0000000000
0000000000
0000000000
0000000000
0000000000
0000000000
0000000000
0000000000
0000000000
0000000000
0000000000
0000000000
0000000000
ENDCHAR
STARTCHAR 2461
ENCODING 9313
SWIDTH 4800 0
DWIDTH 40 0
BBX 40 40 0 0
BITMAP
0000000000
0000000000
0000000000
0000000000
0000000000
0000007FFF
0000007FFF
0000007FFF
0000007FFF
0000007FFF
0000007FFF
0000007FFF
0000007FFF
0000007FFF
0000007FFF
0000007FFF
0000007FFF
0000007FFF
0000007FFF
0000007FFF
0000000000
0000000000
0000000000
0000000000
0000000000
0000000000
0000000000
0000000000
0000000000
0000000000
0000000000
0000000000
0000000000
0000000000
0000000000
0000000000
0000000000
0000000000
0000000000
0000000000
ENDCHAR
STARTCHAR 2462
ENCODING 9314
SWIDTH 4800 0
DWIDTH 40 0
BBX 40 40 0 0
BITMAP
0000000000
0000000000
0000000000
0000000000
0000000000
07FFF07FFF
07FFF07FFF
07FFF07FFF
07FFF07FFF
07FFF07FFF
07FFF07FFF
07FFF07FFF
07FFF07FFF
07FFF07FFF
07FFF07FFF
07FFF07FFF
07FFF07FFF
07FFF07FFF
07FFF07FFF
07FFF07FFF
0000000000
0000000000
0000000000
0000000000
0000000000
0000000000
0000000000
0000000000
0000000000
0000000000
0000000000
0000000000
0000000000
0000000000
0000000000
0000000000
0000000000
0000000000
0000000000
0000000000
ENDCHAR
STARTCHAR 2463
ENCODING 9315
SWIDTH 4800 0
DWIDTH 40 0
BBX 40 40 0 0
BITMAP
0000000000
0000000000
0000000000
0000000000
0000000000
0000000000
0000000000
0000000000
0000000000
0000000000
0000000000
0000000000
0000000000
0000000000
0000000000
0000000000
0000000000
0000000000
0000000000
0000000000
0000000000
0000000000
0000000000
0000000000
0000000000
07FFF00000
07FFF00000
07FFF00000
07FFF00000
07FFF00000
07FFF00000
07FFF00000
07FFF00000
07FFF00000
07FFF00000
07FFF00000
07FFF00000
07FFF00000
07FFF00000
07FFF00000
ENDCHAR
STARTCHAR 2464
ENCODING 9316
SWIDTH 4800 0
DWIDTH 40 0
BBX 40 40 0 0
BITMAP
0000000000
0000000000
0000000000
0000000000
0000000000
07FFF00000
07FFF00000
07FFF00000
07FFF00000
07FFF00000
07FFF00000
07FFF00000
07FFF00000
07FFF00000
07FFF00000
07FFF00000
07FFF00000
07FFF00000
07FFF00000
07FFF00000
0000000000
0000000000
0000000000
0000000000
0000000000
07FFF00000
07FFF00000
07FFF00000
07FFF00000
07FFF00000
07FFF00000
07FFF00000
07FFF00000
07FFF00000
07FFF00000
07FFF00000
07FFF00000
07FFF00000
07FFF00000
07FFF00000
ENDCHAR
STARTCHAR 2465
ENCODING 9317
SWIDTH 4800 0
DWIDTH 40 0
BBX 40 40 0 0
BITMAP
0000000000
0000000000
0000000000
0000000000
0000000000
0000007FFF
0000007FFF
0000007FFF
0000007FFF
0000007FFF
0000007FFF
0000007FFF
0000007FFF
0000007FFF
0000007FFF
0000007FFF
0000007FFF
0000007FFF
0000007FFF
0000007FFF
0000000000
0000000000
0000000000
0000000000
0000000000
07FFF00000
07FFF00000
07FFF00000
07FFF00000
07FFF00000
07FFF00000
07FFF00000
07FFF00000
07FFF00000
07FFF00000
07FFF00000
07FFF00000
07FFF00000
07FFF00000
07FFF00000
ENDCHAR
STARTCHAR 2466
ENCODING 9318
SWIDTH 4800 0
DWIDTH 40 0
BBX 40 40 0 0
BITMAP
0000000000
0000000000
0000000000
0000000000
0000000000
07FFF07FFF
07FFF07FFF
07FFF07FFF
07FFF07FFF
07FFF07FFF
07FFF07FFF
07FFF07FFF
07FFF07FFF
07FFF07FFF
07FFF07FFF
07FFF07FFF
07FFF07FFF
07FFF07FFF
07FFF07FFF
07FFF07FFF
0000000000
0000000000
0000000000
0000000000
0000000000
07FFF00000
07FFF00000
07FFF00000
07FFF00000
07FFF00000
07FFF00000
07FFF00000
07FFF00000
07FFF00000
07FFF00000
07FFF00000
07FFF00000
07FFF00000
07FFF00000
07FFF00000
ENDCHAR
STARTCHAR 2467
ENCODING 9319
SWIDTH 4800 0
DWIDTH 40 0
BBX 40 40 0 0
BITMAP
0000000000
0000000000
0000000000
0000000000
0000000000
0000000000
0000000000
0000000000
0000000000
0000000000
0000000000
0000000000
0000000000
0000000000
0000000000
0000000000
0000000000
0000000000
0000000000
0000000000
0000000000
0000000000
0000000000
0000000000
0000000000
0000007FFF
0000007FFF
0000007FFF
0000007FFF
0000007FFF
0000007FFF
0000007FFF
0000007FFF
0000007FFF
0000007FFF
0000007FFF
0000007FFF
0000007FFF
0000007FFF
0000007FFF
ENDCHAR
STARTCHAR 2468
ENCODING 9320
SWIDTH 4800 0
DWIDTH 40 0
BBX 40 40 0 0
BITMAP
0000000000
0000000000
0000000000
0000000000
0000000000
07FFF00000
07FFF00000
07FFF00000
07FFF00000
07FFF00000
07FFF00000
07FFF00000
07FFF00000
07FFF00000
07FFF00000
07FFF00000
07FFF00000
07FFF00000
07FFF00000
07FFF00000
0000000000
0000000000
0000000000
0000000000
0000000000
0000007FFF
0000007FFF
0000007FFF
0000007FFF
0000007FFF
0000007FFF
0000007FFF
0000007FFF
0000007FFF
0000007FFF
0000007FFF
0000007FFF
0000007FFF
0000007FFF
0000007FFF
ENDCHAR
STARTCHAR 2469
ENCODING 9321
SWIDTH 4800 0
DWIDTH 40 0
BBX 40 40 0 0
BITMAP
0000000000
0000000000
0000000000
0000000000
0000000000
0000007FFF
0000007FFF
0000007FFF
0000007FFF
0000007FFF
0000007FFF
0000007FFF
0000007FFF
0000007FFF
0000007FFF
0000007FFF
0000007FFF
0000007FFF
0000007FFF
0000007FFF
0000000000
0000000000
0000000000
0000000000
0000000000
0000007FFF
0000007FFF
0000007FFF
0000007FFF
0000007FFF
0000007FFF
0000007FFF
0000007FFF
0000007FFF
0000007FFF
0000007FFF
0000007FFF
0000007FFF
0000007FFF
0000007FFF
ENDCHAR
STARTCHAR 246a
ENCODING 9322
SWIDTH 4800 0
DWIDTH 40 0
BBX 40 40 0 0
BITMAP
0000000000
0000000000
0000000000
0000000000
0000000000
07FFF07FFF
07FFF07FFF
07FFF07FFF
07FFF07FFF
07FFF07FFF
07FFF07FFF
07FFF07FFF
07FFF07FFF
07FFF07FFF
07FFF07FFF
07FFF07FFF
07FFF07FFF
07FFF07FFF
07FFF07FFF
07FFF07FFF
0000000000
0000000000
0000000000
0000000000
0000000000
0000007FFF
0000007FFF
0000007FFF
0000007FFF
0000007FFF
0000007FFF
0000007FFF
0000007FFF
0000007FFF
0000007FFF
0000007FFF
0000007FFF
0000007FFF
0000007FFF
0000007FFF
ENDCHAR
STARTCHAR 246b
ENCODING 9323
SWIDTH 4800 0
DWIDTH 40 0
BBX 40 40 0 0
BITMAP
0000000000
0000000000
0000000000
0000000000
0000000000
0000000000
0000000000
0000000000
0000000000
0000000000
0000000000
0000000000
0000000000
0000000000
0000000000
0000000000
0000000000
0000000000
0000000000
0000000000
0000000000
0000000000
0000000000
0000000000
0000000000
07FFF07FFF
07FFF07FFF
07FFF07FFF
07FFF07FFF
07FFF07FFF
07FFF07FFF
07FFF07FFF
07FFF07FFF
07FFF07FFF
07FFF07FFF
07FFF07FFF
07FFF07FFF
07FFF07FFF
07FFF07FFF
07FFF07FFF
ENDCHAR
STARTCHAR 246c
ENCODING 9324
SWIDTH 4800 0
DWIDTH 40 0
BBX 40 40 0 0
BITMAP
0000000000
0000000000
0000000000
0000000000
0000000000
07FFF00000
07FFF00000
07FFF00000
07FFF00000
07FFF00000
07FFF00000
07FFF00000
07FFF00000
07FFF00000
07FFF00000
07FFF00000
07FFF00000
07FFF00000
07FFF00000
07FFF00000
0000000000
0000000000
0000000000
0000000000
0000000000
07FFF07FFF
07FFF07FFF
07FFF07FFF
07FFF07FFF
07FFF07FFF
07FFF07FFF
07FFF07FFF
07FFF07FFF
07FFF07FFF
07FFF07FFF
07FFF07FFF
07FFF07FFF
07FFF07FFF
07FFF07FFF
07FFF07FFF
ENDCHAR
STARTCHAR 246d
ENCODING 9325
SWIDTH 4800 0
DWIDTH 40 0
BBX 40 40 0 0
BITMAP
0000000000
0000000000
0000000000
0000000000
0000000000
0000007FFF
0000007FFF
0000007FFF
0000007FFF
0000007FFF
0000007FFF
0000007FFF
0000007FFF
0000007FFF
0000007FFF
0000007FFF
0000007FFF
0000007FFF
0000007FFF
0000007FFF
0000000000
0000000000
0000000000
0000000000
0000000000
07FFF07FFF
07FFF07FFF
07FFF07FFF
07FFF07FFF
07FFF07FFF
07FFF07FFF
07FFF07FFF
07FFF07FFF
07FFF07FFF
07FFF07FFF
07FFF07FFF
07FFF07FFF
07FFF07FFF
07FFF07FFF
07FFF07FFF
ENDCHAR
STARTCHAR 246e
ENCODING 9326
SWIDTH 4800 0
DWIDTH 40 0
BBX 40 40 0 0
BITMAP
0000000000
0000000000
0000000000
0000000000
0000000000
07FFF07FFF
07FFF07FFF
07FFF07FFF
07FFF07FFF
07FFF07FFF
07FFF07FFF
07FFF07FFF
07FFF07FFF
07FFF07FFF
07FFF07FFF
07FFF07FFF
07FFF07FFF
07FFF07FFF
07FFF07FFF
07FFF07FFF
0000000000
0000000000
0000000000
0000000000
0000000000
07FFF07FFF
07FFF07FFF
07FFF07FFF
07FFF07FFF
07FFF07FFF
07FFF07FFF
07FFF07FFF
07FFF07FFF
07FFF07FFF
07FFF07FFF
07FFF07FFF
07FFF07FFF
07FFF07FFF
07FFF07FFF
07FFF07FFF
ENDCHAR
STARTCHAR 24b8
ENCODING 9400
SWIDTH 4800 0
DWIDTH 40 0
BBX 40 40 0 0
BITMAP
FFFE0003FF
FFFE0003FF
FFFE0003FF
FFFE0003FF
FFFE0003FF
FFC1FFFC1F
FFC1FFFC1F
FFC1FFFC1F
FFC1FFFC1F
FFC1FFFC1F
F83FFFFFFF
F83FFFFFFF
F83FFFFFFF
F83FFFFFFF
F83FFFFFFF
F83FFFFFFF
F83FFFFFFF
F83FFFFFFF
F83FFFFFFF
F83FFFFFFF
F83FFFFFFF
F83FFFFFFF
F83FFFFFFF
F83FFFFFFF
F83FFFFFFF
FFC1FFFC1F
FFC1FFFC1F
FFC1FFFC1F
FFC1FFFC1F
FFC1FFFC1F
FFFE0003FF
FFFE0003FF
FFFE0003FF
FFFE0003FF
FFFE0003FF
FFFFFFFFFF
FFFFFFFFFF
FFFFFFFFFF
FFFFFFFFFF
FFFFFFFFFF
ENDCHAR
STARTCHAR 24bd
ENCODING 9405
SWIDTH 4800 0
DWIDTH 40 0
BBX 40 40 0 0
BITMAP
F83FFF83FF
F83FFF83FF
F83FFF83FF
F83FFF83FF
F83FFF83FF
F83FFF83FF
F83FFF83FF
F83FFF83FF
F83FFF83FF
F83FFF83FF
F83FFF83FF
F83FFF83FF
F83FFF83FF
F83FFF83FF
F83FFF83FF
F8000003FF
F8000003FF
F8000003FF
F8000003FF
F8000003FF
F83FFF83FF
F83FFF83FF
F83FFF83FF
F83FFF83FF
F83FFF83FF
F83FFF83FF
F83FFF83FF
F83FFF83FF
F83FFF83FF
F83FFF83FF
F83FFF83FF
F83FFF83FF
F83FFF83FF
F83FFF83FF
F83FFF83FF
FFFFFFFFFF
FFFFFFFFFF
FFFFFFFFFF
FFFFFFFFFF
FFFFFFFFFF
ENDCHAR
STARTCHAR 2500
ENCODING 9472
SWIDTH 4800 0
DWIDTH 40 0
BBX 40 40 0 0
BITMAP
0000000000
0000000000
0000000000
0000000000
0000000000
0000000000
0000000000
0000000000
0000000000
0000000000
0000000000
0000000000
0000000000
0000000000
0000000000
0000000000
0000000000
0000000000
0000000000
0000000000
FFFFFFFFFF
FFFFFFFFFF
FFFFFFFFFF
FFFFFFFFFF
FFFFFFFFFF
0000000000
0000000000
0000000000
0000000000
0000000000
0000000000
0000000000
0000000000
0000000000
0000000000
0000000000
0000000000
0000000000
0000000000
0000000000
ENDCHAR
STARTCHAR 2503
ENCODING 9475
SWIDTH 4800 0
DWIDTH 40 0
BBX 40 40 0 0
BITMAP
0001F00000
0001F00000
0001F00000
0001F00000
0001F00000
0001F00000
0001F00000
0001F00000
0001F00000
0001F00000
0001F00000
0001F00000
0001F00000
0001F00000
0001F00000
0001F00000
0001F00000
0001F00000
0001F00000
0001F00000
0001F00000
0001F00000
0001F00000
0001F00000
0001F00000
0001F00000
0001F00000
0001F00000
0001F00000
0001F00000
0001F00000
0001F00000
0001F00000
0001F00000
0001F00000
0001F00000
0001F00000
0001F00000
0001F00000
0001F00000
ENDCHAR
STARTCHAR 2506
ENCODING 9478
SWIDTH 4800 0
DWIDTH 40 0
BBX 40 40 0 0
BITMAP
00000003E0
00000003E0
00000003E0
00000003E0
00000003E0
00000003E0
00000003E0
00000003E0
00000003E0
00000003E0
00000003E0
00000003E0
00000003E0
00000003E0
00000003E0
00000003E0
00000003E0
00000003E0
00000003E0
00000003E0
00000003E0
00000003E0
00000003E0
00000003E0
00000003E0
00000003E0
00000003E0
00000003E0
00000003E0
00000003E0
00000003E0
00000003E0
00000003E0
00000003E0
00000003E0
00000003E0
00000003E0
00000003E0
00000003E0
00000003E0
ENDCHAR
STARTCHAR 2507
ENCODING 9479
SWIDTH 4800 0
DWIDTH 40 0
BBX 40 40 0 0
BITMAP
07C0000000
07C0000000
07C0000000
07C0000000
07C0000000
07C0000000
07C0000000
07C0000000
07C0000000
07C0000000
07C0000000
07C0000000
07C0000000
07C0000000
07C0000000
07C0000000
07C0000000
07C0000000
07C0000000
07C0000000
07C0000000
07C0000000
07C0000000
07C0000000
07C0000000
07C0000000
07C0000000
07C0000000
07C0000000
07C0000000
07C0000000
07C0000000
07C0000000
07C0000000
07C0000000
07C0000000
07C0000000
07C0000000
07C0000000
07C0000000
ENDCHAR
STARTCHAR 250a
ENCODING 9482
SWIDTH 4800 0
DWIDTH 40 0
BBX 40 40 0 0
BITMAP
0000007C00
0000007C00
0000007C00
0000007C00
0000007C00
0000007C00
0000007C00
0000007C00
0000007C00
0000007C00
0000007C00
0000007C00
0000007C00
0000007C00
0000007C00
0000007C00
0000007C00
0000007C00
0000007C00
0000007C00
0000007C00
0000007C00
0000007C00
0000007C00
0000007C00
0000007C00
0000007C00
0000007C00
0000007C00
0000007C00
0000007C00
0000007C00
0000007C00
0000007C00
0000007C00
0000007C00
0000007C00
0000007C00
0000007C00
0000007C00
ENDCHAR
STARTCHAR 250b
ENCODING 9483
SWIDTH 4800 0
DWIDTH 40 0
BBX 40 40 0 0
BITMAP
003E000000
003E000000
003E000000
003E000000
003E000000
003E000000
003E000000
003E000000
003E000000
003E000000
003E000000
003E000000
003E000000
003E000000
003E000000
003E000000
003E000000
003E000000
003E000000
003E000000
003E000000
003E000000
003E000000
003E000000
003E000000
003E000000
003E000000
003E000000
003E000000
003E000000
003E000000
003E000000
003E000000
003E000000
003E000000
003E000000
003E000000
003E000000
003E000000
003E000000
ENDCHAR
STARTCHAR 250c
ENCODING 9484
SWIDTH 4800 0
DWIDTH 40 0
BBX 40 40 0 0
BITMAP
0000000000
0000000000
0000000000
0000000000
0000000000
0000000000
0000000000
0000000000
0000000000
0000000000
0000000000
0000000000
0000000000
0000000000
0000000000
0000000000
0000000000
0000000000
0000000000
0000000000
00000FFFFF
00000FFFFF
00000FFFFF
00000FFFFF
00000FFFFF
00000F8000
00000F8000
00000F8000
00000F8000
00000F8000
00000F8000
00000F8000
00000F8000
00000F8000
00000F8000
00000F8000
00000F8000
00000F8000
00000F8000
00000F8000
ENDCHAR
STARTCHAR 250f
ENCODING 9487
SWIDTH 4800 0
DWIDTH 40 0
BBX 40 40 0 0
BITMAP
FFFFFFFFFF
FFFFFFFFFF
FFFFFFFFFF
FFFFFFFFFF
FFFFFFFFFF
F800000000
F800000000
F800000000
F800000000
F800000000
F800000000
F800000000
F800000000
F800000000
F800000000
F800000000
F800000000
F800000000
F800000000
F800000000
F800000000
F800000000
F800000000
F800000000
F800000000
F800000000
F800000000
F800000000
F800000000
F800000000
F800000000
F800000000
F800000000
F800000000
F800000000
F800000000
F800000000
F800000000
F800000000
F800000000
ENDCHAR
STARTCHAR 2510
ENCODING 9488
SWIDTH 4800 0
DWIDTH 40 0
BBX 40 40 0 0
BITMAP
0000000000
0000000000
0000000000
0000000000
0000000000
0000000000
0000000000
0000000000
0000000000
0000000000
0000000000
0000000000
0000000000
0000000000
0000000000
0000000000
0000000000
0000000000
0000000000
0000000000
FFFFFF8000
FFFFFF8000
FFFFFF8000
FFFFFF8000
FFFFFF8000
00000F8000
00000F8000
00000F8000
00000F8000
00000F8000
00000F8000
00000F8000
00000F8000
00000F8000
00000F8000
00000F8000
00000F8000
00000F8000
00000F8000
00000F8000
ENDCHAR
STARTCHAR 2513
ENCODING 9491
SWIDTH 4800 0
DWIDTH 40 0
BBX 40 40 0 0
BITMAP
FFFFFFFFFF
FFFFFFFFFF
FFFFFFFFFF
FFFFFFFFFF
FFFFFFFFFF
000000001F
000000001F
000000001F
000000001F
000000001F
000000001F
000000001F
000000001F
000000001F
000000001F
000000001F
000000001F
000000001F
000000001F
000000001F
000000001F
000000001F
000000001F
000000001F
000000001F
000000001F
000000001F
000000001F
000000001F
000000001F
000000001F
000000001F
000000001F
000000001F
000000001F
000000001F
000000001F
000000001F
000000001F
000000001F
ENDCHAR
STARTCHAR 2514
ENCODING 9492
SWIDTH 4800 0
DWIDTH 40 0
BBX 40 40 0 0
BITMAP
00000F8000
00000F8000
00000F8000
00000F8000
00000F8000
00000F8000
00000F8000
00000F8000
00000F8000
00000F8000
00000F8000
00000F8000
00000F8000
00000F8000
00000F8000
00000F8000
00000F8000
00000F8000
00000F8000
00000F8000
00000FFFFF
00000FFFFF
00000FFFFF
00000FFFFF
00000FFFFF
0000000000
0000000000
0000000000
0000000000
0000000000
0000000000
0000000000
0000000000
0000000000
0000000000
0000000000
0000000000
0000000000
0000000000
0000000000
ENDCHAR
STARTCHAR 2517
ENCODING 9495
SWIDTH 4800 0
DWIDTH 40 0
BBX 40 40 0 0
BITMAP
F800000000
F800000000
F800000000
F800000000
F800000000
F800000000
F800000000
F800000000
F800000000
F800000000
F800000000
F800000000
F800000000
F800000000
F800000000
F800000000
F800000000
F800000000
F800000000
F800000000
F800000000
F800000000
F800000000
F800000000
F800000000
F800000000
F800000000
F800000000
F800000000
F800000000
F800000000
F800000000
F800000000
F800000000
F800000000
FFFFFFFFFF
FFFFFFFFFF
FFFFFFFFFF
FFFFFFFFFF
FFFFFFFFFF
ENDCHAR
STARTCHAR 2518
ENCODING 9496
SWIDTH 4800 0
DWIDTH 40 0
BBX 40 40 0 0
BITMAP
00000F8000
00000F8000
00000F8000
00000F8000
00000F8000
00000F8000
00000F8000
00000F8000
00000F8000
00000F8000
00000F8000
00000F8000
00000F8000
00000F8000
00000F8000
00000F8000
00000F8000
00000F8000
00000F8000
00000F8000
FFFFFF8000
FFFFFF8000
FFFFFF8000
FFFFFF8000
FFFFFF8000
0000000000
0000000000
0000000000
0000000000
0000000000
0000000000
0000000000
0000000000
0000000000
0000000000
0000000000
0000000000
0000000000
0000000000
0000000000
ENDCHAR
STARTCHAR 251b
ENCODING 9499
SWIDTH 4800 0
DWIDTH 40 0
BBX 40 40 0 0
BITMAP
000000001F
000000001F
000000001F
000000001F
000000001F
000000001F
000000001F
000000001F
000000001F
000000001F
000000001F
000000001F
000000001F
000000001F
000000001F
000000001F
000000001F
000000001F
000000001F
000000001F
000000001F
000000001F
000000001F
000000001F
000000001F
000000001F
000000001F
000000001F
000000001F
000000001F
000000001F
000000001F
000000001F
000000001F
000000001F
FFFFFFFFFF
FFFFFFFFFF
FFFFFFFFFF
FFFFFFFFFF
FFFFFFFFFF
ENDCHAR
STARTCHAR 251c
ENCODING 9500
SWIDTH 4800 0
DWIDTH 40 0
BBX 40 40 0 0
BITMAP
00000F8000
00000F8000
00000F8000
00000F8000
00000F8000
00000F8000
00000F8000
00000F8000
00000F8000
00000F8000
00000F8000
00000F8000
00000F8000
00000F8000
00000F8000
00000F8000
00000F8000
00000F8000
00000F8000
00000F8000
00000FFFFF
00000FFFFF
00000FFFFF
00000FFFFF
00000FFFFF
00000F8000
00000F8000
00000F8000
00000F8000
00000F8000
00000F8000
00000F8000
00000F8000
00000F8000
00000F8000
00000F8000
00000F8000
00000F8000
00000F8000
00000F8000
ENDCHAR
STARTCHAR 2524
ENCODING 9508
SWIDTH 4800 0
DWIDTH 40 0
BBX 40 40 0 0
BITMAP
00000F8000
00000F8000
00000F8000
00000F8000
00000F8000
00000F8000
00000F8000
00000F8000
00000F8000
00000F8000
00000F8000
00000F8000
00000F8000
00000F8000
00000F8000
00000F8000
00000F8000
00000F8000
00000F8000
00000F8000
FFFFFF8000
FFFFFF8000
FFFFFF8000
FFFFFF8000
FFFFFF8000
00000F8000
00000F8000
00000F8000
00000F8000
00000F8000
00000F8000
00000F8000
00000F8000
00000F8000
00000F8000
00000F8000
00000F8000
00000F8000
00000F8000
00000F8000
ENDCHAR
STARTCHAR 252c
ENCODING 9516
SWIDTH 4800 0
DWIDTH 40 0
BBX 40 40 0 0
BITMAP
0000000000
0000000000
0000000000
0000000000
0000000000
0000000000
0000000000
0000000000
0000000000
0000000000
0000000000
0000000000
0000000000
0000000000
0000000000
0000000000
0000000000
0000000000
0000000000
0000000000
FFFFFFFFFF
FFFFFFFFFF
FFFFFFFFFF
FFFFFFFFFF
FFFFFFFFFF
00000F8000
00000F8000
00000F8000
00000F8000
00000F8000
00000F8000
00000F8000
00000F8000
00000F8000
00000F8000
00000F8000
00000F8000
00000F8000
00000F8000
00000F8000
ENDCHAR
STARTCHAR 2534
ENCODING 9524
SWIDTH 4800 0
DWIDTH 40 0
BBX 40 40 0 0
BITMAP
00000F8000
00000F8000
00000F8000
00000F8000
00000F8000
00000F8000
00000F8000
00000F8000
00000F8000
00000F8000
00000F8000
00000F8000
00000F8000
00000F8000
00000F8000
00000F8000
00000F8000
00000F8000
00000F8000
00000F8000
FFFFFFFFFF
FFFFFFFFFF
FFFFFFFFFF
FFFFFFFFFF
FFFFFFFFFF
0000000000
0000000000
0000000000
0000000000
0000000000
0000000000
0000000000
0000000000
0000000000
0000000000
0000000000
0000000000
0000000000
0000000000
0000000000
ENDCHAR
STARTCHAR 253c
ENCODING 9532
SWIDTH 4800 0
DWIDTH 40 0
BBX 40 40 0 0
BITMAP
00000F8000
00000F8000
00000F8000
00000F8000
00000F8000
00000F8000
00000F8000
00000F8000
00000F8000
00000F8000
00000F8000
00000F8000
00000F8000
00000F8000
00000F8000
00000F8000
00000F8000
00000F8000
00000F8000
00000F8000
FFFFFFFFFF
FFFFFFFFFF
FFFFFFFFFF
FFFFFFFFFF
FFFFFFFFFF
00000F8000
00000F8000
00000F8000
00000F8000
00000F8000
00000F8000
00000F8000
00000F8000
00000F8000
00000F8000
00000F8000
00000F8000
00000F8000
00000F8000
00000F8000
ENDCHAR
STARTCHAR 256d
ENCODING 9581
SWIDTH 4800 0
DWIDTH 40 0
BBX 40 40 0 0
BITMAP
0000000000
0000000000
0000000000
0000000000
0000000000
0000000000
0000000000
0000000000
0000000000
0000000000
0000000000
0000000000
0000000000
0000000000
0000000000
0000000000
0000000000
0000000000
0000000000
0000000000
00000003FF
00000003FF
00000003FF
00000003FF
00000003FF
0000007C00
0000007C00
0000007C00
0000007C00
0000007C00
00000F8000
00000F8000
00000F8000
00000F8000
00000F8000
00000F8000
00000F8000
00000F8000
00000F8000
00000F8000
ENDCHAR
STARTCHAR 256e
ENCODING 9582
SWIDTH 4800 0
DWIDTH 40 0
BBX 40 40 0 0
BITMAP
0000000000
0000000000
0000000000
0000000000
0000000000
0000000000
0000000000
0000000000
0000000000
0000000000
0000000000
0000000000
0000000000
0000000000
0000000000
0000000000
0000000000
0000000000
0000000000
0000000000
FFC0000000
FFC0000000
FFC0000000
FFC0000000
FFC0000000
003E000000
003E000000
003E000000
003E000000
003E000000
0001F00000
0001F00000
0001F00000
0001F00000
0001F00000
0001F00000
0001F00000
0001F00000
0001F00000
0001F00000
ENDCHAR
STARTCHAR 256f
ENCODING 9583
SWIDTH 4800 0
DWIDTH 40 0
BBX 40 40 0 0
BITMAP
0001F00000
0001F00000
0001F00000
0001F00000
0001F00000
0001F00000
0001F00000
0001F00000
0001F00000
0001F00000
003E000000
003E000000
003E000000
003E000000
003E000000
FFC0000000
FFC0000000
FFC0000000
FFC0000000
FFC0000000
0000000000
0000000000
0000000000
0000000000
0000000000
0000000000
0000000000
0000000000
0000000000
0000000000
0000000000
0000000000
0000000000
0000000000
0000000000
0000000000
0000000000
0000000000
0000000000
0000000000
ENDCHAR
STARTCHAR 2570
ENCODING 9584
SWIDTH 4800 0
DWIDTH 40 0
BBX 40 40 0 0
BITMAP
00000F8000
00000F8000
00000F8000
00000F8000
00000F8000
00000F8000
00000F8000
00000F8000
00000F8000
00000F8000
0000007C00
0000007C00
0000007C00
0000007C00
0000007C00
00000003FF
00000003FF
00000003FF
00000003FF
00000003FF
0000000000
0000000000
0000000000
0000000000
0000000000
0000000000
0000000000
0000000000
0000000000
0000000000
0000000000
0000000000
0000000000
0000000000
0000000000
0000000000
0000000000
0000000000
0000000000
0000000000
ENDCHAR
STARTCHAR 2580
ENCODING 9600
SWIDTH 4800 0
DWIDTH 40 0
BBX 40 40 0 0
BITMAP
FFFFFFFFFF
FFFFFFFFFF
FFFFFFFFFF
FFFFFFFFFF
FFFFFFFFFF
FFFFFFFFFF
FFFFFFFFFF
FFFFFFFFFF
FFFFFFFFFF
FFFFFFFFFF
FFFFFFFFFF
FFFFFFFFFF
FFFFFFFFFF
FFFFFFFFFF
FFFFFFFFFF
FFFFFFFFFF
FFFFFFFFFF
FFFFFFFFFF
FFFFFFFFFF
FFFFFFFFFF
0000000000
0000000000
0000000000
0000000000
0000000000
0000000000
0000000000
0000000000
0000000000
0000000000
0000000000
0000000000
0000000000
0000000000
0000000000
0000000000
0000000000
0000000000
0000000000
0000000000
ENDCHAR
STARTCHAR 2582
ENCODING 9602
SWIDTH 4800 0
DWIDTH 40 0
BBX 40 40 0 0
BITMAP
0000000000
0000000000
0000000000
0000000000
0000000000
0000000000
0000000000
0000000000
0000000000
0000000000
0000000000
0000000000
0000000000
0000000000
0000000000
0000000000
0000000000
0000000000
0000000000
0000000000
0000000000
0000000000
0000000000
0000000000
0000000000
0000000000
0000000000
0000000000
0000000000
0000000000
FFFFFFFFFF
FFFFFFFFFF
FFFFFFFFFF
FFFFFFFFFF
FFFFFFFFFF
FFFFFFFFFF
FFFFFFFFFF
FFFFFFFFFF
FFFFFFFFFF
FFFFFFFFFF
ENDCHAR
STARTCHAR 2583
ENCODING 9603
SWIDTH 4800 0
DWIDTH 40 0
BBX 40 40 0 0
BITMAP
0000000000
0000000000
0000000000
0000000000
0000000000
0000000000
0000000000
0000000000
0000000000
0000000000
0000000000
0000000000
0000000000
0000000000
0000000000
0000000000
0000000000
0000000000
0000000000
0000000000
0000000000
0000000000
0000000000
0000000000
0000000000
FFFFFFFFFF
FFFFFFFFFF
FFFFFFFFFF
FFFFFFFFFF
FFFFFFFFFF
FFFFFFFFFF
FFFFFFFFFF
FFFFFFFFFF
FFFFFFFFFF
FFFFFFFFFF
FFFFFFFFFF
FFFFFFFFFF
FFFFFFFFFF
FFFFFFFFFF
FFFFFFFFFF
ENDCHAR
STARTCHAR 2584
ENCODING 9604
SWIDTH 4800 0
DWIDTH 40 0
BBX 40 40 0 0
BITMAP
0000000000
0000000000
0000000000
0000000000
0000000000
0000000000
0000000000
0000000000
0000000000
0000000000
0000000000
0000000000
0000000000
0000000000
0000000000
0000000000
0000000000
0000000000
0000000000
0000000000
FFFFFFFFFF
FFFFFFFFFF
FFFFFFFFFF
FFFFFFFFFF
FFFFFFFFFF
FFFFFFFFFF
FFFFFFFFFF
FFFFFFFFFF
FFFFFFFFFF
FFFFFFFFFF
FFFFFFFFFF
FFFFFFFFFF
FFFFFFFFFF
FFFFFFFFFF
FFFFFFFFFF
FFFFFFFFFF
FFFFFFFFFF
FFFFFFFFFF
FFFFFFFFFF
FFFFFFFFFF
ENDCHAR
STARTCHAR 258d
ENCODING 9613
SWIDTH 4800 0
DWIDTH 40 0
BBX 40 40 0 0
BITMAP
FFFFF00000
FFFFF00000
FFFFF00000
FFFFF00000
FFFFF00000
FFFFF00000
FFFFF00000
FFFFF00000
FFFFF00000
FFFFF00000
FFFFF00000
FFFFF00000
FFFFF00000
FFFFF00000
FFFFF00000
FFFFF00000
FFFFF00000
FFFFF00000
FFFFF00000
FFFFF00000
FFFFF00000
FFFFF00000
FFFFF00000
FFFFF00000
FFFFF00000
FFFFF00000
FFFFF00000
FFFFF00000
FFFFF00000
FFFFF00000
FFFFF00000
FFFFF00000
FFFFF00000
FFFFF00000
FFFFF00000
FFFFF00000
FFFFF00000
FFFFF00000
FFFFF00000
FFFFF00000
ENDCHAR
STARTCHAR 258e
ENCODING 9614
SWIDTH 4800 0
DWIDTH 40 0
BBX 40 40 0 0
BITMAP
FFC0000000
FFC0000000
FFC0000000
FFC0000000
FFC0000000
FFC0000000
FFC0000000
FFC0000000
FFC0000000
FFC0000000
FFC0000000
FFC0000000
FFC0000000
FFC0000000
FFC0000000
FFC0000000
FFC0000000
FFC0000000
FFC0000000
FFC0000000
FFC0000000
FFC0000000
FFC0000000
FFC0000000
FFC0000000
FFC0000000
FFC0000000
FFC0000000
FFC0000000
FFC0000000
FFC0000000
FFC0000000
FFC0000000
FFC0000000
FFC0000000
FFC0000000
FFC0000000
FFC0000000
FFC0000000
FFC0000000
ENDCHAR
STARTCHAR 258f
ENCODING 9615
SWIDTH 4800 0
DWIDTH 40 0
BBX 40 40 0 0
BITMAP
F800000000
F800000000
F800000000
F800000000
F800000000
F800000000
F800000000
F800000000
F800000000
F800000000
F800000000
F800000000
F800000000
F800000000
F800000000
F800000000
F800000000
F800000000
F800000000
F800000000
F800000000
F800000000
F800000000
F800000000
F800000000
F800000000
F800000000
F800000000
F800000000
F800000000
F800000000
F800000000
F800000000
F800000000
F800000000
F800000000
F800000000
F800000000
F800000000
F800000000
ENDCHAR
STARTCHAR 2590
ENCODING 9616
SWIDTH 4800 0
DWIDTH 40 0
BBX 40 40 0 0
BITMAP
00000FFFFF
00000FFFFF
00000FFFFF
00000FFFFF
00000FFFFF
00000FFFFF
00000FFFFF
00000FFFFF
00000FFFFF
00000FFFFF
00000FFFFF
00000FFFFF
00000FFFFF
00000FFFFF
00000FFFFF
00000FFFFF
00000FFFFF
00000FFFFF
00000FFFFF
00000FFFFF
00000FFFFF
00000FFFFF
00000FFFFF
00000FFFFF
00000FFFFF
00000FFFFF
00000FFFFF
00000FFFFF
00000FFFFF
00000FFFFF
00000FFFFF
00000FFFFF
00000FFFFF
00000FFFFF
00000FFFFF
00000FFFFF
00000FFFFF
00000FFFFF
00000FFFFF
00000FFFFF
ENDCHAR
STARTCHAR 2591
ENCODING 9617
SWIDTH 4800 0
DWIDTH 40 0
BBX 40 40 0 0
BITMAP
07C1F07C1F
07C1F07C1F
07C1F07C1F
07C1F07C1F
07C1F07C1F
F83E0F83E0
F83E0F83E0
F83E0F83E0
F83E0F83E0
F83E0F83E0
07C1F07C1F
07C1F07C1F
07C1F07C1F
07C1F07C1F
07C1F07C1F
F83E0F83E0
F83E0F83E0
F83E0F83E0
F83E0F83E0
F83E0F83E0
07C1F07C1F
07C1F07C1F
07C1F07C1F
07C1F07C1F
07C1F07C1F
F83E0F83E0
F83E0F83E0
F83E0F83E0
F83E0F83E0
F83E0F83E0
07C1F07C1F
07C1F07C1F
07C1F07C1F
07C1F07C1F
07C1F07C1F
F83E0F83E0
F83E0F83E0
F83E0F83E0
F83E0F83E0
F83E0F83E0
ENDCHAR
STARTCHAR 2592
ENCODING 9618
SWIDTH 4800 0
DWIDTH 40 0
BBX 40 40 0 0
BITMAP
F83E0F83E0
F83E0F83E0
F83E0F83E0
F83E0F83E0
F83E0F83E0
07C1F07C1F
07C1F07C1F
07C1F07C1F
07C1F07C1F
07C1F07C1F
F83E0F83E0
F83E0F83E0
F83E0F83E0
F83E0F83E0
F83E0F83E0
07C1F07C1F
07C1F07C1F
07C1F07C1F
07C1F07C1F
07C1F07C1F
F83E0F83E0
F83E0F83E0
F83E0F83E0
F83E0F83E0
F83E0F83E0
07C1F07C1F
07C1F07C1F
07C1F07C1F
07C1F07C1F
07C1F07C1F
F83E0F83E0
F83E0F83E0
F83E0F83E0
F83E0F83E0
F83E0F83E0
07C1F07C1F
07C1F07C1F
07C1F07C1F
07C1F07C1F
07C1F07C1F
ENDCHAR
STARTCHAR 2593
ENCODING 9619
SWIDTH 4800 0
DWIDTH 40 0
BBX 40 40 0 0
BITMAP
F83E000000
F83E000000
F83E000000
F83E000000
F83E000000
07C1F00000
07C1F00000
07C1F00000
07C1F00000
07C1F00000
F83E000000
F83E000000
F83E000000
F83E000000
F83E000000
07C1F00000
07C1F00000
07C1F00000
07C1F00000
07C1F00000
F83E000000
F83E000000
F83E000000
F83E000000
F83E000000
07C1F00000
07C1F00000
07C1F00000
07C1F00000
07C1F00000
F83E000000
F83E000000
F83E000000
F83E000000
F83E000000
07C1F00000
07C1F00000
07C1F00000
07C1F00000
07C1F00000
ENDCHAR
STARTCHAR 2595
ENCODING 9621
SWIDTH 4800 0
DWIDTH 40 0
BBX 40 40 0 0
BITMAP
000000001F
000000001F
000000001F
000000001F
000000001F
000000001F
000000001F
000000001F
000000001F
000000001F
000000001F
000000001F
000000001F
000000001F
000000001F
000000001F
000000001F
000000001F
000000001F
000000001F
000000001F
000000001F
000000001F
000000001F
000000001F
000000001F
000000001F
000000001F
000000001F
000000001F
000000001F
000000001F
000000001F
000000001F
000000001F
000000001F
000000001F
000000001F
000000001F
000000001F
ENDCHAR
STARTCHAR 259a
ENCODING 9626
SWIDTH 4800 0
DWIDTH 40 0
BBX 40 40 0 0
BITMAP
FFFFF00000
FFFFF00000
FFFFF00000
FFFFF00000
FFFFF00000
FFFFF00000
FFFFF00000
FFFFF00000
FFFFF00000
FFFFF00000
FFFFF00000
FFFFF00000
FFFFF00000
FFFFF00000
FFFFF00000
FFFFF00000
FFFFF00000
FFFFF00000
FFFFF00000
FFFFF00000
00000FFFFF
00000FFFFF
00000FFFFF
00000FFFFF
00000FFFFF
00000FFFFF
00000FFFFF
00000FFFFF
00000FFFFF
00000FFFFF
00000FFFFF
00000FFFFF
00000FFFFF
00000FFFFF
00000FFFFF
00000FFFFF
00000FFFFF
00000FFFFF
00000FFFFF
00000FFFFF
ENDCHAR
STARTCHAR 259e
ENCODING 9630
SWIDTH 4800 0
DWIDTH 40 0
BBX 40 40 0 0
BITMAP
00000FFFFF
00000FFFFF
00000FFFFF
00000FFFFF
00000FFFFF
00000FFFFF
00000FFFFF
00000FFFFF
00000FFFFF
00000FFFFF
00000FFFFF
00000FFFFF
00000FFFFF
00000FFFFF
00000FFFFF
00000FFFFF
00000FFFFF
00000FFFFF
00000FFFFF
00000FFFFF
FFFFF00000
FFFFF00000
FFFFF00000
FFFFF00000
FFFFF00000
FFFFF00000
FFFFF00000
FFFFF00000
FFFFF00000
FFFFF00000
FFFFF00000
FFFFF00000
FFFFF00000
FFFFF00000
FFFFF00000
FFFFF00000
FFFFF00000
FFFFF00000
FFFFF00000
FFFFF00000
ENDCHAR
STARTCHAR 25a0
ENCODING 9632
SWIDTH 4800 0
DWIDTH 40 0
BBX 40 40 0 0
BITMAP
FFFFFFFFFF
FFFFFFFFFF
FFFFFFFFFF
FFFFFFFFFF
FFFFFFFFFF
FFFFFFFFFF
FFFFFFFFFF
FFFFFFFFFF
FFFFFFFFFF
FFFFFFFFFF
FFFFFFFFFF
FFFFFFFFFF
FFFFFFFFFF
FFFFFFFFFF
FFFFFFFFFF
FFFFFFFFFF
FFFFFFFFFF
FFFFFFFFFF
FFFFFFFFFF
FFFFFFFFFF
FFFFFFFFFF
FFFFFFFFFF
FFFFFFFFFF
FFFFFFFFFF
FFFFFFFFFF
FFFFFFFFFF
FFFFFFFFFF
FFFFFFFFFF
FFFFFFFFFF
FFFFFFFFFF
FFFFFFFFFF
FFFFFFFFFF
FFFFFFFFFF
FFFFFFFFFF
FFFFFFFFFF
FFFFFFFFFF
FFFFFFFFFF
FFFFFFFFFF
FFFFFFFFFF
FFFFFFFFFF
ENDCHAR
STARTCHAR 25bd
ENCODING 9661
SWIDTH 4800 0
DWIDTH 40 0
BBX 40 40 0 0
BITMAP
FFFFFFFFFF
FFFFFFFFFF
FFFFFFFFFF
FFFFFFFFFF
FFFFFFFFFF
FFFFFFFFFF
FFFFFFFFFF
FFFFFFFFFF
FFFFFFFFFF
FFFFFFFFFF
0000000000
0000000000
0000000000
0000000000
0000000000
0000000000
0000000000
0000000000
0000000000
0000000000
0000000000
0000000000
0000000000
0000000000
0000000000
0000000000
0000000000
0000000000
0000000000
0000000000
0000000000
0000000000
0000000000
0000000000
0000000000
0000000000
0000000000
0000000000
0000000000
0000000000
ENDCHAR
STARTCHAR 25c0
ENCODING 9664
SWIDTH 4800 0
DWIDTH 40 0
BBX 40 40 0 0
BITMAP
0000007FFF
0000007FFF
0000007FFF
0000007FFF
0000007FFF
0000007FFF
0000007FFF
0000007FFF
0000007FFF
0000007FFF
0000007FFF
0000007FFF
0000007FFF
0000007FFF
0000007FFF
0000007FFF
0000007FFF
0000007FFF
0000007FFF
0000007FFF
0000007FFF
0000007FFF
0000007FFF
0000007FFF
0000007FFF
0000007FFF
0000007FFF
0000007FFF
0000007FFF
0000007FFF
0000007FFF
0000007FFF
0000007FFF
0000007FFF
0000007FFF
0000007FFF
0000007FFF
0000007FFF
0000007FFF
0000007FFF
ENDCHAR
STARTCHAR 25c1
ENCODING 9665
SWIDTH 4800 0
DWIDTH 40 0
BBX 40 40 0 0
BITMAP
00000003FF
00000003FF
00000003FF
00000003FF
00000003FF
00000003FF
00000003FF
00000003FF
00000003FF
00000003FF
00000003FF
00000003FF
00000003FF
00000003FF
00000003FF
00000003FF
00000003FF
00000003FF
00000003FF
00000003FF
00000003FF
00000003FF
00000003FF
00000003FF
00000003FF
00000003FF
00000003FF
00000003FF
00000003FF
00000003FF
00000003FF
00000003FF
00000003FF
00000003FF
00000003FF
00000003FF
00000003FF
00000003FF
00000003FF
00000003FF
ENDCHAR
STARTCHAR 25cb
ENCODING 9675
SWIDTH 4800 0
DWIDTH 40 0
BBX 40 40 0 0
BITMAP
0000000000
0000000000
0000000000
0000000000
0000000000
003FFFFC00
003FFFFC00
003FFFFC00
003FFFFC00
003FFFFC00
07C00003E0
07C00003E0
07C00003E0
07C00003E0
07C00003E0
07C00003E0
07C00003E0
07C00003E0
07C00003E0
07C00003E0
07C00003E0
07C00003E0
07C00003E0
07C00003E0
07C00003E0
07C00003E0
07C00003E0
07C00003E0
07C00003E0
07C00003E0
003FFFFC00
003FFFFC00
003FFFFC00
003FFFFC00
003FFFFC00
0000000000
0000000000
0000000000
0000000000
0000000000
ENDCHAR
STARTCHAR 25ce
ENCODING 9678
SWIDTH 4800 0
DWIDTH 40 0
BBX 40 40 0 0
BITMAP
FFFFFFFFFF
FFFFFFFFFF
FFFFFFFFFF
FFFFFFFFFF
FFFFFFFFFF
FFC00003FF
FFC00003FF
FFC00003FF
FFC00003FF
FFC00003FF
F80000001F
F80000001F
F80000001F
F80000001F
F80000001F
F80000001F
F80000001F
F80000001F
F80000001F
F80000001F
F80000001F
F80000001F
F80000001F
F80000001F
F80000001F
F80000001F
F80000001F
F80000001F
F80000001F
F80000001F
FFC00003FF
FFC00003FF
FFC00003FF
FFC00003FF
FFC00003FF
FFFFFFFFFF
FFFFFFFFFF
FFFFFFFFFF
FFFFFFFFFF
FFFFFFFFFF
ENDCHAR
STARTCHAR 25cf
ENCODING 9679
SWIDTH 4800 0
DWIDTH 40 0
BBX 40 40 0 0
BITMAP
0000000000
0000000000
0000000000
0000000000
0000000000
003FFFFC00
003FFFFC00
003FFFFC00
003FFFFC00
003FFFFC00
07FFFFFFE0
07FFFFFFE0
07FFFFFFE0
07FFFFFFE0
07FFFFFFE0
07FFFFFFE0
07FFFFFFE0
07FFFFFFE0
07FFFFFFE0
07FFFFFFE0
07FFFFFFE0
07FFFFFFE0
07FFFFFFE0
07FFFFFFE0
07FFFFFFE0
07FFFFFFE0
07FFFFFFE0
07FFFFFFE0
07FFFFFFE0
07FFFFFFE0
003FFFFC00
003FFFFC00
003FFFFC00
003FFFFC00
003FFFFC00
0000000000
0000000000
0000000000
0000000000
0000000000
ENDCHAR
STARTCHAR 25e2
ENCODING 9698
SWIDTH 4800 0
DWIDTH 40 0
BBX 40 40 0 0
BITMAP
000000001F
000000001F
000000001F
000000001F
000000001F
00000003FF
00000003FF
00000003FF
00000003FF
00000003FF
0000007FFF
0000007FFF
0000007FFF
0000007FFF
0000007FFF
00000FFFFF
00000FFFFF
00000FFFFF
00000FFFFF
00000FFFFF
0001FFFFFF
0001FFFFFF
0001FFFFFF
0001FFFFFF
0001FFFFFF
003FFFFFFF
003FFFFFFF
003FFFFFFF
003FFFFFFF
003FFFFFFF
07FFFFFFFF
07FFFFFFFF
07FFFFFFFF
07FFFFFFFF
07FFFFFFFF
FFFFFFFFFF
FFFFFFFFFF
FFFFFFFFFF
FFFFFFFFFF
FFFFFFFFFF
ENDCHAR
STARTCHAR 25e3
ENCODING 9699
SWIDTH 4800 0
DWIDTH 40 0
BBX 40 40 0 0
BITMAP
F800000000
F800000000
F800000000
F800000000
F800000000
FFC0000000
FFC0000000
FFC0000000
FFC0000000
FFC0000000
FFFE000000
FFFE000000
FFFE000000
FFFE000000
FFFE000000
FFFFF00000
FFFFF00000
FFFFF00000
FFFFF00000
FFFFF00000
FFFFFF8000
FFFFFF8000
FFFFFF8000
FFFFFF8000
FFFFFF8000
FFFFFFFC00
FFFFFFFC00
FFFFFFFC00
FFFFFFFC00
FFFFFFFC00
FFFFFFFFE0
FFFFFFFFE0
FFFFFFFFE0
FFFFFFFFE0
FFFFFFFFE0
FFFFFFFFFF
FFFFFFFFFF
FFFFFFFFFF
FFFFFFFFFF
FFFFFFFFFF
ENDCHAR
STARTCHAR 25e4
ENCODING 9700
SWIDTH 4800 0
DWIDTH 40 0
BBX 40 40 0 0
BITMAP
FFFFFFFFFF
FFFFFFFFFF
FFFFFFFFFF
FFFFFFFFFF
FFFFFFFFFF
FFFFFFFFE0
FFFFFFFFE0
FFFFFFFFE0
FFFFFFFFE0
FFFFFFFFE0
FFFFFFFC00
FFFFFFFC00
FFFFFFFC00
FFFFFFFC00
FFFFFFFC00
FFFFFF8000
FFFFFF8000
FFFFFF8000
FFFFFF8000
FFFFFF8000
FFFFF00000
FFFFF00000
FFFFF00000
FFFFF00000
FFFFF00000
FFFE000000
FFFE000000
FFFE000000
FFFE000000
FFFE000000
FFC0000000
FFC0000000
FFC0000000
FFC0000000
FFC0000000
F800000000
F800000000
F800000000
F800000000
F800000000
ENDCHAR
STARTCHAR 25e5
ENCODING 9701
SWIDTH 4800 0
DWIDTH 40 0
BBX 40 40 0 0
BITMAP
FFFFFFFFFF
FFFFFFFFFF
FFFFFFFFFF
FFFFFFFFFF
FFFFFFFFFF
07FFFFFFFF
07FFFFFFFF
07FFFFFFFF
07FFFFFFFF
07FFFFFFFF
003FFFFFFF
003FFFFFFF
003FFFFFFF
003FFFFFFF
003FFFFFFF
0001FFFFFF
0001FFFFFF
0001FFFFFF
0001FFFFFF
0001FFFFFF
00000FFFFF
00000FFFFF
00000FFFFF
00000FFFFF
00000FFFFF
0000007FFF
0000007FFF
0000007FFF
0000007FFF
0000007FFF
00000003FF
00000003FF
00000003FF
00000003FF
00000003FF
000000001F
000000001F
000000001F
000000001F
000000001F
ENDCHAR
STARTCHAR 263a
ENCODING 9786
SWIDTH 4800 0
DWIDTH 40 0
BBX 40 40 0 0
BITMAP
003FFFFC00
003FFFFC00
003FFFFC00
003FFFFC00
003FFFFC00
07C00003E0
07C00003E0
07C00003E0
07C00003E0
07C00003E0
F80000001F
F80000001F
F80000001F
F80000001F
F80000001F
F83E007C1F
F83E007C1F
F83E007C1F
F83E007C1F
F83E007C1F
F80000001F
F80000001F
F80000001F
F80000001F
F80000001F
F801FF801F
F801FF801F
F801FF801F
F801FF801F
F801FF801F
07C00003E0
07C00003E0
07C00003E0
07C00003E0
07C00003E0
003FFFFC00
003FFFFC00
003FFFFC00
003FFFFC00
003FFFFC00
ENDCHAR
STARTCHAR 263b
ENCODING 9787
SWIDTH 4800 0
DWIDTH 40 0
BBX 40 40 0 0
BITMAP
003FFFFC00
003FFFFC00
003FFFFC00
003FFFFC00
003FFFFC00
07FFFFFFE0
07FFFFFFE0
07FFFFFFE0
07FFFFFFE0
07FFFFFFE0
FFFFFFFFFF
FFFFFFFFFF
FFFFFFFFFF
FFFFFFFFFF
FFFFFFFFFF
FFC1FF83FF
FFC1FF83FF
FFC1FF83FF
FFC1FF83FF
FFC1FF83FF
FFFFFFFFFF
FFFFFFFFFF
FFFFFFFFFF
FFFFFFFFFF
FFFFFFFFFF
FFFE007FFF
FFFE007FFF
FFFE007FFF
FFFE007FFF
FFFE007FFF
07FFFFFFE0
07FFFFFFE0
07FFFFFFE0
07FFFFFFE0
07FFFFFFE0
003FFFFC00
003FFFFC00
003FFFFC00
003FFFFC00
003FFFFC00
ENDCHAR
STARTCHAR 2660
ENCODING 9824
SWIDTH 4800 0
DWIDTH 40 0
BBX 40 40 0 0
BITMAP
00000F8000
00000F8000
00000F8000
00000F8000
00000F8000
0001FFFC00
0001FFFC00
0001FFFC00
0001FFFC00
0001FFFC00
003FFFFFE0
003FFFFFE0
003FFFFFE0
003FFFFFE0
003FFFFFE0
07FFFFFFFF
07FFFFFFFF
07FFFFFFFF
07FFFFFFFF
07FFFFFFFF
07FFFFFFFF
07FFFFFFFF
07FFFFFFFF
07FFFFFFFF
07FFFFFFFF
0001FFFC00
0001FFFC00
0001FFFC00
0001FFFC00
0001FFFC00
003FFFFFE0
003FFFFFE0
003FFFFFE0
003FFFFFE0
003FFFFFE0
0000000000
0000000000
0000000000
0000000000
0000000000
ENDCHAR
STARTCHAR 2663
ENCODING 9827
SWIDTH 4800 0
DWIDTH 40 0
BBX 40 40 0 0
BITMAP
00000F8000
00000F8000
00000F8000
00000F8000
00000F8000
0001FFFC00
0001FFFC00
0001FFFC00
0001FFFC00
0001FFFC00
003E0F83E0
003E0F83E0
003E0F83E0
003E0F83E0
003E0F83E0
07FFFFFFFF
07FFFFFFFF
07FFFFFFFF
07FFFFFFFF
07FFFFFFFF
003E0F83E0
003E0F83E0
003E0F83E0
003E0F83E0
003E0F83E0
00000F8000
00000F8000
00000F8000
00000F8000
00000F8000
00000F8000
00000F8000
00000F8000
00000F8000
00000F8000
0000000000
0000000000
0000000000
0000000000
0000000000
ENDCHAR
STARTCHAR 2665
ENCODING 9829
SWIDTH 4800 0
DWIDTH 40 0
BBX 40 40 0 0
BITMAP
003FF07FE0
003FF07FE0
003FF07FE0
003FF07FE0
003FF07FE0
07FFFFFFFF
07FFFFFFFF
07FFFFFFFF
07FFFFFFFF
07FFFFFFFF
07FFFFFFFF
07FFFFFFFF
07FFFFFFFF
07FFFFFFFF
07FFFFFFFF
07FFFFFFFF
07FFFFFFFF
07FFFFFFFF
07FFFFFFFF
07FFFFFFFF
003FFFFFE0
003FFFFFE0
003FFFFFE0
003FFFFFE0
003FFFFFE0
0001FFFC00
0001FFFC00
0001FFFC00
0001FFFC00
0001FFFC00
00000F8000
00000F8000
00000F8000
00000F8000
00000F8000
0000000000
0000000000
0000000000
0000000000
0000000000
ENDCHAR
STARTCHAR 2666
ENCODING 9830
SWIDTH 4800 0
DWIDTH 40 0
BBX 40 40 0 0
BITMAP
00000F8000
00000F8000
00000F8000
00000F8000
00000F8000
0001FFFC00
0001FFFC00
0001FFFC00
0001FFFC00
0001FFFC00
003FFFFFE0
003FFFFFE0
003FFFFFE0
003FFFFFE0
003FFFFFE0
07FFFFFFFF
07FFFFFFFF
07FFFFFFFF
07FFFFFFFF
07FFFFFFFF
003FFFFFE0
003FFFFFE0
003FFFFFE0
003FFFFFE0
003FFFFFE0
0001FFFC00
0001FFFC00
0001FFFC00
0001FFFC00
0001FFFC00
00000F8000
00000F8000
00000F8000
00000F8000
00000F8000
0000000000
0000000000
0000000000
0000000000
0000000000
ENDCHAR
STARTCHAR 3001
ENCODING 12289
SWIDTH 4800 0
DWIDTH 40 0
BBX 40 40 0 0
BITMAP
0000000000
0000000000
0000000000
0000000000
0000000000
0000000000
0000000000
0000000000
0000000000
0000000000
0000000000
0000000000
0000000000
0000000000
0000000000
0000000000
0000000000
0000000000
0000000000
0000000000
07C0000000
07C0000000
07C0000000
07C0000000
07C0000000
003E000000
003E000000
003E000000
003E000000
003E000000
0001F00000
0001F00000
0001F00000
0001F00000
0001F00000
0000000000
0000000000
0000000000
0000000000
0000000000
ENDCHAR
STARTCHAR 3002
ENCODING 12290
SWIDTH 4800 0
DWIDTH 40 0
BBX 40 40 0 0
BITMAP
0000000000
0000000000
0000000000
0000000000
0000000000
0000000000
0000000000
0000000000
0000000000
0000000000
0000000000
0000000000
0000000000
0000000000
0000000000
0000000000
0000000000
0000000000
0000000000
0000000000
07FFF00000
07FFF00000
07FFF00000
07FFF00000
07FFF00000
07C1F00000
07C1F00000
07C1F00000
07C1F00000
07C1F00000
07FFF00000
07FFF00000
07FFF00000
07FFF00000
07FFF00000
0000000000
0000000000
0000000000
0000000000
0000000000
ENDCHAR
STARTCHAR 300c
ENCODING 12300
SWIDTH 4800 0
DWIDTH 40 0
BBX 40 40 0 0
BITMAP
0001FFFFE0
0001FFFFE0
0001FFFFE0
0001FFFFE0
0001FFFFE0
0001F00000
0001F00000
0001F00000
0001F00000
0001F00000
0001F00000
0001F00000
0001F00000
0001F00000
0001F00000
0001F00000
0001F00000
0001F00000
0001F00000
0001F00000
0000000000
0000000000
0000000000
0000000000
0000000000
0000000000
0000000000
0000000000
0000000000
0000000000
0000000000
0000000000
0000000000
0000000000
0000000000
0000000000
0000000000
0000000000
0000000000
0000000000
ENDCHAR
STARTCHAR 300d
ENCODING 12301
SWIDTH 4800 0
DWIDTH 40 0
BBX 40 40 0 0
BITMAP
0000000000
0000000000
0000000000
0000000000
0000000000
0000000000
0000000000
0000000000
0000000000
0000000000
0000000000
0000000000
0000000000
0000000000
0000000000
00000F8000
00000F8000
00000F8000
00000F8000
00000F8000
00000F8000
00000F8000
00000F8000
00000F8000
00000F8000
00000F8000
00000F8000
00000F8000
00000F8000
00000F8000
07FFFF8000
07FFFF8000
07FFFF8000
07FFFF8000
07FFFF8000
0000000000
0000000000
0000000000
0000000000
0000000000
ENDCHAR
STARTCHAR 300e
ENCODING 12302
SWIDTH 4800 0
DWIDTH 40 0
BBX 40 40 0 0
BITMAP
0001FFFFE0
0001FFFFE0
0001FFFFE0
0001FFFFE0
0001FFFFE0
0001F00000
0001F00000
0001F00000
0001F00000
0001F00000
0001F00000
0001F00000
0001F00000
0001F00000
0001F00000
0001F00000
0001F00000
0001F00000
0001F00000
0001F00000
0000000000
0000000000
0000000000
0000000000
0000000000
0000000000
0000000000
0000000000
0000000000
0000000000
0000000000
0000000000
0000000000
0000000000
0000000000
0000000000
0000000000
0000000000
0000000000
0000000000
ENDCHAR
STARTCHAR 300f
ENCODING 12303
SWIDTH 4800 0
DWIDTH 40 0
BBX 40 40 0 0
BITMAP
0000000000
0000000000
0000000000
0000000000
0000000000
0000000000
0000000000
0000000000
0000000000
0000000000
0000000000
0000000000
0000000000
0000000000
0000000000
0000000000
0000000000
0000000000
0000000000
0000000000
00000F8000
00000F8000
00000F8000
00000F8000
00000F8000
00000F8000
00000F8000
00000F8000
00000F8000
00000F8000
00000F8000
00000F8000
00000F8000
00000F8000
00000F8000
07FFFF8000
07FFFF8000
07FFFF8000
07FFFF8000
07FFFF8000
ENDCHAR
STARTCHAR 301d
ENCODING 12317
SWIDTH 4800 0
DWIDTH 40 0
BBX 40 40 0 0
BITMAP
003E000000
003E000000
003E000000
003E000000
003E000000
F801F00000
F801F00000
F801F00000
F801F00000
F801F00000
07C0000000
07C0000000
07C0000000
07C0000000
07C0000000
0000000000
0000000000
0000000000
0000000000
0000000000
0000000000
0000000000
0000000000
0000000000
0000000000
0000000000
0000000000
0000000000
0000000000
0000000000
0000000000
0000000000
0000000000
0000000000
0000000000
0000000000
0000000000
0000000000
0000000000
0000000000
ENDCHAR
STARTCHAR 3041
ENCODING 12353
SWIDTH 4800 0
DWIDTH 40 0
BBX 40 40 0 0
BITMAP
0000000000
0000000000
0000000000
0000000000
0000000000
003E000000
003E000000
003E000000
003E000000
003E000000
07FFF00000
07FFF00000
07FFF00000
07FFF00000
07FFF00000
003E000000
003E000000
003E000000
003E000000
003E000000
07FFFF8000
07FFFF8000
07FFFF8000
07FFFF8000
07FFFF8000
F801F07C00
F801F07C00
F801F07C00
F801F07C00
F801F07C00
07FE0F8000
07FE0F8000
07FE0F8000
07FE0F8000
07FE0F8000
0000000000
0000000000
0000000000
0000000000
0000000000
ENDCHAR
STARTCHAR 3042
ENCODING 12354
SWIDTH 4800 0
DWIDTH 40 0
BBX 40 40 0 0
BITMAP
003E000000
003E000000
003E000000
003E000000
003E000000
FFFFFFFC00
FFFFFFFC00
FFFFFFFC00
FFFFFFFC00
FFFFFFFC00
003E000000
003E000000
003E000000
003E000000
003E000000
07FFFFFC00
07FFFFFC00
07FFFFFC00
07FFFFFC00
07FFFFFC00
F83E0F83E0
F83E0F83E0
F83E0F83E0
F83E0F83E0
F83E0F83E0
F801F003E0
F801F003E0
F801F003E0
F801F003E0
F801F003E0
07FE007C00
07FE007C00
07FE007C00
07FE007C00
07FE007C00
0000000000
0000000000
0000000000
0000000000
0000000000
ENDCHAR
STARTCHAR 3043
ENCODING 12355
SWIDTH 4800 0
DWIDTH 40 0
BBX 40 40 0 0
BITMAP
0000000000
0000000000
0000000000
0000000000
0000000000
0000000000
0000000000
0000000000
0000000000
0000000000
07C00F8000
07C00F8000
07C00F8000
07C00F8000
07C00F8000
07C0007C00
07C0007C00
07C0007C00
07C0007C00
07C0007C00
07C0007C00
07C0007C00
07C0007C00
07C0007C00
07C0007C00
07C0007C00
07C0007C00
07C0007C00
07C0007C00
07C0007C00
003E000000
003E000000
003E000000
003E000000
003E000000
0000000000
0000000000
0000000000
0000000000
0000000000
ENDCHAR
STARTCHAR 3044
ENCODING 12356
SWIDTH 4800 0
DWIDTH 40 0
BBX 40 40 0 0
BITMAP
F800007C00
F800007C00
F800007C00
F800007C00
F800007C00
F8000003E0
F8000003E0
F8000003E0
F8000003E0
F8000003E0
F8000003E0
F8000003E0
F8000003E0
F8000003E0
F8000003E0
F8000003E0
F8000003E0
F8000003E0
F8000003E0
F8000003E0
F8000003E0
F8000003E0
F8000003E0
F8000003E0
F8000003E0
F801F00000
F801F00000
F801F00000
F801F00000
F801F00000
07FE000000
07FE000000
07FE000000
07FE000000
07FE000000
0000000000
0000000000
0000000000
0000000000
0000000000
ENDCHAR
STARTCHAR 3045
ENCODING 12357
SWIDTH 4800 0
DWIDTH 40 0
BBX 40 40 0 0
BITMAP
0000000000
0000000000
0000000000
0000000000
0000000000
003E000000
003E000000
003E000000
003E000000
003E000000
0000000000
0000000000
0000000000
0000000000
0000000000
07FFFF8000
07FFFF8000
07FFFF8000
07FFFF8000
07FFFF8000
0000007C00
0000007C00
0000007C00
0000007C00
0000007C00
0000007C00
0000007C00
0000007C00
0000007C00
0000007C00
00000F8000
00000F8000
00000F8000
00000F8000
00000F8000
0000000000
0000000000
0000000000
0000000000
0000000000
ENDCHAR
STARTCHAR 3046
ENCODING 12358
SWIDTH 4800 0
DWIDTH 40 0
BBX 40 40 0 0
BITMAP
0001FF8000
0001FF8000
0001FF8000
0001FF8000
0001FF8000
0000000000
0000000000
0000000000
0000000000
0000000000
003FFFFC00
003FFFFC00
003FFFFC00
003FFFFC00
003FFFFC00
07C00003E0
07C00003E0
07C00003E0
07C00003E0
07C00003E0
00000003E0
00000003E0
00000003E0
00000003E0
00000003E0
0000007C00
0000007C00
0000007C00
0000007C00
0000007C00
00000F8000
00000F8000
00000F8000
00000F8000
00000F8000
0000000000
0000000000
0000000000
0000000000
0000000000
ENDCHAR
STARTCHAR 3047
ENCODING 12359
SWIDTH 4800 0
DWIDTH 40 0
BBX 40 40 0 0
BITMAP
0000000000
0000000000
0000000000
0000000000
0000000000
003E000000
003E000000
003E000000
003E000000
003E000000
0000000000
0000000000
0000000000
0000000000
0000000000
07FFFF8000
07FFFF8000
07FFFF8000
07FFFF8000
07FFFF8000
0001F00000
0001F00000
0001F00000
0001F00000
0001F00000
003FF00000
003FF00000
003FF00000
003FF00000
003FF00000
07C00FFC00
07C00FFC00
07C00FFC00
07C00FFC00
07C00FFC00
0000000000
0000000000
0000000000
0000000000
0000000000
ENDCHAR
STARTCHAR 3048
ENCODING 12360
SWIDTH 4800 0
DWIDTH 40 0
BBX 40 40 0 0
BITMAP
0001F00000
0001F00000
0001F00000
0001F00000
0001F00000
0000000000
0000000000
0000000000
0000000000
0000000000
07FFFFFC00
07FFFFFC00
07FFFFFC00
07FFFFFC00
07FFFFFC00
00000F8000
00000F8000
00000F8000
00000F8000
00000F8000
0001F00000
0001F00000
0001F00000
0001F00000
0001F00000
003E0F8000
003E0F8000
003E0F8000
003E0F8000
003E0F8000
07C0007FE0
07C0007FE0
07C0007FE0
07C0007FE0
07C0007FE0
0000000000
0000000000
0000000000
0000000000
0000000000
ENDCHAR
STARTCHAR 3049
ENCODING 12361
SWIDTH 4800 0
DWIDTH 40 0
BBX 40 40 0 0
BITMAP
0000000000
0000000000
0000000000
0000000000
0000000000
003E000000
003E000000
003E000000
003E000000
003E000000
07FFF07C00
07FFF07C00
07FFF07C00
07FFF07C00
07FFF07C00
003E000000
003E000000
003E000000
003E000000
003E000000
07FFFF8000
07FFFF8000
07FFFF8000
07FFFF8000
07FFFF8000
F83E007C00
F83E007C00
F83E007C00
F83E007C00
F83E007C00
07FE0F8000
07FE0F8000
07FE0F8000
07FE0F8000
07FE0F8000
0000000000
0000000000
0000000000
0000000000
0000000000
ENDCHAR
STARTCHAR 304a
ENCODING 12362
SWIDTH 4800 0
DWIDTH 40 0
BBX 40 40 0 0
BITMAP
003E000000
003E000000
003E000000
003E000000
003E000000
FFFFFFFC1F
FFFFFFFC1F
FFFFFFFC1F
FFFFFFFC1F
FFFFFFFC1F
003E00001F
003E00001F
003E00001F
003E00001F
003E00001F
07FFFFFC00
07FFFFFC00
07FFFFFC00
07FFFFFC00
07FFFFFC00
F83E0003E0
F83E0003E0
F83E0003E0
F83E0003E0
F83E0003E0
F83E0003E0
F83E0003E0
F83E0003E0
F83E0003E0
F83E0003E0
07FE007C00
07FE007C00
07FE007C00
07FE007C00
07FE007C00
0000000000
0000000000
0000000000
0000000000
0000000000
ENDCHAR
STARTCHAR 304b
ENCODING 12363
SWIDTH 4800 0
DWIDTH 40 0
BBX 40 40 0 0
BITMAP
003E0003E0
003E0003E0
003E0003E0
003E0003E0
003E0003E0
FFFFFF801F
FFFFFF801F
FFFFFF801F
FFFFFF801F
FFFFFF801F
003E007C1F
003E007C1F
003E007C1F
003E007C1F
003E007C1F
003E007C00
003E007C00
003E007C00
003E007C00
003E007C00
003E007C00
003E007C00
003E007C00
003E007C00
003E007C00
003E007C00
003E007C00
003E007C00
003E007C00
003E007C00
07C00F8000
07C00F8000
07C00F8000
07C00F8000
07C00F8000
0000000000
0000000000
0000000000
0000000000
0000000000
ENDCHAR
STARTCHAR 304d
ENCODING 12365
SWIDTH 4800 0
DWIDTH 40 0
BBX 40 40 0 0
BITMAP
0001F00000
0001F00000
0001F00000
0001F00000
0001F00000
07FFFFFFE0
07FFFFFFE0
07FFFFFFE0
07FFFFFFE0
07FFFFFFE0
00000F8000
00000F8000
00000F8000
00000F8000
00000F8000
07FFFFFFE0
07FFFFFFE0
07FFFFFFE0
07FFFFFFE0
07FFFFFFE0
0000007C00
0000007C00
0000007C00
0000007C00
0000007C00
00000003E0
00000003E0
00000003E0
00000003E0
00000003E0
07FE000000
07FE000000
07FE000000
07FE000000
07FE000000
0001FF8000
0001FF8000
0001FF8000
0001FF8000
0001FF8000
ENDCHAR
STARTCHAR 304f
ENCODING 12367
SWIDTH 4800 0
DWIDTH 40 0
BBX 40 40 0 0
BITMAP
00000FFC00
00000FFC00
00000FFC00
00000FFC00
00000FFC00
0001FF8000
0001FF8000
0001FF8000
0001FF8000
0001FF8000
003FF00000
003FF00000
003FF00000
003FF00000
003FF00000
07FE000000
07FE000000
07FE000000
07FE000000
07FE000000
003FF00000
003FF00000
003FF00000
003FF00000
003FF00000
0001FF8000
0001FF8000
0001FF8000
0001FF8000
0001FF8000
00000FFC00
00000FFC00
00000FFC00
00000FFC00
00000FFC00
0000000000
0000000000
0000000000
0000000000
0000000000
ENDCHAR
STARTCHAR 3051
ENCODING 12369
SWIDTH 4800 0
DWIDTH 40 0
BBX 40 40 0 0
BITMAP
F800007C00
F800007C00
F800007C00
F800007C00
F800007C00
F83FFFFFE0
F83FFFFFE0
F83FFFFFE0
F83FFFFFE0
F83FFFFFE0
F800007C00
F800007C00
F800007C00
F800007C00
F800007C00
F800007C00
F800007C00
F800007C00
F800007C00
F800007C00
F800007C00
F800007C00
F800007C00
F800007C00
F800007C00
F800007C00
F800007C00
F800007C00
F800007C00
F800007C00
07C00F8000
07C00F8000
07C00F8000
07C00F8000
07C00F8000
0000000000
0000000000
0000000000
0000000000
0000000000
ENDCHAR
STARTCHAR 3053
ENCODING 12371
SWIDTH 4800 0
DWIDTH 40 0
BBX 40 40 0 0
BITMAP
0000000000
0000000000
0000000000
0000000000
0000000000
FFFFFFFC00
FFFFFFFC00
FFFFFFFC00
FFFFFFFC00
FFFFFFFC00
00000003E0
00000003E0
00000003E0
00000003E0
00000003E0
0000000000
0000000000
0000000000
0000000000
0000000000
0000000000
0000000000
0000000000
0000000000
0000000000
F800000000
F800000000
F800000000
F800000000
F800000000
07FFFFFFE0
07FFFFFFE0
07FFFFFFE0
07FFFFFFE0
07FFFFFFE0
0000000000
0000000000
0000000000
0000000000
0000000000
ENDCHAR
STARTCHAR 3055
ENCODING 12373
SWIDTH 4800 0
DWIDTH 40 0
BBX 40 40 0 0
BITMAP
003E000000
003E000000
003E000000
003E000000
003E000000
FFFFFFFFE0
FFFFFFFFE0
FFFFFFFFE0
FFFFFFFFE0
FFFFFFFFE0
0001F00000
0001F00000
0001F00000
0001F00000
0001F00000
00000F8000
00000F8000
00000F8000
00000F8000
00000F8000
07C0007C00
07C0007C00
07C0007C00
07C0007C00
07C0007C00
003E000000
003E000000
003E000000
003E000000
003E000000
0001FF8000
0001FF8000
0001FF8000
0001FF8000
0001FF8000
0000000000
0000000000
0000000000
0000000000
0000000000
ENDCHAR
STARTCHAR 3057
ENCODING 12375
SWIDTH 4800 0
DWIDTH 40 0
BBX 40 40 0 0
BITMAP
07C0000000
07C0000000
07C0000000
07C0000000
07C0000000
07C0000000
07C0000000
07C0000000
07C0000000
07C0000000
07C0000000
07C0000000
07C0000000
07C0000000
07C0000000
07C0000000
07C0000000
07C0000000
07C0000000
07C0000000
07C0007C00
07C0007C00
07C0007C00
07C0007C00
07C0007C00
07C0007C00
07C0007C00
07C0007C00
07C0007C00
07C0007C00
003FFF8000
003FFF8000
003FFF8000
003FFF8000
003FFF8000
0000000000
0000000000
0000000000
0000000000
0000000000
ENDCHAR
STARTCHAR 3059
ENCODING 12377
SWIDTH 4800 0
DWIDTH 40 0
BBX 40 40 0 0
BITMAP
00000F8000
00000F8000
00000F8000
00000F8000
00000F8000
FFFFFFFFE0
FFFFFFFFE0
FFFFFFFFE0
FFFFFFFFE0
FFFFFFFFE0
00000F8000
00000F8000
00000F8000
00000F8000
00000F8000
003FFF8000
003FFF8000
003FFF8000
003FFF8000
003FFF8000
07C00F8000
07C00F8000
07C00F8000
07C00F8000
07C00F8000
003FFF8000
003FFF8000
003FFF8000
003FFF8000
003FFF8000
00000F8000
00000F8000
00000F8000
00000F8000
00000F8000
0001F00000
0001F00000
0001F00000
0001F00000
0001F00000
ENDCHAR
STARTCHAR 305b
ENCODING 12379
SWIDTH 4800 0
DWIDTH 40 0
BBX 40 40 0 0
BITMAP
07C0007C00
07C0007C00
07C0007C00
07C0007C00
07C0007C00
07C0007C00
07C0007C00
07C0007C00
07C0007C00
07C0007C00
FFFFFFFFE0
FFFFFFFFE0
FFFFFFFFE0
FFFFFFFFE0
FFFFFFFFE0
07C0007C00
07C0007C00
07C0007C00
07C0007C00
07C0007C00
07C1FF8000
07C1FF8000
07C1FF8000
07C1FF8000
07C1FF8000
07C0000000
07C0000000
07C0000000
07C0000000
07C0000000
003FFFFFE0
003FFFFFE0
003FFFFFE0
003FFFFFE0
003FFFFFE0
0000000000
0000000000
0000000000
0000000000
0000000000
ENDCHAR
STARTCHAR 305d
ENCODING 12381
SWIDTH 4800 0
DWIDTH 40 0
BBX 40 40 0 0
BITMAP
003FFFFC00
003FFFFC00
003FFFFC00
003FFFFC00
003FFFFC00
00000F8000
00000F8000
00000F8000
00000F8000
00000F8000
0001F00000
0001F00000
0001F00000
0001F00000
0001F00000
07FFFFFFE0
07FFFFFFE0
07FFFFFFE0
07FFFFFFE0
07FFFFFFE0
00000F8000
00000F8000
00000F8000
00000F8000
00000F8000
0001F00000
0001F00000
0001F00000
0001F00000
0001F00000
00000FFC00
00000FFC00
00000FFC00
00000FFC00
00000FFC00
0000000000
0000000000
0000000000
0000000000
0000000000
ENDCHAR
STARTCHAR 305f
ENCODING 12383
SWIDTH 4800 0
DWIDTH 40 0
BBX 40 40 0 0
BITMAP
003E000000
003E000000
003E000000
003E000000
003E000000
FFFFFFFC00
FFFFFFFC00
FFFFFFFC00
FFFFFFFC00
FFFFFFFC00
07C0000000
07C0000000
07C0000000
07C0000000
07C0000000
07C1FFFFE0
07C1FFFFE0
07C1FFFFE0
07C1FFFFE0
07C1FFFFE0
F800000000
F800000000
F800000000
F800000000
F800000000
F83E000000
F83E000000
F83E000000
F83E000000
F83E000000
F83FFFFFE0
F83FFFFFE0
F83FFFFFE0
F83FFFFFE0
F83FFFFFE0
0000000000
0000000000
0000000000
0000000000
0000000000
ENDCHAR
STARTCHAR 3061
ENCODING 12385
SWIDTH 4800 0
DWIDTH 40 0
BBX 40 40 0 0
BITMAP
0001F00000
0001F00000
0001F00000
0001F00000
0001F00000
FFFFFFFFE0
FFFFFFFFE0
FFFFFFFFE0
FFFFFFFFE0
FFFFFFFFE0
003E000000
003E000000
003E000000
003E000000
003E000000
07FFFFFC00
07FFFFFC00
07FFFFFC00
07FFFFFC00
07FFFFFC00
00000003E0
00000003E0
00000003E0
00000003E0
00000003E0
00000003E0
00000003E0
00000003E0
00000003E0
00000003E0
FFFFFFFC00
FFFFFFFC00
FFFFFFFC00
FFFFFFFC00
FFFFFFFC00
0000000000
0000000000
0000000000
0000000000
0000000000
ENDCHAR
STARTCHAR 3063
ENCODING 12387
SWIDTH 4800 0
DWIDTH 40 0
BBX 40 40 0 0
BITMAP
0000000000
0000000000
0000000000
0000000000
0000000000
0000000000
0000000000
0000000000
0000000000
0000000000
0000000000
0000000000
0000000000
0000000000
0000000000
FFFFFF8000
FFFFFF8000
FFFFFF8000
FFFFFF8000
FFFFFF8000
0000007C00
0000007C00
0000007C00
0000007C00
0000007C00
0000007C00
0000007C00
0000007C00
0000007C00
0000007C00
0001FF8000
0001FF8000
0001FF8000
0001FF8000
0001FF8000
0000000000
0000000000
0000000000
0000000000
0000000000
ENDCHAR
STARTCHAR 3064
ENCODING 12388
SWIDTH 4800 0
DWIDTH 40 0
BBX 40 40 0 0
BITMAP
F800000000
F800000000
F800000000
F800000000
F800000000
07FFFFFC00
07FFFFFC00
07FFFFFC00
07FFFFFC00
07FFFFFC00
00000003E0
00000003E0
00000003E0
00000003E0
00000003E0
00000003E0
00000003E0
00000003E0
00000003E0
00000003E0
00000003E0
00000003E0
00000003E0
00000003E0
00000003E0
0000007C00
0000007C00
0000007C00
0000007C00
0000007C00
0001FF8000
0001FF8000
0001FF8000
0001FF8000
0001FF8000
0000000000
0000000000
0000000000
0000000000
0000000000
ENDCHAR
STARTCHAR 3066
ENCODING 12390
SWIDTH 4800 0
DWIDTH 40 0
BBX 40 40 0 0
BITMAP
FFFFFFFFE0
FFFFFFFFE0
FFFFFFFFE0
FFFFFFFFE0
FFFFFFFFE0
0000007C00
0000007C00
0000007C00
0000007C00
0000007C00
00000F8000
00000F8000
00000F8000
00000F8000
00000F8000
0001F00000
0001F00000
0001F00000
0001F00000
0001F00000
0001F00000
0001F00000
0001F00000
0001F00000
0001F00000
00000F8000
00000F8000
00000F8000
00000F8000
00000F8000
0000007C00
0000007C00
0000007C00
0000007C00
0000007C00
0000000000
0000000000
0000000000
0000000000
0000000000
ENDCHAR
STARTCHAR 3068
ENCODING 12392
SWIDTH 4800 0
DWIDTH 40 0
BBX 40 40 0 0
BITMAP
003E000000
003E000000
003E000000
003E000000
003E000000
003E0003E0
003E0003E0
003E0003E0
003E0003E0
003E0003E0
003E0FFC00
003E0FFC00
003E0FFC00
003E0FFC00
003E0FFC00
003FF00000
003FF00000
003FF00000
003FF00000
003FF00000
07C0000000
07C0000000
07C0000000
07C0000000
07C0000000
F800000000
F800000000
F800000000
F800000000
F800000000
07FFFFFFE0
07FFFFFFE0
07FFFFFFE0
07FFFFFFE0
07FFFFFFE0
0000000000
0000000000
0000000000
0000000000
0000000000
ENDCHAR
STARTCHAR 306a
ENCODING 12394
SWIDTH 4800 0
DWIDTH 40 0
BBX 40 40 0 0
BITMAP
003E000000
003E000000
003E000000
003E000000
003E000000
FFFFFF83E0
FFFFFF83E0
FFFFFF83E0
FFFFFF83E0
FFFFFF83E0
07C000001F
07C000001F
07C000001F
07C000001F
07C000001F
07C0007C00
07C0007C00
07C0007C00
07C0007C00
07C0007C00
F801FFFC00
F801FFFC00
F801FFFC00
F801FFFC00
F801FFFC00
F83E007FE0
F83E007FE0
F83E007FE0
F83E007FE0
F83E007FE0
0001FFFC00
0001FFFC00
0001FFFC00
0001FFFC00
0001FFFC00
0000000000
0000000000
0000000000
0000000000
0000000000
ENDCHAR
STARTCHAR 306b
ENCODING 12395
SWIDTH 4800 0
DWIDTH 40 0
BBX 40 40 0 0
BITMAP
F801FFFFE0
F801FFFFE0
F801FFFFE0
F801FFFFE0
F801FFFFE0
F800000000
F800000000
F800000000
F800000000
F800000000
F800000000
F800000000
F800000000
F800000000
F800000000
F800000000
F800000000
F800000000
F800000000
F800000000
F800000000
F800000000
F800000000
F800000000
F800000000
F801F00000
F801F00000
F801F00000
F801F00000
F801F00000
FFC1FFFFE0
FFC1FFFFE0
FFC1FFFFE0
FFC1FFFFE0
FFC1FFFFE0
0000000000
0000000000
0000000000
0000000000
0000000000
ENDCHAR
STARTCHAR 306c
ENCODING 12396
SWIDTH 4800 0
DWIDTH 40 0
BBX 40 40 0 0
BITMAP
0000007C00
0000007C00
0000007C00
0000007C00
0000007C00
07C0007C00
07C0007C00
07C0007C00
07C0007C00
07C0007C00
07FFFFFC00
07FFFFFC00
07FFFFFC00
07FFFFFC00
07FFFFFC00
07C00F83E0
07C00F83E0
07C00F83E0
07C00F83E0
07C00F83E0
F83FF003E0
F83FF003E0
F83FF003E0
F83FF003E0
F83FF003E0
F801F07FFF
F801F07FFF
F801F07FFF
F801F07FFF
F801F07FFF
07FE007FE0
07FE007FE0
07FE007FE0
07FE007FE0
07FE007FE0
0000000000
0000000000
0000000000
0000000000
0000000000
ENDCHAR
STARTCHAR 306d
ENCODING 12397
SWIDTH 4800 0
DWIDTH 40 0
BBX 40 40 0 0
BITMAP
003E000000
003E000000
003E000000
003E000000
003E000000
FFFE007C00
FFFE007C00
FFFE007C00
FFFE007C00
FFFE007C00
003E0F83E0
003E0F83E0
003E0F83E0
003E0F83E0
003E0F83E0
003FF003E0
003FF003E0
003FF003E0
003FF003E0
003FF003E0
07FE007FE0
07FE007FE0
07FE007FE0
07FE007FE0
07FE007FE0
F83E0F83FF
F83E0F83FF
F83E0F83FF
F83E0F83FF
F83E0F83FF
003E007FE0
003E007FE0
003E007FE0
003E007FE0
003E007FE0
0000000000
0000000000
0000000000
0000000000
0000000000
ENDCHAR
STARTCHAR 306e
ENCODING 12398
SWIDTH 4800 0
DWIDTH 40 0
BBX 40 40 0 0
BITMAP
003FFF8000
003FFF8000
003FFF8000
003FFF8000
003FFF8000
07C1F07C00
07C1F07C00
07C1F07C00
07C1F07C00
07C1F07C00
F801F003E0
F801F003E0
F801F003E0
F801F003E0
F801F003E0
F801F003E0
F801F003E0
F801F003E0
F801F003E0
F801F003E0
F801F003E0
F801F003E0
F801F003E0
F801F003E0
F801F003E0
F801F003E0
F801F003E0
F801F003E0
F801F003E0
F801F003E0
07FE007C00
07FE007C00
07FE007C00
07FE007C00
07FE007C00
0000000000
0000000000
0000000000
0000000000
0000000000
ENDCHAR
STARTCHAR 306f
ENCODING 12399
SWIDTH 4800 0
DWIDTH 40 0
BBX 40 40 0 0
BITMAP
F800007C00
F800007C00
F800007C00
F800007C00
F800007C00
F801FFFFE0
F801FFFFE0
F801FFFFE0
F801FFFFE0
F801FFFFE0
F800007C00
F800007C00
F800007C00
F800007C00
F800007C00
F800007C00
F800007C00
F800007C00
F800007C00
F800007C00
F801FFFC00
F801FFFC00
F801FFFC00
F801FFFC00
F801FFFC00
F83E007FE0
F83E007FE0
F83E007FE0
F83E007FE0
F83E007FE0
07C1FFFC00
07C1FFFC00
07C1FFFC00
07C1FFFC00
07C1FFFC00
0000000000
0000000000
0000000000
0000000000
0000000000
ENDCHAR
STARTCHAR 3072
ENCODING 12402
SWIDTH 4800 0
DWIDTH 40 0
BBX 40 40 0 0
BITMAP
FFFE000000
FFFE000000
FFFE000000
FFFE000000
FFFE000000
003E007FE0
003E007FE0
003E007FE0
003E007FE0
003E007FE0
07C0007C1F
07C0007C1F
07C0007C1F
07C0007C1F
07C0007C1F
F800007C00
F800007C00
F800007C00
F800007C00
F800007C00
F800007C00
F800007C00
F800007C00
F800007C00
F800007C00
F8000F8000
F8000F8000
F8000F8000
F8000F8000
F8000F8000
07FFF00000
07FFF00000
07FFF00000
07FFF00000
07FFF00000
0000000000
0000000000
0000000000
0000000000
0000000000
ENDCHAR
STARTCHAR 3075
ENCODING 12405
SWIDTH 4800 0
DWIDTH 40 0
BBX 40 40 0 0
BITMAP
003FFF8000
003FFF8000
003FFF8000
003FFF8000
003FFF8000
0000000000
0000000000
0000000000
0000000000
0000000000
0001F00000
0001F00000
0001F00000
0001F00000
0001F00000
07C00F83E0
07C00F83E0
07C00F83E0
07C00F83E0
07C00F83E0
07C00F83E0
07C00F83E0
07C00F83E0
07C00F83E0
07C00F83E0
F8000F83E0
F8000F83E0
F8000F83E0
F8000F83E0
F8000F83E0
003FF00000
003FF00000
003FF00000
003FF00000
003FF00000
0000000000
0000000000
0000000000
0000000000
0000000000
ENDCHAR
STARTCHAR 3078
ENCODING 12408
SWIDTH 4800 0
DWIDTH 40 0
BBX 40 40 0 0
BITMAP
0000000000
0000000000
0000000000
0000000000
0000000000
003E000000
003E000000
003E000000
003E000000
003E000000
07C1F00000
07C1F00000
07C1F00000
07C1F00000
07C1F00000
F8000F8000
F8000F8000
F8000F8000
F8000F8000
F8000F8000
0000007C00
0000007C00
0000007C00
0000007C00
0000007C00
00000003E0
00000003E0
00000003E0
00000003E0
00000003E0
00000003E0
00000003E0
00000003E0
00000003E0
00000003E0
0000000000
0000000000
0000000000
0000000000
0000000000
ENDCHAR
STARTCHAR 307b
ENCODING 12411
SWIDTH 4800 0
DWIDTH 40 0
BBX 40 40 0 0
BITMAP
F801FFFFE0
F801FFFFE0
F801FFFFE0
F801FFFFE0
F801FFFFE0
F800007C00
F800007C00
F800007C00
F800007C00
F800007C00
F801FFFFE0
F801FFFFE0
F801FFFFE0
F801FFFFE0
F801FFFFE0
F800007C00
F800007C00
F800007C00
F800007C00
F800007C00
F801FFFC00
F801FFFC00
F801FFFC00
F801FFFC00
F801FFFC00
F83E007FE0
F83E007FE0
F83E007FE0
F83E007FE0
F83E007FE0
FFC1FFFC00
FFC1FFFC00
FFC1FFFC00
FFC1FFFC00
FFC1FFFC00
0000000000
0000000000
0000000000
0000000000
0000000000
ENDCHAR
STARTCHAR 307e
ENCODING 12414
SWIDTH 4800 0
DWIDTH 40 0
BBX 40 40 0 0
BITMAP
0001F00000
0001F00000
0001F00000
0001F00000
0001F00000
07FFFFFFE0
07FFFFFFE0
07FFFFFFE0
07FFFFFFE0
07FFFFFFE0
0001F00000
0001F00000
0001F00000
0001F00000
0001F00000
07FFFFFFE0
07FFFFFFE0
07FFFFFFE0
07FFFFFFE0
07FFFFFFE0
0001F00000
0001F00000
0001F00000
0001F00000
0001F00000
07FFF00000
07FFF00000
07FFF00000
07FFF00000
07FFF00000
F801FFFC00
F801FFFC00
F801FFFC00
F801FFFC00
F801FFFC00
07FFF003E0
07FFF003E0
07FFF003E0
07FFF003E0
07FFF003E0
ENDCHAR
STARTCHAR 307f
ENCODING 12415
SWIDTH 4800 0
DWIDTH 40 0
BBX 40 40 0 0
BITMAP
07FFF00000
07FFF00000
07FFF00000
07FFF00000
07FFF00000
0001F00000
0001F00000
0001F00000
0001F00000
0001F00000
0001F07C00
0001F07C00
0001F07C00
0001F07C00
0001F07C00
07FFFFFFE0
07FFFFFFE0
07FFFFFFE0
07FFFFFFE0
07FFFFFFE0
F801F07C00
F801F07C00
F801F07C00
F801F07C00
F801F07C00
F801F07C00
F801F07C00
F801F07C00
F801F07C00
F801F07C00
07FE007C00
07FE007C00
07FE007C00
07FE007C00
07FE007C00
0000000000
0000000000
0000000000
0000000000
0000000000
ENDCHAR
STARTCHAR 3080
ENCODING 12416
SWIDTH 4800 0
DWIDTH 40 0
BBX 40 40 0 0
BITMAP
003E000000
003E000000
003E000000
003E000000
003E000000
FFFFFFFC1F
FFFFFFFC1F
FFFFFFFC1F
FFFFFFFC1F
FFFFFFFC1F
003E00001F
003E00001F
003E00001F
003E00001F
003E00001F
07FE000000
07FE000000
07FE000000
07FE000000
07FE000000
F83E000000
F83E000000
F83E000000
F83E000000
F83E000000
07FE0003E0
07FE0003E0
07FE0003E0
07FE0003E0
07FE0003E0
003FFFFFE0
003FFFFFE0
003FFFFFE0
003FFFFFE0
003FFFFFE0
0000000000
0000000000
0000000000
0000000000
0000000000
ENDCHAR
STARTCHAR 3081
ENCODING 12417
SWIDTH 4800 0
DWIDTH 40 0
BBX 40 40 0 0
BITMAP
0000007C00
0000007C00
0000007C00
0000007C00
0000007C00
07C0007C00
07C0007C00
07C0007C00
07C0007C00
07C0007C00
07FFFFFC00
07FFFFFC00
07FFFFFC00
07FFFFFC00
07FFFFFC00
07C00F83E0
07C00F83E0
07C00F83E0
07C00F83E0
07C00F83E0
F83FF003E0
F83FF003E0
F83FF003E0
F83FF003E0
F83FF003E0
F801F003E0
F801F003E0
F801F003E0
F801F003E0
F801F003E0
07FE007C00
07FE007C00
07FE007C00
07FE007C00
07FE007C00
0000000000
0000000000
0000000000
0000000000
0000000000
ENDCHAR
STARTCHAR 3082
ENCODING 12418
SWIDTH 4800 0
DWIDTH 40 0
BBX 40 40 0 0
BITMAP
003E000000
003E000000
003E000000
003E000000
003E000000
FFFFFF8000
FFFFFF8000
FFFFFF8000
FFFFFF8000
FFFFFF8000
003E000000
003E000000
003E000000
003E000000
003E000000
FFFFFF8000
FFFFFF8000
FFFFFF8000
FFFFFF8000
FFFFFF8000
003E0003E0
003E0003E0
003E0003E0
003E0003E0
003E0003E0
003E0003E0
003E0003E0
003E0003E0
003E0003E0
003E0003E0
0001FFFC00
0001FFFC00
0001FFFC00
0001FFFC00
0001FFFC00
0000000000
0000000000
0000000000
0000000000
0000000000
ENDCHAR
STARTCHAR 3083
ENCODING 12419
SWIDTH 4800 0
DWIDTH 40 0
BBX 40 40 0 0
BITMAP
0000000000
0000000000
0000000000
0000000000
0000000000
0000000000
0000000000
0000000000
0000000000
0000000000
07C1FF8000
07C1FF8000
07C1FF8000
07C1FF8000
07C1FF8000
FFFE007C00
FFFE007C00
FFFE007C00
FFFE007C00
FFFE007C00
003E0F8000
003E0F8000
003E0F8000
003E0F8000
003E0F8000
003E000000
003E000000
003E000000
003E000000
003E000000
0001F00000
0001F00000
0001F00000
0001F00000
0001F00000
0000000000
0000000000
0000000000
0000000000
0000000000
ENDCHAR
STARTCHAR 3084
ENCODING 12420
SWIDTH 4800 0
DWIDTH 40 0
BBX 40 40 0 0
BITMAP
07C00F8000
07C00F8000
07C00F8000
07C00F8000
07C00F8000
07C00FFC00
07C00FFC00
07C00FFC00
07C00FFC00
07C00FFC00
003FF003E0
003FF003E0
003FF003E0
003FF003E0
003FF003E0
FFFE0003E0
FFFE0003E0
FFFE0003E0
FFFE0003E0
FFFE0003E0
003E007C00
003E007C00
003E007C00
003E007C00
003E007C00
0001F00000
0001F00000
0001F00000
0001F00000
0001F00000
0001F00000
0001F00000
0001F00000
0001F00000
0001F00000
00000F8000
00000F8000
00000F8000
00000F8000
00000F8000
ENDCHAR
STARTCHAR 3085
ENCODING 12421
SWIDTH 4800 0
DWIDTH 40 0
BBX 40 40 0 0
BITMAP
0000000000
0000000000
0000000000
0000000000
0000000000
0000000000
0000000000
0000000000
0000000000
0000000000
0001F00000
0001F00000
0001F00000
0001F00000
0001F00000
F83FFF8000
F83FFF8000
F83FFF8000
F83FFF8000
F83FFF8000
FFC1F07C00
FFC1F07C00
FFC1F07C00
FFC1F07C00
FFC1F07C00
F801FF8000
F801FF8000
F801FF8000
F801FF8000
F801FF8000
003FF00000
003FF00000
003FF00000
003FF00000
003FF00000
0000000000
0000000000
0000000000
0000000000
0000000000
ENDCHAR
STARTCHAR 3086
ENCODING 12422
SWIDTH 4800 0
DWIDTH 40 0
BBX 40 40 0 0
BITMAP
00000F8000
00000F8000
00000F8000
00000F8000
00000F8000
F801FFFC00
F801FFFC00
F801FFFC00
F801FFFC00
F801FFFC00
F83E0F83E0
F83E0F83E0
F83E0F83E0
F83E0F83E0
F83E0F83E0
FFC00F83E0
FFC00F83E0
FFC00F83E0
FFC00F83E0
FFC00F83E0
FFC00F83E0
FFC00F83E0
FFC00F83E0
FFC00F83E0
FFC00F83E0
F8000FFC00
F8000FFC00
F8000FFC00
F8000FFC00
F8000FFC00
0001FF8000
0001FF8000
0001FF8000
0001FF8000
0001FF8000
0000000000
0000000000
0000000000
0000000000
0000000000
ENDCHAR
STARTCHAR 3087
ENCODING 12423
SWIDTH 4800 0
DWIDTH 40 0
BBX 40 40 0 0
BITMAP
0000000000
0000000000
0000000000
0000000000
0000000000
0000000000
0000000000
0000000000
0000000000
0000000000
003E000000
003E000000
003E000000
003E000000
003E000000
003FFF8000
003FFF8000
003FFF8000
003FFF8000
003FFF8000
003E000000
003E000000
003E000000
003E000000
003E000000
07FFFF8000
07FFFF8000
07FFFF8000
07FFFF8000
07FFFF8000
07FE000000
07FE000000
07FE000000
07FE000000
07FE000000
0000000000
0000000000
0000000000
0000000000
0000000000
ENDCHAR
STARTCHAR 3088
ENCODING 12424
SWIDTH 4800 0
DWIDTH 40 0
BBX 40 40 0 0
BITMAP
00000F8000
00000F8000
00000F8000
00000F8000
00000F8000
00000FFFE0
00000FFFE0
00000FFFE0
00000FFFE0
00000FFFE0
00000F8000
00000F8000
00000F8000
00000F8000
00000F8000
00000F8000
00000F8000
00000F8000
00000F8000
00000F8000
07FFFF8000
07FFFF8000
07FFFF8000
07FFFF8000
07FFFF8000
F8000FFFE0
F8000FFFE0
F8000FFFE0
F8000FFFE0
F8000FFFE0
07FFFF8000
07FFFF8000
07FFFF8000
07FFFF8000
07FFFF8000
0000000000
0000000000
0000000000
0000000000
0000000000
ENDCHAR
STARTCHAR 3089
ENCODING 12425
SWIDTH 4800 0
DWIDTH 40 0
BBX 40 40 0 0
BITMAP
07FE000000
07FE000000
07FE000000
07FE000000
07FE000000
0000000000
0000000000
0000000000
0000000000
0000000000
F801FFFC00
F801FFFC00
F801FFFC00
F801FFFC00
F801FFFC00
F83E0003E0
F83E0003E0
F83E0003E0
F83E0003E0
F83E0003E0
FFC00003E0
FFC00003E0
FFC00003E0
FFC00003E0
FFC00003E0
F8000003E0
F8000003E0
F8000003E0
F8000003E0
F8000003E0
0001FFFC00
0001FFFC00
0001FFFC00
0001FFFC00
0001FFFC00
0000000000
0000000000
0000000000
0000000000
0000000000
ENDCHAR
STARTCHAR 308a
ENCODING 12426
SWIDTH 4800 0
DWIDTH 40 0
BBX 40 40 0 0
BITMAP
07C0007C00
07C0007C00
07C0007C00
07C0007C00
07C0007C00
07C0007C00
07C0007C00
07C0007C00
07C0007C00
07C0007C00
07C0007C00
07C0007C00
07C0007C00
07C0007C00
07C0007C00
07FE007C00
07FE007C00
07FE007C00
07FE007C00
07FE007C00
0000007C00
0000007C00
0000007C00
0000007C00
0000007C00
00000F8000
00000F8000
00000F8000
00000F8000
00000F8000
0001F00000
0001F00000
0001F00000
0001F00000
0001F00000
0000000000
0000000000
0000000000
0000000000
0000000000
ENDCHAR
STARTCHAR 308b
ENCODING 12427
SWIDTH 4800 0
DWIDTH 40 0
BBX 40 40 0 0
BITMAP
07FFFFFC00
07FFFFFC00
07FFFFFC00
07FFFFFC00
07FFFFFC00
00000F8000
00000F8000
00000F8000
00000F8000
00000F8000
0001F00000
0001F00000
0001F00000
0001F00000
0001F00000
003FFFFC00
003FFFFC00
003FFFFC00
003FFFFC00
003FFFFC00
07C00003E0
07C00003E0
07C00003E0
07C00003E0
07C00003E0
0001FF83E0
0001FF83E0
0001FF83E0
0001FF83E0
0001FF83E0
003E007C00
003E007C00
003E007C00
003E007C00
003E007C00
0001FF8000
0001FF8000
0001FF8000
0001FF8000
0001FF8000
ENDCHAR
STARTCHAR 308c
ENCODING 12428
SWIDTH 4800 0
DWIDTH 40 0
BBX 40 40 0 0
BITMAP
003E000000
003E000000
003E000000
003E000000
003E000000
FFFE007FE0
FFFE007FE0
FFFE007FE0
FFFE007FE0
FFFE007FE0
003E0FFC00
003E0FFC00
003E0FFC00
003E0FFC00
003E0FFC00
003FF07C00
003FF07C00
003FF07C00
003FF07C00
003FF07C00
07FE007C00
07FE007C00
07FE007C00
07FE007C00
07FE007C00
F83E007C00
F83E007C00
F83E007C00
F83E007C00
F83E007C00
003E0003E0
003E0003E0
003E0003E0
003E0003E0
003E0003E0
0000000000
0000000000
0000000000
0000000000
0000000000
ENDCHAR
STARTCHAR 308d
ENCODING 12429
SWIDTH 4800 0
DWIDTH 40 0
BBX 40 40 0 0
BITMAP
07FFFFFC00
07FFFFFC00
07FFFFFC00
07FFFFFC00
07FFFFFC00
00000F8000
00000F8000
00000F8000
00000F8000
00000F8000
0001F00000
0001F00000
0001F00000
0001F00000
0001F00000
003E0FFC00
003E0FFC00
003E0FFC00
003E0FFC00
003E0FFC00
07C00003E0
07C00003E0
07C00003E0
07C00003E0
07C00003E0
00000003E0
00000003E0
00000003E0
00000003E0
00000003E0
003E007C00
003E007C00
003E007C00
003E007C00
003E007C00
0001FF8000
0001FF8000
0001FF8000
0001FF8000
0001FF8000
ENDCHAR
STARTCHAR 308f
ENCODING 12431
SWIDTH 4800 0
DWIDTH 40 0
BBX 40 40 0 0
BITMAP
003E000000
003E000000
003E000000
003E000000
003E000000
FFFE007C00
FFFE007C00
FFFE007C00
FFFE007C00
FFFE007C00
003E0F83E0
003E0F83E0
003E0F83E0
003E0F83E0
003E0F83E0
003FF003E0
003FF003E0
003FF003E0
003FF003E0
003FF003E0
07FE0003E0
07FE0003E0
07FE0003E0
07FE0003E0
07FE0003E0
F83E0003E0
F83E0003E0
F83E0003E0
F83E0003E0
F83E0003E0
003E007C00
003E007C00
003E007C00
003E007C00
003E007C00
0000000000
0000000000
0000000000
0000000000
0000000000
ENDCHAR
STARTCHAR 3092
ENCODING 12434
SWIDTH 4800 0
DWIDTH 40 0
BBX 40 40 0 0
BITMAP
0001F00000
0001F00000
0001F00000
0001F00000
0001F00000
FFFFFFFFE0
FFFFFFFFE0
FFFFFFFFE0
FFFFFFFFE0
FFFFFFFFE0
003E000000
003E000000
003E000000
003E000000
003E000000
07FFF07C00
07FFF07C00
07FFF07C00
07FFF07C00
07FFF07C00
F83FFF8000
F83FFF8000
F83FFF8000
F83FFF8000
F83FFF8000
07C00F8000
07C00F8000
07C00F8000
07C00F8000
07C00F8000
07FFFFFFE0
07FFFFFFE0
07FFFFFFE0
07FFFFFFE0
07FFFFFFE0
0000000000
0000000000
0000000000
0000000000
0000000000
ENDCHAR
STARTCHAR 3093
ENCODING 12435
SWIDTH 4800 0
DWIDTH 40 0
BBX 40 40 0 0
BITMAP
0001F00000
0001F00000
0001F00000
0001F00000
0001F00000
003E000000
003E000000
003E000000
003E000000
003E000000
003E000000
003E000000
003E000000
003E000000
003E000000
07FFF00000
07FFF00000
07FFF00000
07FFF00000
07FFF00000
07C00F8000
07C00F8000
07C00F8000
07C00F8000
07C00F8000
F8000F8000
F8000F8000
F8000F8000
F8000F8000
F8000F8000
F800007FE0
F800007FE0
F800007FE0
F800007FE0
F800007FE0
0000000000
0000000000
0000000000
0000000000
0000000000
ENDCHAR
STARTCHAR 309b
ENCODING 12443
SWIDTH 4800 0
DWIDTH 40 0
BBX 40 40 0 0
BITMAP
0001F00000
0001F00000
0001F00000
0001F00000
0001F00000
07C00F8000
07C00F8000
07C00F8000
07C00F8000
07C00F8000
003E000000
003E000000
003E000000
003E000000
003E000000
0000000000
0000000000
0000000000
0000000000
0000000000
0000000000
0000000000
0000000000
0000000000
0000000000
0000000000
0000000000
0000000000
0000000000
0000000000
0000000000
0000000000
0000000000
0000000000
0000000000
0000000000
0000000000
0000000000
0000000000
0000000000
ENDCHAR
STARTCHAR 309c
ENCODING 12444
SWIDTH 4800 0
DWIDTH 40 0
BBX 40 40 0 0
BITMAP
07FFF00000
07FFF00000
07FFF00000
07FFF00000
07FFF00000
07C1F00000
07C1F00000
07C1F00000
07C1F00000
07C1F00000
07FFF00000
07FFF00000
07FFF00000
07FFF00000
07FFF00000
0000000000
0000000000
0000000000
0000000000
0000000000
0000000000
0000000000
0000000000
0000000000
0000000000
0000000000
0000000000
0000000000
0000000000
0000000000
0000000000
0000000000
0000000000
0000000000
0000000000
0000000000
0000000000
0000000000
0000000000
0000000000
ENDCHAR
STARTCHAR 30a1
ENCODING 12449
SWIDTH 4800 0
DWIDTH 40 0
BBX 40 40 0 0
BITMAP
0000000000
0000000000
0000000000
0000000000
0000000000
0000000000
0000000000
0000000000
0000000000
0000000000
003FFFFFE0
003FFFFFE0
003FFFFFE0
003FFFFFE0
003FFFFFE0
00000003E0
00000003E0
00000003E0
00000003E0
00000003E0
00000FFC00
00000FFC00
00000FFC00
00000FFC00
00000FFC00
00000F8000
00000F8000
00000F8000
00000F8000
00000F8000
0001F00000
0001F00000
0001F00000
0001F00000
0001F00000
0000000000
0000000000
0000000000
0000000000
0000000000
ENDCHAR
STARTCHAR 30a2
ENCODING 12450
SWIDTH 4800 0
DWIDTH 40 0
BBX 40 40 0 0
BITMAP
003FFFFFE0
003FFFFFE0
003FFFFFE0
003FFFFFE0
003FFFFFE0
00000003E0
00000003E0
00000003E0
00000003E0
00000003E0
00000F83E0
00000F83E0
00000F83E0
00000F83E0
00000F83E0
00000FFC00
00000FFC00
00000FFC00
00000FFC00
00000FFC00
00000F8000
00000F8000
00000F8000
00000F8000
00000F8000
00000F8000
00000F8000
00000F8000
00000F8000
00000F8000
0001F00000
0001F00000
0001F00000
0001F00000
0001F00000
0000000000
0000000000
0000000000
0000000000
0000000000
ENDCHAR
STARTCHAR 30a3
ENCODING 12451
SWIDTH 4800 0
DWIDTH 40 0
BBX 40 40 0 0
BITMAP
0000000000
0000000000
0000000000
0000000000
0000000000
0000000000
0000000000
0000000000
0000000000
0000000000
0000007C00
0000007C00
0000007C00
0000007C00
0000007C00
00000F8000
00000F8000
00000F8000
00000F8000
00000F8000
0001FF8000
0001FF8000
0001FF8000
0001FF8000
0001FF8000
003E0F8000
003E0F8000
003E0F8000
003E0F8000
003E0F8000
00000F8000
00000F8000
00000F8000
00000F8000
00000F8000
0000000000
0000000000
0000000000
0000000000
0000000000
ENDCHAR
STARTCHAR 30a4
ENCODING 12452
SWIDTH 4800 0
DWIDTH 40 0
BBX 40 40 0 0
BITMAP
00000003E0
00000003E0
00000003E0
00000003E0
00000003E0
0000007C00
0000007C00
0000007C00
0000007C00
0000007C00
00000F8000
00000F8000
00000F8000
00000F8000
00000F8000
0001FF8000
0001FF8000
0001FF8000
0001FF8000
0001FF8000
003E0F8000
003E0F8000
003E0F8000
003E0F8000
003E0F8000
00000F8000
00000F8000
00000F8000
00000F8000
00000F8000
00000F8000
00000F8000
00000F8000
00000F8000
00000F8000
0000000000
0000000000
0000000000
0000000000
0000000000
ENDCHAR
STARTCHAR 30a5
ENCODING 12453
SWIDTH 4800 0
DWIDTH 40 0
BBX 40 40 0 0
BITMAP
0000000000
0000000000
0000000000
0000000000
0000000000
0000000000
0000000000
0000000000
0000000000
0000000000
00000F8000
00000F8000
00000F8000
00000F8000
00000F8000
003FFFFFE0
003FFFFFE0
003FFFFFE0
003FFFFFE0
003FFFFFE0
003E0003E0
003E0003E0
003E0003E0
003E0003E0
003E0003E0
00000003E0
00000003E0
00000003E0
00000003E0
00000003E0
00000FFC00
00000FFC00
00000FFC00
00000FFC00
00000FFC00
0000000000
0000000000
0000000000
0000000000
0000000000
ENDCHAR
STARTCHAR 30a6
ENCODING 12454
SWIDTH 4800 0
DWIDTH 40 0
BBX 40 40 0 0
BITMAP
00000F8000
00000F8000
00000F8000
00000F8000
00000F8000
003FFFFFE0
003FFFFFE0
003FFFFFE0
003FFFFFE0
003FFFFFE0
003E0003E0
003E0003E0
003E0003E0
003E0003E0
003E0003E0
003E0003E0
003E0003E0
003E0003E0
003E0003E0
003E0003E0
00000003E0
00000003E0
00000003E0
00000003E0
00000003E0
0000007C00
0000007C00
0000007C00
0000007C00
0000007C00
00000F8000
00000F8000
00000F8000
00000F8000
00000F8000
0000000000
0000000000
0000000000
0000000000
0000000000
ENDCHAR
STARTCHAR 30a7
ENCODING 12455
SWIDTH 4800 0
DWIDTH 40 0
BBX 40 40 0 0
BITMAP
0000000000
0000000000
0000000000
0000000000
0000000000
0000000000
0000000000
0000000000
0000000000
0000000000
0000000000
0000000000
0000000000
0000000000
0000000000
003FFFFFE0
003FFFFFE0
003FFFFFE0
003FFFFFE0
003FFFFFE0
00000F8000
00000F8000
00000F8000
00000F8000
00000F8000
00000F8000
00000F8000
00000F8000
00000F8000
00000F8000
003FFFFFE0
003FFFFFE0
003FFFFFE0
003FFFFFE0
003FFFFFE0
0000000000
0000000000
0000000000
0000000000
0000000000
ENDCHAR
STARTCHAR 30a8
ENCODING 12456
SWIDTH 4800 0
DWIDTH 40 0
BBX 40 40 0 0
BITMAP
0000000000
0000000000
0000000000
0000000000
0000000000
003FFFFFE0
003FFFFFE0
003FFFFFE0
003FFFFFE0
003FFFFFE0
00000F8000
00000F8000
00000F8000
00000F8000
00000F8000
00000F8000
00000F8000
00000F8000
00000F8000
00000F8000
00000F8000
00000F8000
00000F8000
00000F8000
00000F8000
00000F8000
00000F8000
00000F8000
00000F8000
00000F8000
003FFFFFE0
003FFFFFE0
003FFFFFE0
003FFFFFE0
003FFFFFE0
0000000000
0000000000
0000000000
0000000000
0000000000
ENDCHAR
STARTCHAR 30a9
ENCODING 12457
SWIDTH 4800 0
DWIDTH 40 0
BBX 40 40 0 0
BITMAP
0000000000
0000000000
0000000000
0000000000
0000000000
0000000000
0000000000
0000000000
0000000000
0000000000
0000007C00
0000007C00
0000007C00
0000007C00
0000007C00
003FFFFFE0
003FFFFFE0
003FFFFFE0
003FFFFFE0
003FFFFFE0
00000FFC00
00000FFC00
00000FFC00
00000FFC00
00000FFC00
0001F07C00
0001F07C00
0001F07C00
0001F07C00
0001F07C00
003E007C00
003E007C00
003E007C00
003E007C00
003E007C00
0000000000
0000000000
0000000000
0000000000
0000000000
ENDCHAR
STARTCHAR 30aa
ENCODING 12458
SWIDTH 4800 0
DWIDTH 40 0
BBX 40 40 0 0
BITMAP
0000007C00
0000007C00
0000007C00
0000007C00
0000007C00
003FFFFFE0
003FFFFFE0
003FFFFFE0
003FFFFFE0
003FFFFFE0
0000007C00
0000007C00
0000007C00
0000007C00
0000007C00
00000FFC00
00000FFC00
00000FFC00
00000FFC00
00000FFC00
0001F07C00
0001F07C00
0001F07C00
0001F07C00
0001F07C00
003E007C00
003E007C00
003E007C00
003E007C00
003E007C00
0000007C00
0000007C00
0000007C00
0000007C00
0000007C00
0000000000
0000000000
0000000000
0000000000
0000000000
ENDCHAR
STARTCHAR 30ab
ENCODING 12459
SWIDTH 4800 0
DWIDTH 40 0
BBX 40 40 0 0
BITMAP
0001F00000
0001F00000
0001F00000
0001F00000
0001F00000
003FFFFFE0
003FFFFFE0
003FFFFFE0
003FFFFFE0
003FFFFFE0
0001F003E0
0001F003E0
0001F003E0
0001F003E0
0001F003E0
0001F003E0
0001F003E0
0001F003E0
0001F003E0
0001F003E0
0001F003E0
0001F003E0
0001F003E0
0001F003E0
0001F003E0
0001F003E0
0001F003E0
0001F003E0
0001F003E0
0001F003E0
003E007C00
003E007C00
003E007C00
003E007C00
003E007C00
0000000000
0000000000
0000000000
0000000000
0000000000
ENDCHAR
STARTCHAR 30ad
ENCODING 12461
SWIDTH 4800 0
DWIDTH 40 0
BBX 40 40 0 0
BITMAP
00000F8000
00000F8000
00000F8000
00000F8000
00000F8000
003FFFFFE0
003FFFFFE0
003FFFFFE0
003FFFFFE0
003FFFFFE0
00000F8000
00000F8000
00000F8000
00000F8000
00000F8000
003FFFFFE0
003FFFFFE0
003FFFFFE0
003FFFFFE0
003FFFFFE0
00000F8000
00000F8000
00000F8000
00000F8000
00000F8000
00000F8000
00000F8000
00000F8000
00000F8000
00000F8000
00000F8000
00000F8000
00000F8000
00000F8000
00000F8000
0000000000
0000000000
0000000000
0000000000
0000000000
ENDCHAR
STARTCHAR 30af
ENCODING 12463
SWIDTH 4800 0
DWIDTH 40 0
BBX 40 40 0 0
BITMAP
0000000000
0000000000
0000000000
0000000000
0000000000
0001FFFFE0
0001FFFFE0
0001FFFFE0
0001FFFFE0
0001FFFFE0
0001F003E0
0001F003E0
0001F003E0
0001F003E0
0001F003E0
003E0003E0
003E0003E0
003E0003E0
003E0003E0
003E0003E0
00000003E0
00000003E0
00000003E0
00000003E0
00000003E0
0000007C00
0000007C00
0000007C00
0000007C00
0000007C00
0001FF8000
0001FF8000
0001FF8000
0001FF8000
0001FF8000
0000000000
0000000000
0000000000
0000000000
0000000000
ENDCHAR
STARTCHAR 30b1
ENCODING 12465
SWIDTH 4800 0
DWIDTH 40 0
BBX 40 40 0 0
BITMAP
0001F00000
0001F00000
0001F00000
0001F00000
0001F00000
0001FFFFE0
0001FFFFE0
0001FFFFE0
0001FFFFE0
0001FFFFE0
003E007C00
003E007C00
003E007C00
003E007C00
003E007C00
0000007C00
0000007C00
0000007C00
0000007C00
0000007C00
0000007C00
0000007C00
0000007C00
0000007C00
0000007C00
0000007C00
0000007C00
0000007C00
0000007C00
0000007C00
00000F8000
00000F8000
00000F8000
00000F8000
00000F8000
0000000000
0000000000
0000000000
0000000000
0000000000
ENDCHAR
STARTCHAR 30b3
ENCODING 12467
SWIDTH 4800 0
DWIDTH 40 0
BBX 40 40 0 0
BITMAP
0000000000
0000000000
0000000000
0000000000
0000000000
003FFFFFE0
003FFFFFE0
003FFFFFE0
003FFFFFE0
003FFFFFE0
00000003E0
00000003E0
00000003E0
00000003E0
00000003E0
00000003E0
00000003E0
00000003E0
00000003E0
00000003E0
00000003E0
00000003E0
00000003E0
00000003E0
00000003E0
00000003E0
00000003E0
00000003E0
00000003E0
00000003E0
003FFFFFE0
003FFFFFE0
003FFFFFE0
003FFFFFE0
003FFFFFE0
0000000000
0000000000
0000000000
0000000000
0000000000
ENDCHAR
STARTCHAR 30b5
ENCODING 12469
SWIDTH 4800 0
DWIDTH 40 0
BBX 40 40 0 0
BITMAP
0001F07C00
0001F07C00
0001F07C00
0001F07C00
0001F07C00
003FFFFFE0
003FFFFFE0
003FFFFFE0
003FFFFFE0
003FFFFFE0
0001F07C00
0001F07C00
0001F07C00
0001F07C00
0001F07C00
0001F07C00
0001F07C00
0001F07C00
0001F07C00
0001F07C00
0000007C00
0000007C00
0000007C00
0000007C00
0000007C00
00000F8000
00000F8000
00000F8000
00000F8000
00000F8000
0001F00000
0001F00000
0001F00000
0001F00000
0001F00000
0000000000
0000000000
0000000000
0000000000
0000000000
ENDCHAR
STARTCHAR 30b7
ENCODING 12471
SWIDTH 4800 0
DWIDTH 40 0
BBX 40 40 0 0
BITMAP
0000000000
0000000000
0000000000
0000000000
0000000000
003FF00000
003FF00000
003FF00000
003FF00000
003FF00000
00000003E0
00000003E0
00000003E0
00000003E0
00000003E0
003FF003E0
003FF003E0
003FF003E0
003FF003E0
003FF003E0
00000003E0
00000003E0
00000003E0
00000003E0
00000003E0
0000007C00
0000007C00
0000007C00
0000007C00
0000007C00
003FFF8000
003FFF8000
003FFF8000
003FFF8000
003FFF8000
0000000000
0000000000
0000000000
0000000000
0000000000
ENDCHAR
STARTCHAR 30b9
ENCODING 12473
SWIDTH 4800 0
DWIDTH 40 0
BBX 40 40 0 0
BITMAP
0000000000
0000000000
0000000000
0000000000
0000000000
003FFFFFE0
003FFFFFE0
003FFFFFE0
003FFFFFE0
003FFFFFE0
00000003E0
00000003E0
00000003E0
00000003E0
00000003E0
0000007C00
0000007C00
0000007C00
0000007C00
0000007C00
00000F8000
00000F8000
00000F8000
00000F8000
00000F8000
0001F07C00
0001F07C00
0001F07C00
0001F07C00
0001F07C00
003E0003E0
003E0003E0
003E0003E0
003E0003E0
003E0003E0
0000000000
0000000000
0000000000
0000000000
0000000000
ENDCHAR
STARTCHAR 30bb
ENCODING 12475
SWIDTH 4800 0
DWIDTH 40 0
BBX 40 40 0 0
BITMAP
0001F00000
0001F00000
0001F00000
0001F00000
0001F00000
003FFFFFE0
003FFFFFE0
003FFFFFE0
003FFFFFE0
003FFFFFE0
0001F003E0
0001F003E0
0001F003E0
0001F003E0
0001F003E0
0001F07C00
0001F07C00
0001F07C00
0001F07C00
0001F07C00
0001F00000
0001F00000
0001F00000
0001F00000
0001F00000
0001F00000
0001F00000
0001F00000
0001F00000
0001F00000
00000FFFE0
00000FFFE0
00000FFFE0
00000FFFE0
00000FFFE0
0000000000
0000000000
0000000000
0000000000
0000000000
ENDCHAR
STARTCHAR 30bd
ENCODING 12477
SWIDTH 4800 0
DWIDTH 40 0
BBX 40 40 0 0
BITMAP
0000000000
0000000000
0000000000
0000000000
0000000000
003E0003E0
003E0003E0
003E0003E0
003E0003E0
003E0003E0
003E0003E0
003E0003E0
003E0003E0
003E0003E0
003E0003E0
0001F003E0
0001F003E0
0001F003E0
0001F003E0
0001F003E0
00000003E0
00000003E0
00000003E0
00000003E0
00000003E0
0000007C00
0000007C00
0000007C00
0000007C00
0000007C00
0001FF8000
0001FF8000
0001FF8000
0001FF8000
0001FF8000
0000000000
0000000000
0000000000
0000000000
0000000000
ENDCHAR
STARTCHAR 30bf
ENCODING 12479
SWIDTH 4800 0
DWIDTH 40 0
BBX 40 40 0 0
BITMAP
0000000000
0000000000
0000000000
0000000000
0000000000
0001FFFFE0
0001FFFFE0
0001FFFFE0
0001FFFFE0
0001FFFFE0
0001F003E0
0001F003E0
0001F003E0
0001F003E0
0001F003E0
003E0F83E0
003E0F83E0
003E0F83E0
003E0F83E0
003E0F83E0
0000007FE0
0000007FE0
0000007FE0
0000007FE0
0000007FE0
0000007C00
0000007C00
0000007C00
0000007C00
0000007C00
0001FF8000
0001FF8000
0001FF8000
0001FF8000
0001FF8000
0000000000
0000000000
0000000000
0000000000
0000000000
ENDCHAR
STARTCHAR 30c1
ENCODING 12481
SWIDTH 4800 0
DWIDTH 40 0
BBX 40 40 0 0
BITMAP
0000007C00
0000007C00
0000007C00
0000007C00
0000007C00
003FFF8000
003FFF8000
003FFF8000
003FFF8000
003FFF8000
00000F8000
00000F8000
00000F8000
00000F8000
00000F8000
003FFFFFE0
003FFFFFE0
003FFFFFE0
003FFFFFE0
003FFFFFE0
00000F8000
00000F8000
00000F8000
00000F8000
00000F8000
00000F8000
00000F8000
00000F8000
00000F8000
00000F8000
0001F00000
0001F00000
0001F00000
0001F00000
0001F00000
0000000000
0000000000
0000000000
0000000000
0000000000
ENDCHAR
STARTCHAR 30c3
ENCODING 12483
SWIDTH 4800 0
DWIDTH 40 0
BBX 40 40 0 0
BITMAP
0000000000
0000000000
0000000000
0000000000
0000000000
0000000000
0000000000
0000000000
0000000000
0000000000
0000000000
0000000000
0000000000
0000000000
0000000000
003E0F83E0
003E0F83E0
003E0F83E0
003E0F83E0
003E0F83E0
003E0F83E0
003E0F83E0
003E0F83E0
003E0F83E0
003E0F83E0
00000003E0
00000003E0
00000003E0
00000003E0
00000003E0
00000FFC00
00000FFC00
00000FFC00
00000FFC00
00000FFC00
0000000000
0000000000
0000000000
0000000000
0000000000
ENDCHAR
STARTCHAR 30c4
ENCODING 12484
SWIDTH 4800 0
DWIDTH 40 0
BBX 40 40 0 0
BITMAP
0000000000
0000000000
0000000000
0000000000
0000000000
003E0F83E0
003E0F83E0
003E0F83E0
003E0F83E0
003E0F83E0
003E0F83E0
003E0F83E0
003E0F83E0
003E0F83E0
003E0F83E0
003E0F83E0
003E0F83E0
003E0F83E0
003E0F83E0
003E0F83E0
00000003E0
00000003E0
00000003E0
00000003E0
00000003E0
0000007C00
0000007C00
0000007C00
0000007C00
0000007C00
00000F8000
00000F8000
00000F8000
00000F8000
00000F8000
0000000000
0000000000
0000000000
0000000000
0000000000
ENDCHAR
STARTCHAR 30c6
ENCODING 12486
SWIDTH 4800 0
DWIDTH 40 0
BBX 40 40 0 0
BITMAP
0001FFFC00
0001FFFC00
0001FFFC00
0001FFFC00
0001FFFC00
0000000000
0000000000
0000000000
0000000000
0000000000
003FFFFFE0
003FFFFFE0
003FFFFFE0
003FFFFFE0
003FFFFFE0
00000F8000
00000F8000
00000F8000
00000F8000
00000F8000
00000F8000
00000F8000
00000F8000
00000F8000
00000F8000
00000F8000
00000F8000
00000F8000
00000F8000
00000F8000
0001F00000
0001F00000
0001F00000
0001F00000
0001F00000
0000000000
0000000000
0000000000
0000000000
0000000000
ENDCHAR
STARTCHAR 30c8
ENCODING 12488
SWIDTH 4800 0
DWIDTH 40 0
BBX 40 40 0 0
BITMAP
0001F00000
0001F00000
0001F00000
0001F00000
0001F00000
0001F00000
0001F00000
0001F00000
0001F00000
0001F00000
0001F00000
0001F00000
0001F00000
0001F00000
0001F00000
0001FF8000
0001FF8000
0001FF8000
0001FF8000
0001FF8000
0001F07C00
0001F07C00
0001F07C00
0001F07C00
0001F07C00
0001F00000
0001F00000
0001F00000
0001F00000
0001F00000
0001F00000
0001F00000
0001F00000
0001F00000
0001F00000
0000000000
0000000000
0000000000
0000000000
0000000000
ENDCHAR
STARTCHAR 30ca
ENCODING 12490
SWIDTH 4800 0
DWIDTH 40 0
BBX 40 40 0 0
BITMAP
00000F8000
00000F8000
00000F8000
00000F8000
00000F8000
00000F8000
00000F8000
00000F8000
00000F8000
00000F8000
003FFFFFE0
003FFFFFE0
003FFFFFE0
003FFFFFE0
003FFFFFE0
00000F8000
00000F8000
00000F8000
00000F8000
00000F8000
00000F8000
00000F8000
00000F8000
00000F8000
00000F8000
0001F00000
0001F00000
0001F00000
0001F00000
0001F00000
003E000000
003E000000
003E000000
003E000000
003E000000
0000000000
0000000000
0000000000
0000000000
0000000000
ENDCHAR
STARTCHAR 30cb
ENCODING 12491
SWIDTH 4800 0
DWIDTH 40 0
BBX 40 40 0 0
BITMAP
0000000000
0000000000
0000000000
0000000000
0000000000
0001FFFC00
0001FFFC00
0001FFFC00
0001FFFC00
0001FFFC00
0000000000
0000000000
0000000000
0000000000
0000000000
0000000000
0000000000
0000000000
0000000000
0000000000
0000000000
0000000000
0000000000
0000000000
0000000000
0000000000
0000000000
0000000000
0000000000
0000000000
003FFFFFE0
003FFFFFE0
003FFFFFE0
003FFFFFE0
003FFFFFE0
0000000000
0000000000
0000000000
0000000000
0000000000
ENDCHAR
STARTCHAR 30cc
ENCODING 12492
SWIDTH 4800 0
DWIDTH 40 0
BBX 40 40 0 0
BITMAP
0000000000
0000000000
0000000000
0000000000
0000000000
003FFFFFE0
003FFFFFE0
003FFFFFE0
003FFFFFE0
003FFFFFE0
00000003E0
00000003E0
00000003E0
00000003E0
00000003E0
0001F07C00
0001F07C00
0001F07C00
0001F07C00
0001F07C00
00000F8000
00000F8000
00000F8000
00000F8000
00000F8000
0001F07C00
0001F07C00
0001F07C00
0001F07C00
0001F07C00
003E000000
003E000000
003E000000
003E000000
003E000000
0000000000
0000000000
0000000000
0000000000
0000000000
ENDCHAR
STARTCHAR 30cd
ENCODING 12493
SWIDTH 4800 0
DWIDTH 40 0
BBX 40 40 0 0
BITMAP
00000F8000
00000F8000
00000F8000
00000F8000
00000F8000
003FFFFFE0
003FFFFFE0
003FFFFFE0
003FFFFFE0
003FFFFFE0
0000007C00
0000007C00
0000007C00
0000007C00
0000007C00
00000F8000
00000F8000
00000F8000
00000F8000
00000F8000
0001FFFC00
0001FFFC00
0001FFFC00
0001FFFC00
0001FFFC00
003E0F83E0
003E0F83E0
003E0F83E0
003E0F83E0
003E0F83E0
00000F8000
00000F8000
00000F8000
00000F8000
00000F8000
0000000000
0000000000
0000000000
0000000000
0000000000
ENDCHAR
STARTCHAR 30ce
ENCODING 12494
SWIDTH 4800 0
DWIDTH 40 0
BBX 40 40 0 0
BITMAP
0000007C00
0000007C00
0000007C00
0000007C00
0000007C00
0000007C00
0000007C00
0000007C00
0000007C00
0000007C00
0000007C00
0000007C00
0000007C00
0000007C00
0000007C00
0000007C00
0000007C00
0000007C00
0000007C00
0000007C00
0000007C00
0000007C00
0000007C00
0000007C00
0000007C00
00000F8000
00000F8000
00000F8000
00000F8000
00000F8000
0001F00000
0001F00000
0001F00000
0001F00000
0001F00000
0000000000
0000000000
0000000000
0000000000
0000000000
ENDCHAR
STARTCHAR 30cf
ENCODING 12495
SWIDTH 4800 0
DWIDTH 40 0
BBX 40 40 0 0
BITMAP
0000000000
0000000000
0000000000
0000000000
0000000000
00000F8000
00000F8000
00000F8000
00000F8000
00000F8000
0000007C00
0000007C00
0000007C00
0000007C00
0000007C00
003E0003E0
003E0003E0
003E0003E0
003E0003E0
003E0003E0
003E0003E0
003E0003E0
003E0003E0
003E0003E0
003E0003E0
003E0003E0
003E0003E0
003E0003E0
003E0003E0
003E0003E0
003E0003E0
003E0003E0
003E0003E0
003E0003E0
003E0003E0
0000000000
0000000000
0000000000
0000000000
0000000000
ENDCHAR
STARTCHAR 30d2
ENCODING 12498
SWIDTH 4800 0
DWIDTH 40 0
BBX 40 40 0 0
BITMAP
003E000000
003E000000
003E000000
003E000000
003E000000
003E000000
003E000000
003E000000
003E000000
003E000000
003FFFFFE0
003FFFFFE0
003FFFFFE0
003FFFFFE0
003FFFFFE0
003E000000
003E000000
003E000000
003E000000
003E000000
003E000000
003E000000
003E000000
003E000000
003E000000
003E000000
003E000000
003E000000
003E000000
003E000000
0001FFFFE0
0001FFFFE0
0001FFFFE0
0001FFFFE0
0001FFFFE0
0000000000
0000000000
0000000000
0000000000
0000000000
ENDCHAR
STARTCHAR 30d5
ENCODING 12501
SWIDTH 4800 0
DWIDTH 40 0
BBX 40 40 0 0
BITMAP
0000000000
0000000000
0000000000
0000000000
0000000000
003FFFFFE0
003FFFFFE0
003FFFFFE0
003FFFFFE0
003FFFFFE0
00000003E0
00000003E0
00000003E0
00000003E0
00000003E0
00000003E0
00000003E0
00000003E0
00000003E0
00000003E0
00000003E0
00000003E0
00000003E0
00000003E0
00000003E0
0000007C00
0000007C00
0000007C00
0000007C00
0000007C00
0001FF8000
0001FF8000
0001FF8000
0001FF8000
0001FF8000
0000000000
0000000000
0000000000
0000000000
0000000000
ENDCHAR
STARTCHAR 30d8
ENCODING 12504
SWIDTH 4800 0
DWIDTH 40 0
BBX 40 40 0 0
BITMAP
0000000000
0000000000
0000000000
0000000000
0000000000
0001F00000
0001F00000
0001F00000
0001F00000
0001F00000
003E0F8000
003E0F8000
003E0F8000
003E0F8000
003E0F8000
0000007C00
0000007C00
0000007C00
0000007C00
0000007C00
00000003E0
00000003E0
00000003E0
00000003E0
00000003E0
00000003E0
00000003E0
00000003E0
00000003E0
00000003E0
0000000000
0000000000
0000000000
0000000000
0000000000
0000000000
0000000000
0000000000
0000000000
0000000000
ENDCHAR
STARTCHAR 30db
ENCODING 12507
SWIDTH 4800 0
DWIDTH 40 0
BBX 40 40 0 0
BITMAP
00000F8000
00000F8000
00000F8000
00000F8000
00000F8000
003FFFFFE0
003FFFFFE0
003FFFFFE0
003FFFFFE0
003FFFFFE0
00000F8000
00000F8000
00000F8000
00000F8000
00000F8000
00000F8000
00000F8000
00000F8000
00000F8000
00000F8000
003E0F83E0
003E0F83E0
003E0F83E0
003E0F83E0
003E0F83E0
003E0F83E0
003E0F83E0
003E0F83E0
003E0F83E0
003E0F83E0
00000F8000
00000F8000
00000F8000
00000F8000
00000F8000
0000000000
0000000000
0000000000
0000000000
0000000000
ENDCHAR
STARTCHAR 30de
ENCODING 12510
SWIDTH 4800 0
DWIDTH 40 0
BBX 40 40 0 0
BITMAP
0000000000
0000000000
0000000000
0000000000
0000000000
003FFFFFE0
003FFFFFE0
003FFFFFE0
003FFFFFE0
003FFFFFE0
00000003E0
00000003E0
00000003E0
00000003E0
00000003E0
00000003E0
00000003E0
00000003E0
00000003E0
00000003E0
0001F07C00
0001F07C00
0001F07C00
0001F07C00
0001F07C00
00000F8000
00000F8000
00000F8000
00000F8000
00000F8000
0000007C00
0000007C00
0000007C00
0000007C00
0000007C00
0000000000
0000000000
0000000000
0000000000
0000000000
ENDCHAR
STARTCHAR 30df
ENCODING 12511
SWIDTH 4800 0
DWIDTH 40 0
BBX 40 40 0 0
BITMAP
0000000000
0000000000
0000000000
0000000000
0000000000
0001FFFC00
0001FFFC00
0001FFFC00
0001FFFC00
0001FFFC00
0000000000
0000000000
0000000000
0000000000
0000000000
0001FFFC00
0001FFFC00
0001FFFC00
0001FFFC00
0001FFFC00
0000000000
0000000000
0000000000
0000000000
0000000000
003FFFFC00
003FFFFC00
003FFFFC00
003FFFFC00
003FFFFC00
00000003E0
00000003E0
00000003E0
00000003E0
00000003E0
0000000000
0000000000
0000000000
0000000000
0000000000
ENDCHAR
STARTCHAR 30e0
ENCODING 12512
SWIDTH 4800 0
DWIDTH 40 0
BBX 40 40 0 0
BITMAP
0000000000
0000000000
0000000000
0000000000
0000000000
00000F8000
00000F8000
00000F8000
00000F8000
00000F8000
0001F00000
0001F00000
0001F00000
0001F00000
0001F00000
003E000000
003E000000
003E000000
003E000000
003E000000
003E0003E0
003E0003E0
003E0003E0
003E0003E0
003E0003E0
003FFFFFE0
003FFFFFE0
003FFFFFE0
003FFFFFE0
003FFFFFE0
00000003E0
00000003E0
00000003E0
00000003E0
00000003E0
0000000000
0000000000
0000000000
0000000000
0000000000
ENDCHAR
STARTCHAR 30e1
ENCODING 12513
SWIDTH 4800 0
DWIDTH 40 0
BBX 40 40 0 0
BITMAP
0000000000
0000000000
0000000000
0000000000
0000000000
00000003E0
00000003E0
00000003E0
00000003E0
00000003E0
00000003E0
00000003E0
00000003E0
00000003E0
00000003E0
0001F07C00
0001F07C00
0001F07C00
0001F07C00
0001F07C00
00000F8000
00000F8000
00000F8000
00000F8000
00000F8000
0001F07C00
0001F07C00
0001F07C00
0001F07C00
0001F07C00
003E000000
003E000000
003E000000
003E000000
003E000000
0000000000
0000000000
0000000000
0000000000
0000000000
ENDCHAR
STARTCHAR 30e2
ENCODING 12514
SWIDTH 4800 0
DWIDTH 40 0
BBX 40 40 0 0
BITMAP
0000000000
0000000000
0000000000
0000000000
0000000000
003FFFFFE0
003FFFFFE0
003FFFFFE0
003FFFFFE0
003FFFFFE0
0001F00000
0001F00000
0001F00000
0001F00000
0001F00000
003FFFFFE0
003FFFFFE0
003FFFFFE0
003FFFFFE0
003FFFFFE0
0001F00000
0001F00000
0001F00000
0001F00000
0001F00000
0001F00000
0001F00000
0001F00000
0001F00000
0001F00000
00000FFFE0
00000FFFE0
00000FFFE0
00000FFFE0
00000FFFE0
0000000000
0000000000
0000000000
0000000000
0000000000
ENDCHAR
STARTCHAR 30e3
ENCODING 12515
SWIDTH 4800 0
DWIDTH 40 0
BBX 40 40 0 0
BITMAP
0000000000
0000000000
0000000000
0000000000
0000000000
0000000000
0000000000
0000000000
0000000000
0000000000
0001F00000
0001F00000
0001F00000
0001F00000
0001F00000
003FFFFFE0
003FFFFFE0
003FFFFFE0
003FFFFFE0
003FFFFFE0
0001F003E0
0001F003E0
0001F003E0
0001F003E0
0001F003E0
0001F07C00
0001F07C00
0001F07C00
0001F07C00
0001F07C00
0001F00000
0001F00000
0001F00000
0001F00000
0001F00000
0000000000
0000000000
0000000000
0000000000
0000000000
ENDCHAR
STARTCHAR 30e4
ENCODING 12516
SWIDTH 4800 0
DWIDTH 40 0
BBX 40 40 0 0
BITMAP
0001F00000
0001F00000
0001F00000
0001F00000
0001F00000
0001F00000
0001F00000
0001F00000
0001F00000
0001F00000
003FFFFFE0
003FFFFFE0
003FFFFFE0
003FFFFFE0
003FFFFFE0
0001F003E0
0001F003E0
0001F003E0
0001F003E0
0001F003E0
0001F07C00
0001F07C00
0001F07C00
0001F07C00
0001F07C00
0001F00000
0001F00000
0001F00000
0001F00000
0001F00000
0001F00000
0001F00000
0001F00000
0001F00000
0001F00000
0000000000
0000000000
0000000000
0000000000
0000000000
ENDCHAR
STARTCHAR 30e5
ENCODING 12517
SWIDTH 4800 0
DWIDTH 40 0
BBX 40 40 0 0
BITMAP
0000000000
0000000000
0000000000
0000000000
0000000000
0000000000
0000000000
0000000000
0000000000
0000000000
0000000000
0000000000
0000000000
0000000000
0000000000
0001FFFC00
0001FFFC00
0001FFFC00
0001FFFC00
0001FFFC00
0000007C00
0000007C00
0000007C00
0000007C00
0000007C00
0000007C00
0000007C00
0000007C00
0000007C00
0000007C00
003FFFFFE0
003FFFFFE0
003FFFFFE0
003FFFFFE0
003FFFFFE0
0000000000
0000000000
0000000000
0000000000
0000000000
ENDCHAR
STARTCHAR 30e6
ENCODING 12518
SWIDTH 4800 0
DWIDTH 40 0
BBX 40 40 0 0
BITMAP
0000000000
0000000000
0000000000
0000000000
0000000000
0001FFFC00
0001FFFC00
0001FFFC00
0001FFFC00
0001FFFC00
0000007C00
0000007C00
0000007C00
0000007C00
0000007C00
0000007C00
0000007C00
0000007C00
0000007C00
0000007C00
0000007C00
0000007C00
0000007C00
0000007C00
0000007C00
0000007C00
0000007C00
0000007C00
0000007C00
0000007C00
003FFFFFE0
003FFFFFE0
003FFFFFE0
003FFFFFE0
003FFFFFE0
0000000000
0000000000
0000000000
0000000000
0000000000
ENDCHAR
STARTCHAR 30e7
ENCODING 12519
SWIDTH 4800 0
DWIDTH 40 0
BBX 40 40 0 0
BITMAP
0000000000
0000000000
0000000000
0000000000
0000000000
0000000000
0000000000
0000000000
0000000000
0000000000
003FFFFC00
003FFFFC00
003FFFFC00
003FFFFC00
003FFFFC00
0000007C00
0000007C00
0000007C00
0000007C00
0000007C00
003FFFFC00
003FFFFC00
003FFFFC00
003FFFFC00
003FFFFC00
0000007C00
0000007C00
0000007C00
0000007C00
0000007C00
003FFFFC00
003FFFFC00
003FFFFC00
003FFFFC00
003FFFFC00
0000000000
0000000000
0000000000
0000000000
0000000000
ENDCHAR
STARTCHAR 30e8
ENCODING 12520
SWIDTH 4800 0
DWIDTH 40 0
BBX 40 40 0 0
BITMAP
0000000000
0000000000
0000000000
0000000000
0000000000
003FFFFFE0
003FFFFFE0
003FFFFFE0
003FFFFFE0
003FFFFFE0
00000003E0
00000003E0
00000003E0
00000003E0
00000003E0
003FFFFFE0
003FFFFFE0
003FFFFFE0
003FFFFFE0
003FFFFFE0
00000003E0
00000003E0
00000003E0
00000003E0
00000003E0
00000003E0
00000003E0
00000003E0
00000003E0
00000003E0
003FFFFFE0
003FFFFFE0
003FFFFFE0
003FFFFFE0
003FFFFFE0
0000000000
0000000000
0000000000
0000000000
0000000000
ENDCHAR
STARTCHAR 30e9
ENCODING 12521
SWIDTH 4800 0
DWIDTH 40 0
BBX 40 40 0 0
BITMAP
0001FFFC00
0001FFFC00
0001FFFC00
0001FFFC00
0001FFFC00
0000000000
0000000000
0000000000
0000000000
0000000000
003FFFFFE0
003FFFFFE0
003FFFFFE0
003FFFFFE0
003FFFFFE0
00000003E0
00000003E0
00000003E0
00000003E0
00000003E0
00000003E0
00000003E0
00000003E0
00000003E0
00000003E0
0000007C00
0000007C00
0000007C00
0000007C00
0000007C00
00000F8000
00000F8000
00000F8000
00000F8000
00000F8000
0000000000
0000000000
0000000000
0000000000
0000000000
ENDCHAR
STARTCHAR 30ea
ENCODING 12522
SWIDTH 4800 0
DWIDTH 40 0
BBX 40 40 0 0
BITMAP
003E007C00
003E007C00
003E007C00
003E007C00
003E007C00
003E007C00
003E007C00
003E007C00
003E007C00
003E007C00
003E007C00
003E007C00
003E007C00
003E007C00
003E007C00
003E007C00
003E007C00
003E007C00
003E007C00
003E007C00
0000007C00
0000007C00
0000007C00
0000007C00
0000007C00
00000F8000
00000F8000
00000F8000
00000F8000
00000F8000
0001F00000
0001F00000
0001F00000
0001F00000
0001F00000
0000000000
0000000000
0000000000
0000000000
0000000000
ENDCHAR
STARTCHAR 30eb
ENCODING 12523
SWIDTH 4800 0
DWIDTH 40 0
BBX 40 40 0 0
BITMAP
0000000000
0000000000
0000000000
0000000000
0000000000
00000F8000
00000F8000
00000F8000
00000F8000
00000F8000
003E0F8000
003E0F8000
003E0F8000
003E0F8000
003E0F8000
003E0F8000
003E0F8000
003E0F8000
003E0F8000
003E0F8000
003E0F83E0
003E0F83E0
003E0F83E0
003E0F83E0
003E0F83E0
003E0F83E0
003E0F83E0
003E0F83E0
003E0F83E0
003E0F83E0
003E0FFC00
003E0FFC00
003E0FFC00
003E0FFC00
003E0FFC00
0000000000
0000000000
0000000000
0000000000
0000000000
ENDCHAR
STARTCHAR 30ec
ENCODING 12524
SWIDTH 4800 0
DWIDTH 40 0
BBX 40 40 0 0
BITMAP
0000000000
0000000000
0000000000
0000000000
0000000000
003E000000
003E000000
003E000000
003E000000
003E000000
003E000000
003E000000
003E000000
003E000000
003E000000
003E0003E0
003E0003E0
003E0003E0
003E0003E0
003E0003E0
003E007C00
003E007C00
003E007C00
003E007C00
003E007C00
003E0F8000
003E0F8000
003E0F8000
003E0F8000
003E0F8000
003FF00000
003FF00000
003FF00000
003FF00000
003FF00000
0000000000
0000000000
0000000000
0000000000
0000000000
ENDCHAR
STARTCHAR 30ed
ENCODING 12525
SWIDTH 4800 0
DWIDTH 40 0
BBX 40 40 0 0
BITMAP
0000000000
0000000000
0000000000
0000000000
0000000000
003FFFFFE0
003FFFFFE0
003FFFFFE0
003FFFFFE0
003FFFFFE0
003E0003E0
003E0003E0
003E0003E0
003E0003E0
003E0003E0
003E0003E0
003E0003E0
003E0003E0
003E0003E0
003E0003E0
003E0003E0
003E0003E0
003E0003E0
003E0003E0
003E0003E0
003E0003E0
003E0003E0
003E0003E0
003E0003E0
003E0003E0
003FFFFFE0
003FFFFFE0
003FFFFFE0
003FFFFFE0
003FFFFFE0
0000000000
0000000000
0000000000
0000000000
0000000000
ENDCHAR
STARTCHAR 30ef
ENCODING 12527
SWIDTH 4800 0
DWIDTH 40 0
BBX 40 40 0 0
BITMAP
0000000000
0000000000
0000000000
0000000000
0000000000
003FFFFFE0
003FFFFFE0
003FFFFFE0
003FFFFFE0
003FFFFFE0
003E0003E0
003E0003E0
003E0003E0
003E0003E0
003E0003E0
003E0003E0
003E0003E0
003E0003E0
003E0003E0
003E0003E0
00000003E0
00000003E0
00000003E0
00000003E0
00000003E0
0000007C00
0000007C00
0000007C00
0000007C00
0000007C00
00000F8000
00000F8000
00000F8000
00000F8000
00000F8000
0000000000
0000000000
0000000000
0000000000
0000000000
ENDCHAR
STARTCHAR 30f2
ENCODING 12530
SWIDTH 4800 0
DWIDTH 40 0
BBX 40 40 0 0
BITMAP
0000000000
0000000000
0000000000
0000000000
0000000000
003FFFFFE0
003FFFFFE0
003FFFFFE0
003FFFFFE0
003FFFFFE0
00000003E0
00000003E0
00000003E0
00000003E0
00000003E0
003FFFFFE0
003FFFFFE0
003FFFFFE0
003FFFFFE0
003FFFFFE0
00000003E0
00000003E0
00000003E0
00000003E0
00000003E0
0000007C00
0000007C00
0000007C00
0000007C00
0000007C00
00000F8000
00000F8000
00000F8000
00000F8000
00000F8000
0000000000
0000000000
0000000000
0000000000
0000000000
ENDCHAR
STARTCHAR 30f3
ENCODING 12531
SWIDTH 4800 0
DWIDTH 40 0
BBX 40 40 0 0
BITMAP
0000000000
0000000000
0000000000
0000000000
0000000000
003FF00000
003FF00000
003FF00000
003FF00000
003FF00000
0000000000
0000000000
0000000000
0000000000
0000000000
00000003E0
00000003E0
00000003E0
00000003E0
00000003E0
00000003E0
00000003E0
00000003E0
00000003E0
00000003E0
0000007C00
0000007C00
0000007C00
0000007C00
0000007C00
003FFF8000
003FFF8000
003FFF8000
003FFF8000
003FFF8000
0000000000
0000000000
0000000000
0000000000
0000000000
ENDCHAR
STARTCHAR 30fb
ENCODING 12539
SWIDTH 4800 0
DWIDTH 40 0
BBX 40 40 0 0
BITMAP
0000000000
0000000000
0000000000
0000000000
0000000000
0000000000
0000000000
0000000000
0000000000
0000000000
0000000000
0000000000
0000000000
0000000000
0000000000
0000000000
0000000000
0000000000
0000000000
0000000000
0000000000
0000000000
0000000000
0000000000
0000000000
0000000000
0000000000
0000000000
0000000000
0000000000
003E000000
003E000000
003E000000
003E000000
003E000000
0000000000
0000000000
0000000000
0000000000
0000000000
ENDCHAR
STARTCHAR 30fc
ENCODING 12540
SWIDTH 4800 0
DWIDTH 40 0
BBX 40 40 0 0
BITMAP
0000000000
0000000000
0000000000
0000000000
0000000000
0000000000
0000000000
0000000000
0000000000
0000000000
0000000000
0000000000
0000000000
0000000000
0000000000
0001FFFC00
0001FFFC00
0001FFFC00
0001FFFC00
0001FFFC00
0000000000
0000000000
0000000000
0000000000
0000000000
0000000000
0000000000
0000000000
0000000000
0000000000
0000000000
0000000000
0000000000
0000000000
0000000000
0000000000
0000000000
0000000000
0000000000
0000000000
ENDCHAR
STARTCHAR 4eba
ENCODING 20154
SWIDTH 4800 0
DWIDTH 40 0
BBX 40 40 0 0
BITMAP
0001FFFC00
0001FFFC00
0001FFFC00
0001FFFC00
0001FFFC00
0001FFFC00
0001FFFC00
0001FFFC00
0001FFFC00
0001FFFC00
00000F8000
00000F8000
00000F8000
00000F8000
00000F8000
003FFFFFE0
003FFFFFE0
003FFFFFE0
003FFFFFE0
003FFFFFE0
00000F8000
00000F8000
00000F8000
00000F8000
00000F8000
00000F8000
00000F8000
00000F8000
00000F8000
00000F8000
0001F07C00
0001F07C00
0001F07C00
0001F07C00
0001F07C00
003E0003E0
003E0003E0
003E0003E0
003E0003E0
003E0003E0
ENDCHAR
STARTCHAR 5012
ENCODING 20498
SWIDTH 4800 0
DWIDTH 40 0
BBX 40 40 0 0
BITMAP
0000000000
0000000000
0000000000
0000000000
0000000000
F8000F8000
F8000F8000
F8000F8000
F8000F8000
F8000F8000
07C00F83FF
07C00F83FF
07C00F83FF
07C00F83FF
07C00F83FF
003FFFFFFF
003FFFFFFF
003FFFFFFF
003FFFFFFF
003FFFFFFF
07C00F83FF
07C00F83FF
07C00F83FF
07C00F83FF
07C00F83FF
F8000F8000
F8000F8000
F8000F8000
F8000F8000
F8000F8000
0000000000
0000000000
0000000000
0000000000
0000000000
0000000000
0000000000
0000000000
0000000000
0000000000
ENDCHAR
STARTCHAR 516b
ENCODING 20843
SWIDTH 4800 0
DWIDTH 40 0
BBX 40 40 0 0
BITMAP
0000000000
0000000000
0000000000
0000000000
0000000000
0001F0001F
0001F0001F
0001F0001F
0001F0001F
0001F0001F
FFC1F003E0
FFC1F003E0
FFC1F003E0
FFC1F003E0
FFC1F003E0
FFFFFFFC00
FFFFFFFC00
FFFFFFFC00
FFFFFFFC00
FFFFFFFC00
FFC1F003E0
FFC1F003E0
FFC1F003E0
FFC1F003E0
FFC1F003E0
0001F0001F
0001F0001F
0001F0001F
0001F0001F
0001F0001F
0000000000
0000000000
0000000000
0000000000
0000000000
0000000000
0000000000
0000000000
0000000000
0000000000
ENDCHAR
STARTCHAR 5186
ENCODING 20870
SWIDTH 4800 0
DWIDTH 40 0
BBX 40 40 0 0
BITMAP
07FFFFFFFF
07FFFFFFFF
07FFFFFFFF
07FFFFFFFF
07FFFFFFFF
07C00F801F
07C00F801F
07C00F801F
07C00F801F
07C00F801F
07C00F801F
07C00F801F
07C00F801F
07C00F801F
07C00F801F
07FFFFFFFF
07FFFFFFFF
07FFFFFFFF
07FFFFFFFF
07FFFFFFFF
07C000001F
07C000001F
07C000001F
07C000001F
07C000001F
07C000001F
07C000001F
07C000001F
07C000001F
07C000001F
07C000001F
07C000001F
07C000001F
07C000001F
07C000001F
0000000000
0000000000
0000000000
0000000000
0000000000
ENDCHAR
STARTCHAR 5206
ENCODING 20998
SWIDTH 4800 0
DWIDTH 40 0
BBX 40 40 0 0
BITMAP
00000F8000
00000F8000
00000F8000
00000F8000
00000F8000
0001F07C00
0001F07C00
0001F07C00
0001F07C00
0001F07C00
003E0003E0
003E0003E0
003E0003E0
003E0003E0
003E0003E0
07FFFFFFFF
07FFFFFFFF
07FFFFFFFF
07FFFFFFFF
07FFFFFFFF
0001F003E0
0001F003E0
0001F003E0
0001F003E0
0001F003E0
0001F003E0
0001F003E0
0001F003E0
0001F003E0
0001F003E0
003E007C00
003E007C00
003E007C00
003E007C00
003E007C00
0000000000
0000000000
0000000000
0000000000
0000000000
ENDCHAR
STARTCHAR 53cd
ENCODING 21453
SWIDTH 4800 0
DWIDTH 40 0
BBX 40 40 0 0
BITMAP
F8000F8000
F8000F8000
F8000F8000
F8000F8000
F8000F8000
F801F00000
F801F00000
F801F00000
F801F00000
F801F00000
F83E000000
F83E000000
F83E000000
F83E000000
F83E000000
FFC0000000
FFC0000000
FFC0000000
FFC0000000
FFC0000000
FFC0000000
FFC0000000
FFC0000000
FFC0000000
FFC0000000
F83E0F8000
F83E0F8000
F83E0F8000
F83E0F8000
F83E0F8000
F801FF8000
F801FF8000
F801FF8000
F801FF8000
F801FF8000
F83FFF8000
F83FFF8000
F83FFF8000
F83FFF8000
F83FFF8000
ENDCHAR
STARTCHAR 571f
ENCODING 22303
SWIDTH 4800 0
DWIDTH 40 0
BBX 40 40 0 0
BITMAP
0000000000
0000000000
0000000000
0000000000
0000000000
00000F8000
00000F8000
00000F8000
00000F8000
00000F8000
00000F8000
00000F8000
00000F8000
00000F8000
00000F8000
003FFFFFE0
003FFFFFE0
003FFFFFE0
003FFFFFE0
003FFFFFE0
00000F8000
00000F8000
00000F8000
00000F8000
00000F8000
00000F8000
00000F8000
00000F8000
00000F8000
00000F8000
07FFFFFFFF
07FFFFFFFF
07FFFFFFFF
07FFFFFFFF
07FFFFFFFF
0000000000
0000000000
0000000000
0000000000
0000000000
ENDCHAR
STARTCHAR 5c04
ENCODING 23556
SWIDTH 4800 0
DWIDTH 40 0
BBX 40 40 0 0
BITMAP
F83E0F8000
F83E0F8000
F83E0F8000
F83E0F8000
F83E0F8000
F83FF00000
F83FF00000
F83FF00000
F83FF00000
F83FF00000
F83FFF8000
F83FFF8000
F83FFF8000
F83FFF8000
F83FFF8000
FFC0000000
FFC0000000
FFC0000000
FFC0000000
FFC0000000
FFC0000000
FFC0000000
FFC0000000
FFC0000000
FFC0000000
F83E000000
F83E000000
F83E000000
F83E000000
F83E000000
F801F00000
F801F00000
F801F00000
F801F00000
F801F00000
F8000F8000
F8000F8000
F8000F8000
F8000F8000
F8000F8000
ENDCHAR
STARTCHAR 5e74
ENCODING 24180
SWIDTH 4800 0
DWIDTH 40 0
BBX 40 40 0 0
BITMAP
003E000000
003E000000
003E000000
003E000000
003E000000
003FFFFFE0
003FFFFFE0
003FFFFFE0
003FFFFFE0
003FFFFFE0
07C00F8000
07C00F8000
07C00F8000
07C00F8000
07C00F8000
003FFFFC00
003FFFFC00
003FFFFC00
003FFFFC00
003FFFFC00
003E0F8000
003E0F8000
003E0F8000
003E0F8000
003E0F8000
07FFFFFFE0
07FFFFFFE0
07FFFFFFE0
07FFFFFFE0
07FFFFFFE0
00000F8000
00000F8000
00000F8000
00000F8000
00000F8000
0000000000
0000000000
0000000000
0000000000
0000000000
ENDCHAR
STARTCHAR 62bc
ENCODING 25276
SWIDTH 4800 0
DWIDTH 40 0
BBX 40 40 0 0
BITMAP
0001FFFC00
0001FFFC00
0001FFFC00
0001FFFC00
0001FFFC00
0001FFFC00
0001FFFC00
0001FFFC00
0001FFFC00
0001FFFC00
003FFFFFE0
003FFFFFE0
003FFFFFE0
003FFFFFE0
003FFFFFE0
0001FFFC00
0001FFFC00
0001FFFC00
0001FFFC00
0001FFFC00
00000F8000
00000F8000
00000F8000
00000F8000
00000F8000
0000000000
0000000000
0000000000
0000000000
0000000000
003FFFFFE0
003FFFFFE0
003FFFFFE0
003FFFFFE0
003FFFFFE0
0000000000
0000000000
0000000000
0000000000
0000000000
ENDCHAR
STARTCHAR 65e5
ENCODING 26085
SWIDTH 4800 0
DWIDTH 40 0
BBX 40 40 0 0
BITMAP
003FFFFFE0
003FFFFFE0
003FFFFFE0
003FFFFFE0
003FFFFFE0
003E0003E0
003E0003E0
003E0003E0
003E0003E0
003E0003E0
003E0003E0
003E0003E0
003E0003E0
003E0003E0
003E0003E0
003FFFFFE0
003FFFFFE0
003FFFFFE0
003FFFFFE0
003FFFFFE0
003E0003E0
003E0003E0
003E0003E0
003E0003E0
003E0003E0
003E0003E0
003E0003E0
003E0003E0
003E0003E0
003E0003E0
003FFFFFE0
003FFFFFE0
003FFFFFE0
003FFFFFE0
003FFFFFE0
0000000000
0000000000
0000000000
0000000000
0000000000
ENDCHAR
STARTCHAR 661f
ENCODING 26143
SWIDTH 4800 0
DWIDTH 40 0
BBX 40 40 0 0
BITMAP
0000000000
0000000000
0000000000
0000000000
0000000000
003E0003FF
003E0003FF
003E0003FF
003E0003FF
003E0003FF
003E007C1F
003E007C1F
003E007C1F
003E007C1F
003E007C1F
003E0F801F
003E0F801F
003E0F801F
003E0F801F
003E0F801F
FFFFF0001F
FFFFF0001F
FFFFF0001F
FFFFF0001F
FFFFF0001F
003E0F801F
003E0F801F
003E0F801F
003E0F801F
003E0F801F
003E007C1F
003E007C1F
003E007C1F
003E007C1F
003E007C1F
003E0003FF
003E0003FF
003E0003FF
003E0003FF
003E0003FF
ENDCHAR
STARTCHAR 6642
ENCODING 26178
SWIDTH 4800 0
DWIDTH 40 0
BBX 40 40 0 0
BITMAP
0000007C00
0000007C00
0000007C00
0000007C00
0000007C00
07FFFFFFE0
07FFFFFFE0
07FFFFFFE0
07FFFFFFE0
07FFFFFFE0
07C1F07C00
07C1F07C00
07C1F07C00
07C1F07C00
07C1F07C00
07FFFFFFFF
07FFFFFFFF
07FFFFFFFF
07FFFFFFFF
07FFFFFFFF
07C1F003E0
07C1F003E0
07C1F003E0
07C1F003E0
07C1F003E0
07FFFFFFFF
07FFFFFFFF
07FFFFFFFF
07FFFFFFFF
07FFFFFFFF
00000F83E0
00000F83E0
00000F83E0
00000F83E0
00000F83E0
0000000000
0000000000
0000000000
0000000000
0000000000
ENDCHAR
STARTCHAR 6708
ENCODING 26376
SWIDTH 4800 0
DWIDTH 40 0
BBX 40 40 0 0
BITMAP
003FFFFFE0
003FFFFFE0
003FFFFFE0
003FFFFFE0
003FFFFFE0
003E0003E0
003E0003E0
003E0003E0
003E0003E0
003E0003E0
003FFFFFE0
003FFFFFE0
003FFFFFE0
003FFFFFE0
003FFFFFE0
003E0003E0
003E0003E0
003E0003E0
003E0003E0
003E0003E0
003FFFFFE0
003FFFFFE0
003FFFFFE0
003FFFFFE0
003FFFFFE0
003E0003E0
003E0003E0
003E0003E0
003E0003E0
003E0003E0
07C00003E0
07C00003E0
07C00003E0
07C00003E0
07C00003E0
0000000000
0000000000
0000000000
0000000000
0000000000
ENDCHAR
STARTCHAR 6728
ENCODING 26408
SWIDTH 4800 0
DWIDTH 40 0
BBX 40 40 0 0
BITMAP
00000F8000
00000F8000
00000F8000
00000F8000
00000F8000
00000F8000
00000F8000
00000F8000
00000F8000
00000F8000
003FFFFFE0
003FFFFFE0
003FFFFFE0
003FFFFFE0
003FFFFFE0
00000F8000
00000F8000
00000F8000
00000F8000
00000F8000
0001FFFC00
0001FFFC00
0001FFFC00
0001FFFC00
0001FFFC00
003E0F83E0
003E0F83E0
003E0F83E0
003E0F83E0
003E0F83E0
07C00F801F
07C00F801F
07C00F801F
07C00F801F
07C00F801F
0000000000
0000000000
0000000000
0000000000
0000000000
ENDCHAR
STARTCHAR 672a
ENCODING 26410
SWIDTH 4800 0
DWIDTH 40 0
BBX 40 40 0 0
BITMAP
0001FF8000
0001FF8000
0001FF8000
0001FF8000
0001FF8000
003E007C00
003E007C00
003E007C00
003E007C00
003E007C00
07FFFFFFE0
07FFFFFFE0
07FFFFFFE0
07FFFFFFE0
07FFFFFFE0
FFFFFFFFFF
FFFFFFFFFF
FFFFFFFFFF
FFFFFFFFFF
FFFFFFFFFF
07C1FF83E0
07C1FF83E0
07C1FF83E0
07C1FF83E0
07C1FF83E0
003E007C00
003E007C00
003E007C00
003E007C00
003E007C00
0000000000
0000000000
0000000000
0000000000
0000000000
0000000000
0000000000
0000000000
0000000000
0000000000
ENDCHAR
STARTCHAR 6a2a
ENCODING 27178
SWIDTH 4800 0
DWIDTH 40 0
BBX 40 40 0 0
BITMAP
FFFE000000
FFFE000000
FFFE000000
FFFE000000
FFFE000000
07C0007FFF
07C0007FFF
07C0007FFF
07C0007FFF
07C0007FFF
07C00003E0
07C00003E0
07C00003E0
07C00003E0
07C00003E0
07FFFFFFE0
07FFFFFFE0
07FFFFFFE0
07FFFFFFE0
07FFFFFFE0
07C00003E0
07C00003E0
07C00003E0
07C00003E0
07C00003E0
07C0007FFF
07C0007FFF
07C0007FFF
07C0007FFF
07C0007FFF
FFFE000000
FFFE000000
FFFE000000
FFFE000000
FFFE000000
0000000000
0000000000
0000000000
0000000000
0000000000
ENDCHAR
STARTCHAR 6c34
ENCODING 27700
SWIDTH 4800 0
DWIDTH 40 0
BBX 40 40 0 0
BITMAP
00000F8000
00000F8000
00000F8000
00000F8000
00000F8000
00000F801F
00000F801F
00000F801F
00000F801F
00000F801F
003FFF83E0
003FFF83E0
003FFF83E0
003FFF83E0
003FFF83E0
00000FFC00
00000FFC00
00000FFC00
00000FFC00
00000FFC00
0001FFFC00
0001FFFC00
0001FFFC00
0001FFFC00
0001FFFC00
003E0F83E0
003E0F83E0
003E0F83E0
003E0F83E0
003E0F83E0
07C00F801F
07C00F801F
07C00F801F
07C00F801F
07C00F801F
0000000000
0000000000
0000000000
0000000000
0000000000
ENDCHAR
STARTCHAR 6c60
ENCODING 27744
SWIDTH 4800 0
DWIDTH 40 0
BBX 40 40 0 0
BITMAP
00000F8000
00000F8000
00000F8000
00000F8000
00000F8000
00000F8000
00000F8000
00000F8000
00000F8000
00000F8000
003FFFFFE0
003FFFFFE0
003FFFFFE0
003FFFFFE0
003FFFFFE0
0000000000
0000000000
0000000000
0000000000
0000000000
0000000000
0000000000
0000000000
0000000000
0000000000
003FFFFFE0
003FFFFFE0
003FFFFFE0
003FFFFFE0
003FFFFFE0
00000F8000
00000F8000
00000F8000
00000F8000
00000F8000
00000F8000
00000F8000
00000F8000
00000F8000
00000F8000
ENDCHAR
STARTCHAR 706b
ENCODING 28779
SWIDTH 4800 0
DWIDTH 40 0
BBX 40 40 0 0
BITMAP
00000F8000
00000F8000
00000F8000
00000F8000
00000F8000
003E0F83E0
003E0F83E0
003E0F83E0
003E0F83E0
003E0F83E0
003E0F83E0
003E0F83E0
003E0F83E0
003E0F83E0
003E0F83E0
00000F8000
00000F8000
00000F8000
00000F8000
00000F8000
0001F07C00
0001F07C00
0001F07C00
0001F07C00
0001F07C00
003E0003E0
003E0003E0
003E0003E0
003E0003E0
003E0003E0
07C000001F
07C000001F
07C000001F
07C000001F
07C000001F
0000000000
0000000000
0000000000
0000000000
0000000000
ENDCHAR
STARTCHAR 751f
ENCODING 29983
SWIDTH 4800 0
DWIDTH 40 0
BBX 40 40 0 0
BITMAP
00000F8000
00000F8000
00000F8000
00000F8000
00000F8000
07C00F8000
07C00F8000
07C00F8000
07C00F8000
07C00F8000
07FFFFFFE0
07FFFFFFE0
07FFFFFFE0
07FFFFFFE0
07FFFFFFE0
07C00F8000
07C00F8000
07C00F8000
07C00F8000
07C00F8000
003FFFFFE0
003FFFFFE0
003FFFFFE0
003FFFFFE0
003FFFFFE0
00000F8000
00000F8000
00000F8000
00000F8000
00000F8000
07FFFFFFFF
07FFFFFFFF
07FFFFFFFF
07FFFFFFFF
07FFFFFFFF
0000000000
0000000000
0000000000
0000000000
0000000000
ENDCHAR
STARTCHAR 79d2
ENCODING 31186
SWIDTH 4800 0
DWIDTH 40 0
BBX 40 40 0 0
BITMAP
003FFF8000
003FFF8000
003FFF8000
003FFF8000
003FFF8000
0001F003E0
0001F003E0
0001F003E0
0001F003E0
0001F003E0
07FFFFFFFF
07FFFFFFFF
07FFFFFFFF
07FFFFFFFF
07FFFFFFFF
0001F07FFF
0001F07FFF
0001F07FFF
0001F07FFF
0001F07FFF
003FFF83FF
003FFF83FF
003FFF83FF
003FFF83FF
003FFF83FF
07C1F003E0
07C1F003E0
07C1F003E0
07C1F003E0
07C1F003E0
0001F07C00
0001F07C00
0001F07C00
0001F07C00
0001F07C00
0000000000
0000000000
0000000000
0000000000
0000000000
ENDCHAR
STARTCHAR 86c7
ENCODING 34503
SWIDTH 4800 0
DWIDTH 40 0
BBX 40 40 0 0
BITMAP
0000000000
0000000000
0000000000
0000000000
0000000000
FFC0000000
FFC0000000
FFC0000000
FFC0000000
FFC0000000
FFC00F8000
FFC00F8000
FFC00F8000
FFC00F8000
FFC00F8000
07C1F07C00
07C1F07C00
07C1F07C00
07C1F07C00
07C1F07C00
07C1F07C00
07C1F07C00
07C1F07C00
07C1F07C00
07C1F07C00
07C1F07C1F
07C1F07C1F
07C1F07C1F
07C1F07C1F
07C1F07C1F
003E0003E0
003E0003E0
003E0003E0
003E0003E0
003E0003E0
0000000000
0000000000
0000000000
0000000000
0000000000
ENDCHAR
STARTCHAR 885b
ENCODING 34907
SWIDTH 4800 0
DWIDTH 40 0
BBX 40 40 0 0
BITMAP
0000000000
0000000000
0000000000
0000000000
0000000000
FFC0007C00
FFC0007C00
FFC0007C00
FFC0007C00
FFC0007C00
F83E007C00
F83E007C00
F83E007C00
F83E007C00
F83E007C00
F801F07C00
F801F07C00
F801F07C00
F801F07C00
F801F07C00
F8000FFFFF
F8000FFFFF
F8000FFFFF
F8000FFFFF
F8000FFFFF
F801F07C00
F801F07C00
F801F07C00
F801F07C00
F801F07C00
F83E007C00
F83E007C00
F83E007C00
F83E007C00
F83E007C00
FFC0007C00
FFC0007C00
FFC0007C00
FFC0007C00
FFC0007C00
ENDCHAR
STARTCHAR 8eca
ENCODING 36554
SWIDTH 4800 0
DWIDTH 40 0
BBX 40 40 0 0
BITMAP
003E0003E0
003E0003E0
003E0003E0
003E0003E0
003E0003E0
003FFFFFE0
003FFFFFE0
003FFFFFE0
003FFFFFE0
003FFFFFE0
003E0F83E0
003E0F83E0
003E0F83E0
003E0F83E0
003E0F83E0
00000F8000
00000F8000
00000F8000
00000F8000
00000F8000
00000F8000
00000F8000
00000F8000
00000F8000
00000F8000
07C00F801F
07C00F801F
07C00F801F
07C00F801F
07C00F801F
07FFFFFFFF
07FFFFFFFF
07FFFFFFFF
07FFFFFFFF
07FFFFFFFF
07C000001F
07C000001F
07C000001F
07C000001F
07C000001F
ENDCHAR
STARTCHAR 9006
ENCODING 36870
SWIDTH 4800 0
DWIDTH 40 0
BBX 40 40 0 0
BITMAP
003E0003E0
003E0003E0
003E0003E0
003E0003E0
003E0003E0
0001F07C00
0001F07C00
0001F07C00
0001F07C00
0001F07C00
00000F8000
00000F8000
00000F8000
00000F8000
00000F8000
00000F8000
00000F8000
00000F8000
00000F8000
00000F8000
003FFFFFE0
003FFFFFE0
003FFFFFE0
003FFFFFE0
003FFFFFE0
00000F8000
00000F8000
00000F8000
00000F8000
00000F8000
0001FFFC00
0001FFFC00
0001FFFC00
0001FFFC00
0001FFFC00
0001FFFC00
0001FFFC00
0001FFFC00
0001FFFC00
0001FFFC00
ENDCHAR
STARTCHAR 91d1
ENCODING 37329
SWIDTH 4800 0
DWIDTH 40 0
BBX 40 40 0 0
BITMAP
00000F8000
00000F8000
00000F8000
00000F8000
00000F8000
0001F07C00
0001F07C00
0001F07C00
0001F07C00
0001F07C00
003FFFFFE0
003FFFFFE0
003FFFFFE0
003FFFFFE0
003FFFFFE0
07C00F801F
07C00F801F
07C00F801F
07C00F801F
07C00F801F
003FFFFFE0
003FFFFFE0
003FFFFFE0
003FFFFFE0
003FFFFFE0
0001FFFC00
0001FFFC00
0001FFFC00
0001FFFC00
0001FFFC00
07FFFFFFFF
07FFFFFFFF
07FFFFFFFF
07FFFFFFFF
07FFFFFFFF
0000000000
0000000000
0000000000
0000000000
0000000000
ENDCHAR
STARTCHAR 96fb
ENCODING 38651
SWIDTH 4800 0
DWIDTH 40 0
BBX 40 40 0 0
BITMAP
0000000000
0000000000
0000000000
0000000000
0000000000
0000000000
0000000000
0000000000
0000000000
0000000000
003E007C00
003E007C00
003E007C00
003E007C00
003E007C00
003E007C00
003E007C00
003E007C00
003E007C00
003E007C00
FFFE007FFF
FFFE007FFF
FFFE007FFF
FFFE007FFF
FFFE007FFF
003E007C00
003E007C00
003E007C00
003E007C00
003E007C00
003E007C00
003E007C00
003E007C00
003E007C00
003E007C00
0000000000
0000000000
0000000000
0000000000
0000000000
ENDCHAR
STARTCHAR ff01
ENCODING 65281
SWIDTH 4800 0
DWIDTH 40 0
BBX 40 40 0 0
BITMAP
00000F8000
00000F8000
00000F8000
00000F8000
00000F8000
0001F00000
0001F00000
0001F00000
0001F00000
0001F00000
003E000000
003E000000
003E000000
003E000000
003E000000
0001F00000
0001F00000
0001F00000
0001F00000
0001F00000
00000F8000
00000F8000
00000F8000
00000F8000
00000F8000
0000007C00
0000007C00
0000007C00
0000007C00
0000007C00
00000003E0
00000003E0
00000003E0
00000003E0
00000003E0
0000007C00
0000007C00
0000007C00
0000007C00
0000007C00
ENDCHAR
STARTCHAR ff0c
ENCODING 65292
SWIDTH 4800 0
DWIDTH 40 0
BBX 40 40 0 0
BITMAP
0000000000
0000000000
0000000000
0000000000
0000000000
0000000000
0000000000
0000000000
0000000000
0000000000
0000000000
0000000000
0000000000
0000000000
0000000000
0000000000
0000000000
0000000000
0000000000
0000000000
0000000000
0000000000
0000000000
0000000000
0000000000
07C0000000
07C0000000
07C0000000
07C0000000
07C0000000
003E000000
003E000000
003E000000
003E000000
003E000000
0001F00000
0001F00000
0001F00000
0001F00000
0001F00000
ENDCHAR
STARTCHAR ff0e
ENCODING 65294
SWIDTH 4800 0
DWIDTH 40 0
BBX 40 40 0 0
BITMAP
0000000000
0000000000
0000000000
0000000000
0000000000
0000000000
0000000000
0000000000
0000000000
0000000000
0000000000
0000000000
0000000000
0000000000
0000000000
0000000000
0000000000
0000000000
0000000000
0000000000
0000000000
0000000000
0000000000
0000000000
0000000000
0000000000
0000000000
0000000000
0000000000
0000000000
003E000000
003E000000
003E000000
003E000000
003E000000
0000000000
0000000000
0000000000
0000000000
0000000000
ENDCHAR
STARTCHAR ff0f
ENCODING 65295
SWIDTH 4800 0
DWIDTH 40 0
BBX 40 40 0 0
BITMAP
000000001F
000000001F
000000001F
000000001F
000000001F
00000003E0
00000003E0
00000003E0
00000003E0
00000003E0
0000007C00
0000007C00
0000007C00
0000007C00
0000007C00
00000F8000
00000F8000
00000F8000
00000F8000
00000F8000
0001F00000
0001F00000
0001F00000
0001F00000
0001F00000
003E000000
003E000000
003E000000
003E000000
003E000000
07C0000000
07C0000000
07C0000000
07C0000000
07C0000000
F800000000
F800000000
F800000000
F800000000
F800000000
ENDCHAR
STARTCHAR ff11
ENCODING 65297
SWIDTH 4800 0
DWIDTH 40 0
BBX 40 40 0 0
BITMAP
0000000000
0000000000
0000000000
0000000000
0000000000
0000000000
0000000000
0000000000
0000000000
0000000000
0000000000
0000000000
0000000000
0000000000
0000000000
0000000000
0000000000
0000000000
0000000000
0000000000
0000000000
0000000000
0000000000
0000000000
0000000000
0000000000
0000000000
0000000000
0000000000
0000000000
FFFFFFFFFF
FFFFFFFFFF
FFFFFFFFFF
FFFFFFFFFF
FFFFFFFFFF
0000000000
0000000000
0000000000
0000000000
0000000000
ENDCHAR
STARTCHAR ff12
ENCODING 65298
SWIDTH 4800 0
DWIDTH 40 0
BBX 40 40 0 0
BITMAP
0000000000
0000000000
0000000000
0000000000
0000000000
0000000000
0000000000
0000000000
0000000000
0000000000
0000000000
0000000000
0000000000
0000000000
0000000000
0000000000
0000000000
0000000000
0000000000
0000000000
0000000000
0000000000
0000000000
0000000000
0000000000
FFFFFFFFFF
FFFFFFFFFF
FFFFFFFFFF
FFFFFFFFFF
FFFFFFFFFF
0000000000
0000000000
0000000000
0000000000
0000000000
0000000000
0000000000
0000000000
0000000000
0000000000
ENDCHAR
STARTCHAR ff13
ENCODING 65299
SWIDTH 4800 0
DWIDTH 40 0
BBX 40 40 0 0
BITMAP
0000000000
0000000000
0000000000
0000000000
0000000000
0000000000
0000000000
0000000000
0000000000
0000000000
0000000000
0000000000
0000000000
0000000000
0000000000
FFFFFFFFFF
FFFFFFFFFF
FFFFFFFFFF
FFFFFFFFFF
FFFFFFFFFF
0000000000
0000000000
0000000000
0000000000
0000000000
0000000000
0000000000
0000000000
0000000000
0000000000
0000000000
0000000000
0000000000
0000000000
0000000000
0000000000
0000000000
0000000000
0000000000
0000000000
ENDCHAR
STARTCHAR ff14
ENCODING 65300
SWIDTH 4800 0
DWIDTH 40 0
BBX 40 40 0 0
BITMAP
0000000000
0000000000
0000000000
0000000000
0000000000
0000000000
0000000000
0000000000
0000000000
0000000000
FFFFFFFFFF
FFFFFFFFFF
FFFFFFFFFF
FFFFFFFFFF
FFFFFFFFFF
0000000000
0000000000
0000000000
0000000000
0000000000
0000000000
0000000000
0000000000
0000000000
0000000000
0000000000
0000000000
0000000000
0000000000
0000000000
0000000000
0000000000
0000000000
0000000000
0000000000
0000000000
0000000000
0000000000
0000000000
0000000000
ENDCHAR
STARTCHAR ff15
ENCODING 65301
SWIDTH 4800 0
DWIDTH 40 0
BBX 40 40 0 0
BITMAP
0000000000
0000000000
0000000000
0000000000
0000000000
FFFFFFFFFF
FFFFFFFFFF
FFFFFFFFFF
FFFFFFFFFF
FFFFFFFFFF
0000000000
0000000000
0000000000
0000000000
0000000000
0000000000
0000000000
0000000000
0000000000
0000000000
0000000000
0000000000
0000000000
0000000000
0000000000
0000000000
0000000000
0000000000
0000000000
0000000000
0000000000
0000000000
0000000000
0000000000
0000000000
0000000000
0000000000
0000000000
0000000000
0000000000
ENDCHAR
STARTCHAR ff1c
ENCODING 65308
SWIDTH 4800 0
DWIDTH 40 0
BBX 40 40 0 0
BITMAP
0000000000
0000000000
0000000000
0000000000
0000000000
07FFF00000
07FFF00000
07FFF00000
07FFF00000
07FFF00000
F8000F8000
F8000F8000
F8000F8000
F8000F8000
F8000F8000
07C0007C00
07C0007C00
07C0007C00
07C0007C00
07C0007C00
003E0003FF
003E0003FF
003E0003FF
003E0003FF
003E0003FF
003E000000
003E000000
003E000000
003E000000
003E000000
07C0000000
07C0000000
07C0000000
07C0000000
07C0000000
F800000000
F800000000
F800000000
F800000000
F800000000
ENDCHAR
STARTCHAR ff1d
ENCODING 65309
SWIDTH 4800 0
DWIDTH 40 0
BBX 40 40 0 0
BITMAP
0000000000
0000000000
0000000000
0000000000
0000000000
FFFFFFFFFF
FFFFFFFFFF
FFFFFFFFFF
FFFFFFFFFF
FFFFFFFFFF
0000000000
0000000000
0000000000
0000000000
0000000000
F80000001F
F80000001F
F80000001F
F80000001F
F80000001F
07C00003E0
07C00003E0
07C00003E0
07C00003E0
07C00003E0
07C00003E0
07C00003E0
07C00003E0
07C00003E0
07C00003E0
F80000001F
F80000001F
F80000001F
F80000001F
F80000001F
0000000000
0000000000
0000000000
0000000000
0000000000
ENDCHAR
STARTCHAR ff1e
ENCODING 65310
SWIDTH 4800 0
DWIDTH 40 0
BBX 40 40 0 0
BITMAP
0000000000
0000000000
0000000000
0000000000
0000000000
00000FFFE0
00000FFFE0
00000FFFE0
00000FFFE0
00000FFFE0
0001F0001F
0001F0001F
0001F0001F
0001F0001F
0001F0001F
003E0003E0
003E0003E0
003E0003E0
003E0003E0
003E0003E0
FFC0007C00
FFC0007C00
FFC0007C00
FFC0007C00
FFC0007C00
0000007C00
0000007C00
0000007C00
0000007C00
0000007C00
00000003E0
00000003E0
00000003E0
00000003E0
00000003E0
000000001F
000000001F
000000001F
000000001F
000000001F
ENDCHAR
STARTCHAR ff39
ENCODING 65337
SWIDTH 4800 0
DWIDTH 40 0
BBX 40 40 0 0
BITMAP
F800000000
F800000000
F800000000
F800000000
F800000000
07C0000000
07C0000000
07C0000000
07C0000000
07C0000000
003E000000
003E000000
003E000000
003E000000
003E000000
0001F00000
0001F00000
0001F00000
0001F00000
0001F00000
0001FFFFFF
0001FFFFFF
0001FFFFFF
0001FFFFFF
0001FFFFFF
003E000000
003E000000
003E000000
003E000000
003E000000
07C0000000
07C0000000
07C0000000
07C0000000
07C0000000
F800000000
F800000000
F800000000
F800000000
F800000000
ENDCHAR
STARTCHAR ff3c
ENCODING 65340
SWIDTH 4800 0
DWIDTH 40 0
BBX 40 40 0 0
BITMAP
F800000000
F800000000
F800000000
F800000000
F800000000
07C0000000
07C0000000
07C0000000
07C0000000
07C0000000
003E000000
003E000000
003E000000
003E000000
003E000000
0001F00000
0001F00000
0001F00000
0001F00000
0001F00000
00000F8000
00000F8000
00000F8000
00000F8000
00000F8000
0000007C00
0000007C00
0000007C00
0000007C00
0000007C00
00000003E0
00000003E0
00000003E0
00000003E0
00000003E0
000000001F
000000001F
000000001F
000000001F
000000001F
ENDCHAR
STARTCHAR ffe1
ENCODING 65505
SWIDTH 4800 0
DWIDTH 40 0
BBX 40 40 0 0
BITMAP
00000FFC00
00000FFC00
00000FFC00
00000FFC00
00000FFC00
0001F003E0
0001F003E0
0001F003E0
0001F003E0
0001F003E0
0001F00000
0001F00000
0001F00000
0001F00000
0001F00000
003FFF8000
003FFF8000
003FFF8000
003FFF8000
003FFF8000
0001F00000
0001F00000
0001F00000
0001F00000
0001F00000
0001F00000
0001F00000
0001F00000
0001F00000
0001F00000
003FFFFFE0
003FFFFFE0
003FFFFFE0
003FFFFFE0
003FFFFFE0
0000000000
0000000000
0000000000
0000000000
0000000000
ENDCHAR
STARTCHAR ffe3
ENCODING 65507
SWIDTH 4800 0
DWIDTH 40 0
BBX 40 40 0 0
BITMAP
FFFFFFFFFF
FFFFFFFFFF
FFFFFFFFFF
FFFFFFFFFF
FFFFFFFFFF
0000000000
0000000000
0000000000
0000000000
0000000000
0000000000
0000000000
0000000000
0000000000
0000000000
0000000000
0000000000
0000000000
0000000000
0000000000
0000000000
0000000000
0000000000
0000000000
0000000000
0000000000
0000000000
0000000000
0000000000
0000000000
0000000000
0000000000
0000000000
0000000000
0000000000
0000000000
0000000000
0000000000
0000000000
0000000000
ENDCHAR
STARTCHAR ffe5
ENCODING 65509
SWIDTH 4800 0
DWIDTH 40 0
BBX 40 40 0 0
BITMAP
003E0003E0
003E0003E0
003E0003E0
003E0003E0
003E0003E0
0001F07C00
0001F07C00
0001F07C00
0001F07C00
0001F07C00
003FFFFFE0
003FFFFFE0
003FFFFFE0
003FFFFFE0
003FFFFFE0
00000F8000
00000F8000
00000F8000
00000F8000
00000F8000
003FFFFFE0
003FFFFFE0
003FFFFFE0
003FFFFFE0
003FFFFFE0
00000F8000
00000F8000
00000F8000
00000F8000
00000F8000
00000F8000
00000F8000
00000F8000
00000F8000
00000F8000
0000000000
0000000000
0000000000
0000000000
0000000000
ENDCHAR
ENDFONT
